<?xml version="1.0" encoding="utf-8"?>
<!-- Generator: Adobe Illustrator 25.4.1, SVG Export Plug-In . SVG Version: 6.00 Build 0)  -->
<svg version="1.1" id="Layer_1" xmlns="http://www.w3.org/2000/svg" xmlns:xlink="http://www.w3.org/1999/xlink" x="0px" y="0px"
	 viewBox="0 0 271.2 68.3" style="enable-background:new 0 0 271.2 68.3;" xml:space="preserve">
<style type="text/css">
	.st0{fill:#FFFFFF;}
</style>
<g>
	<path class="st0" d="M7.9,15.5c2.7-0.1,5-0.2,6.9-0.2c2.8,0,4.9,0.2,6.3,0.5c1.4,0.4,2.7,1,3.7,1.9c1.6,1.4,2.4,3.7,2.4,6.8V25
		c0,1.8-0.3,3.2-0.8,4.3c-0.6,1.1-1.5,2.2-2.9,3.3c-3.5,2.8-6.9,4.6-10.3,5.4L10,38.9v4.3c0,2.8-0.1,4.6-0.4,5.5
		c-0.4,1.1-1.1,1.6-2.1,1.6c-0.7,0-1.4-0.4-2-1.2C4.5,47.9,4,43.3,4,35.3c0-2.4,0-4.2,0.1-5.5c0.2-8.7,0.5-13.2,0.6-13.6
		c0,0,0.1-0.1,0.1-0.1C5.2,15.8,6.1,15.6,7.9,15.5z M20,17.8c-0.8-0.4-2.1-0.6-3.9-0.6h-0.9c-2.6,0-4.3,0.2-5.1,0.5
		c-0.8,0.3-1.2,0.9-1.2,1.9c0,0.5,0,0.9,0.1,1.2c0.2,2,0.4,4.8,0.6,8.4c0.2,4.1,0.4,6.2,0.6,6.3c0,0,0.1,0.1,0.3,0.1
		c0.7,0,2.2-0.6,4.5-1.8c2.3-1.2,4-2.4,5.3-3.4c1.5-1.3,2.4-3.5,2.7-6.4c0-0.1,0-0.2,0-0.4c0-0.2,0-0.3,0-0.4
		C22.8,20.5,21.9,18.8,20,17.8z"/>
	<path class="st0" d="M45.4,13c0-0.2,0.5-0.3,1.4-0.3c2.4,0,4.6,0.4,6.7,1.2c1.6,0.6,2.9,1.4,3.9,2.2c1,0.8,1.8,2,2.6,3.5
		c0.6,1.2,1,2.1,1.1,2.7c0.1,0.6,0.2,1.8,0.2,3.5c0,1.7,0,2.8-0.1,3.3c-0.1,0.5-0.4,1.1-0.9,1.9c-0.8,1.1-1.8,2-3.2,2.7
		c-1.4,0.8-2.2,1.3-2.2,1.4c0,0.2,0.5,0.8,1.4,1.7c0.9,1,1.8,2.3,2.7,3.8c0.2,0.4,0.7,1.3,1.5,2.6c0.8,1.3,1.3,2.2,1.6,2.7
		c1.1,2,1.7,3.3,1.7,3.9c0,0.5-0.2,0.8-0.7,0.9c-0.2,0.1-0.6,0.1-1,0.1c-1.3,0-2.6-0.7-3.8-2.1c-2.5-2.7-4.3-5.1-5.3-7.1
		c-0.7-1.4-1.4-2.6-2.3-3.6c-0.4-0.5-0.8-0.8-1-0.9C49.2,37,48.8,37,48.2,37c-0.7,0-1.4,0-1.9,0.1c-1.9,0.1-3.1,0.2-3.6,0.4
		c-0.3,0.1-0.4,1.5-0.4,4.1c0,5.7-1.2,8.6-3.5,8.6c-0.3,0-0.5,0-0.6-0.1c-0.8-0.2-1.5-0.9-2.2-2.2l-1-1.9l0.1-12.5v-5.1
		c0-5.1-0.1-7.8-0.2-8.1c-0.1-0.2-0.2-0.6-0.2-1.3c0-0.4,0-0.8,0.1-1c0.1-0.8,0.3-1.3,0.5-1.5c0.2-0.2,0.8-0.5,1.6-0.8
		c3.5-1.3,5.8-2,6.9-2.1C44.6,13.4,45.2,13.3,45.4,13z M51.4,16c-1.3-0.7-3-1-5-1c-0.7,0-1.1,0.1-1.3,0.2c-0.3,0.2-1,0.5-2.1,0.9
		c-1.1,0.4-1.8,0.7-2.1,0.9c-0.3,0.3-0.5,0.6-0.5,0.8c0,0.3,0.1,1,0.4,2.1c0.4,1.5,0.7,4,1,7.5c0.3,3.6,0.6,5.4,0.6,5.5
		c0.2,0.2,1.6,0.4,4.2,0.4s4.1-0.1,4.3-0.4c0.3-0.3,0.9-0.7,1.9-1.3c1.8-1.2,2.9-3.1,3.2-5.6c0-0.4,0.1-0.9,0.1-1.6
		C56.2,20.4,54.6,17.7,51.4,16z"/>
	<path class="st0" d="M83.5,15.2c0.9-0.1,2.2-0.2,4-0.2c3.5,0,5.8,0.2,6.9,0.6c2.6,0.9,4.7,2.8,6.2,5.8c1.4,2.9,2.2,7.1,2.2,12.5
		c0,5.1-0.6,8.7-1.9,10.9c-1.7,3-5.5,4.9-11.4,5.8c-1.5,0.2-2.6,0.3-3.1,0.3c-1.9,0-4.2-0.7-6.8-2c-2.8-1.4-4.8-3-6-4.9
		c-1.2-1.9-1.8-4.3-1.9-7.2c0-1.3,0.1-2.4,0.3-3.1c0.2-0.7,0.6-1.8,1.2-3.2c0.6-1.5,1.2-2.6,1.6-3.2c0.5-0.7,1.3-1.6,2.6-2.8
		c2.8-2.7,5.2-4.1,7.1-4.2c1.7,0,2.6,0.3,2.6,0.9c0,0.4-0.5,0.8-1.4,1.2c-1,0.4-2.2,1.3-3.7,2.9c-3.3,3.3-5,7-5.3,11.2v1
		c0,4.5,2,7.7,5.9,9.7c1.7,0.9,2.9,1.3,3.6,1.3c0.5,0,0.9,0,1.2-0.1c3.5-0.4,6-1.5,7.5-3.2c2.2-2.5,3.3-6.9,3.3-13.2
		c0-4.6-0.7-8.3-2.2-10.9c-0.7-1.3-1.5-2.3-2.3-2.9c-0.5-0.4-1-0.7-1.5-0.8c-0.5-0.1-1.6-0.2-3.3-0.3c-0.3,0-0.7,0-1.2,0
		c-0.5,0-0.8,0-0.9,0c-1.2,0-2.8,0.4-4.7,1.3c-3.1,1.3-4.8,2-5,2c-0.1,0-0.3-0.1-0.5-0.3c-0.1-0.1-0.1-0.2-0.1-0.4
		c0-0.7,1-1.5,3-2.5C81.2,16,82.7,15.4,83.5,15.2z"/>
	<path class="st0" d="M124.9,17.5c0.2-0.4,0.8-0.6,1.7-0.6c0.4,0,0.6,0.1,0.8,0.1c0.1,0,0.3,0.1,0.4,0.2c0.1,0.1,0.2,0.3,0.3,0.5
		c0,0.2,0.1,0.5,0.2,0.9c0.2,1.6,0.6,4.8,1.1,9.6s0.8,8,0.8,9.7c0,0.2,0,0.5,0,0.9c0,0.4,0,0.7,0,1c0,2.5-0.2,5.3-0.5,8.3
		c-0.4,3-0.7,5-1.1,5.7c-0.5,1.2-1.8,2.1-3.8,3c-2,0.8-4,1.2-6.1,1.2c-0.5,0-0.9,0-1.2-0.1c-1.3-0.1-2.6-0.5-3.8-1.2
		c-1.2-0.6-2-1.4-2.5-2.3c-0.5-0.9-0.8-1.8-0.8-2.6s0.2-1.8,0.6-3c0.3-0.8,0.5-1.3,0.7-1.5c0.2-0.2,0.5-0.4,1-0.5c0,0,0.1,0,0.2,0
		c0.1,0,0.2,0,0.2,0c0.5,0,1,0.5,1.5,1.6c1.6,3.1,2.9,5.1,3.7,6c0.4,0.4,0.7,0.6,1.1,0.6c0.3,0,0.6-0.1,1.1-0.2c1-0.3,1.6-0.7,2-1.2
		c1.2-1.6,1.8-9.3,1.8-23.1C124.5,22.3,124.6,18,124.9,17.5z"/>
	<path class="st0" d="M138.3,15.4c0.4-0.1,2-0.2,4.9-0.2c7.5,0,11.8,0.2,12.8,0.6c0.5,0.1,0.7,0.3,0.7,0.5c0,0.4-1.6,0.7-4.8,0.9
		c-3.1,0.2-4.9,0.3-5.4,0.3l-1.2,0.1l0.2,6.2c0.2,4.4,0.3,6.8,0.4,7.3l0.3,1.1l4.6-0.1h0.9c3.1,0,4.6,0.2,4.6,0.7
		c0,0.1-0.1,0.2-0.4,0.4c-0.4,0.3-2.8,0.6-7.1,1l-2.8,0.2l-0.3,5c0,0.7-0.1,1.6-0.1,2.6c0,1-0.1,1.8-0.1,2.3c0,0.6-0.1,0.9-0.1,1
		l-0.1,0.9l5,0.2c4.9,0.2,7.3,0.9,7.3,2c0,0.6-0.4,1-1.2,1.2c-0.8,0.2-2.4,0.3-4.8,0.3c-1.9,0-3.4,0-4.7-0.1
		c-5.3-0.1-8.2-0.5-8.7-0.9c-0.2-0.2-0.3-0.3-0.4-0.5c0-0.1-0.1-0.5-0.2-1.3c-0.1-0.7-0.1-1.8-0.1-3.4c0-0.1,0-4.6,0.1-13.3v-5.1
		c0-4.8,0-7.6-0.1-8.3c-0.1-0.6-0.2-1-0.1-1.2C137.7,15.8,137.9,15.6,138.3,15.4z"/>
	<path class="st0" d="M175.5,13.1c0.6-0.2,1.7-0.3,3.3-0.3c0.8,0,1.4,0,1.8,0.1c2.2,0.1,3.7,0.3,4.7,0.6c1,0.3,2,1,3.1,2.1
		c0.9,0.9,1.4,1.6,1.4,2.3c0,0.5-0.3,0.8-0.9,0.9c-0.3,0.1-0.5,0.1-0.6,0.1c-0.4,0-1.7-0.8-3.7-2.5c-1.2-1-2.3-1.5-3-1.5
		c-0.1,0-0.3,0-0.5,0c-0.2,0-0.4,0-0.5,0c-1.1,0.1-1.8,0.3-2.2,0.6c-0.4,0.3-1.2,1.3-2.3,3c-0.6,0.9-1.1,1.7-1.3,2.6
		c-0.3,0.8-0.6,2.5-1,5.1c-0.3,2-0.5,4.2-0.5,6.7c0,4.6,0.5,7.9,1.6,9.9c0.4,0.8,1.1,1.7,1.9,2.6c0.8,0.9,1.6,1.5,2.4,1.8
		c0.9,0.4,1.5,0.6,2,0.6c0.1,0,1-0.1,2.6-0.3c1.9-0.2,3.1-0.6,3.7-0.9c0.5-0.4,1-1.3,1.5-2.8c0.4-1.3,1-2.5,1.7-3.4
		c0.7-0.9,1.5-1.3,2.4-1.3c0.6,0,1,0.1,1.3,0.2c0.2,0.1,0.5,0.5,0.8,1.1c0.4,0.8,0.6,1.5,0.6,2.2c0,0.7-0.2,1.6-0.5,2.7
		c-0.6,2.2-1.8,3.6-3.7,4.2c-0.9,0.3-2.5,0.7-5,1c-2.4,0.3-4.5,0.5-6,0.5c-2.4,0-4.7-0.6-6.8-1.7c-2.1-1.1-3.9-2.7-5.2-4.7
		c-1.7-2.6-2.6-6.1-2.6-10.5c0-2.8,0.4-5.8,1.2-8.9c0.9-3,1.4-4.7,1.7-5.3c0.5-0.9,1.5-2.2,3.2-3.9
		C173.6,14.3,174.8,13.3,175.5,13.1z"/>
	<path class="st0" d="M224.6,16.5c5.3-0.2,8.1-0.4,8.6-0.4c1,0,1.4,0.1,1.4,0.4c0,0.8-2.4,1.4-7.2,1.7c-0.4,0-1,0.1-1.6,0.1
		c-0.6,0-1.1,0-1.4,0.1c-0.3,0-0.7,0.1-1,0.1c-0.3,0-0.5,0.1-0.7,0.2c-0.1,0.1-0.2,0.2-0.2,0.3c0,1.4,0.1,3.8,0.2,7.2
		c0.1,1.9,0.2,6.9,0.4,15c0,4.2-0.1,6.9-0.3,7.9c-0.2,1-0.9,1.8-1.9,2.2c-0.3,0.1-0.7,0.2-1.1,0.2c-1.1,0-2-0.7-2.7-2.2
		c-0.6-1.2-0.9-4.1-0.9-8.6c0-2.8,0.1-5.4,0.3-8l0.6-9.3l0.2-3.6h-1.9c-1.6,0-3.4,0.2-5.4,0.6c-1.5,0.3-2.6,0.4-3.2,0.4
		c-0.4,0-0.9-0.1-1.6-0.3c-0.9-0.2-1.3-0.5-1.3-0.6C203.8,18.2,210.8,17.1,224.6,16.5z"/>
	<path class="st0" d="M247.5,12.4c0.6-0.2,1.7-0.4,3.3-0.4c1.9,0,3.6,0.2,5.3,0.5c1.6,0.4,3.1,0.9,4.4,1.7c1.3,0.7,2.1,1.4,2.2,2.1
		c0,0.1,0.1,0.3,0.1,0.6c0,0.6-0.3,0.9-0.9,0.9c-1,0-1.9-0.4-2.7-1.1c-0.7-0.6-1.4-1.1-2.1-1.3c-0.7-0.3-1.9-0.6-3.6-0.9
		c-0.8-0.2-1.5-0.3-2.1-0.3c-0.5,0-0.9,0.1-1.2,0.4c-0.3,0.3-0.7,0.9-1.3,1.8c-0.7,1.1-1,2.2-1,3.3c0,3.3,3,6.6,9.1,9.8
		c6,3.1,9.3,7,9.9,11.7c0.1,0.9,0.1,1.4,0.1,1.7c0,1.8-0.6,3.3-1.9,4.7c-1.6,1.7-3.6,2.9-6.1,3.4c-1,0.2-2.2,0.4-3.6,0.4
		c-2.7,0-5.1-0.7-7.3-2.2c-0.9-0.5-1.5-1.1-1.9-1.6c-0.4-0.5-0.9-1.3-1.4-2.4c-1-1.9-1.4-3.4-1.4-4.5c0-1.8,0.5-2.7,1.6-2.7
		c1.6,0,3.4,1.7,5.5,5.2c2,3.4,3.9,5,5.7,5c1,0,2-0.5,3.1-1.4c1.5-1.3,2.3-2.8,2.3-4.2c0-1-0.2-2-0.5-3c-0.5-1.6-1.3-3-2.4-4.1
		c-1.1-1.1-2.8-2.3-5.2-3.6c-3.7-2-6.5-3.9-8.2-5.7c-1.7-1.8-2.6-3.8-2.6-5.8c0-0.8,0.1-1.5,0.3-2.2c0.2-0.8,0.9-1.9,2-3.3
		C245.9,13.4,246.8,12.6,247.5,12.4z"/>
</g>
</svg>
