<?xml version="1.0" encoding="utf-8"?>
<!-- Generator: Adobe Illustrator 25.4.1, SVG Export Plug-In . SVG Version: 6.00 Build 0)  -->
<svg version="1.1" id="Layer_1" xmlns="http://www.w3.org/2000/svg" xmlns:xlink="http://www.w3.org/1999/xlink" x="0px" y="0px"
	 viewBox="0 0 476.5 192.8" style="enable-background:new 0 0 476.5 192.8;" xml:space="preserve">
<path d="M148.5,151.7c7.6-0.1,18.9-2.1,18.7,8.7c0.5,8.6-9.8,12.1-16.7,13.9c-0.2,2.8,1.3,14.8-4.3,9.9c-2.5-1.9-1.1-30.4-0.8-31.8
	C146.3,151.8,147.4,151.6,148.5,151.7z M160.2,153.9c-2.4-0.7-10.6-1.8-10.7,1.7c0.3,2.2,0.7,13.8,1.3,15.4c2.2,0.3,7.4-3.2,9.8-4.9
	C163.4,163.8,164.4,155.7,160.2,153.9L160.2,153.9z"/>
<path d="M184.8,149.3c12.5-3.2,22.8,15.5,9.2,21.4c2.5,2.5,15.4,21.7,3.2,13.2c-5.5-4.9-5.7-14.1-15.1-10.8
	c-0.7,2.9,0,14.1-4.3,12.2c-1.3-0.1-2.5-2.7-3.1-4c0,0,0.1-12.1,0.1-12.1C176,152.5,168.9,153.6,184.8,149.3z M190.6,152.2
	c-3.3-1.7-8.2-1.1-10.6,1.7c0.9,3.4,1.7,12.3,2,14.6c1.8,0.8,8.8,0.6,10.1-1.3C197,163.7,196,154.6,190.6,152.2L190.6,152.2z"/>
<path d="M221.6,151.4c19.1-3.9,21.4,15.4,16.8,28.6c-6.1,9.8-29.1,6.6-28.2-7.8c-0.5-6.6,8.8-19,14.9-15.1
	c-5.1,3.5-10.5,8.9-10.1,15.8c-0.9,9.3,12.1,13.9,17.6,7.4c3.8-3.7,4.3-18.3,1.1-23.3c-2.6-7.2-14.3-2.5-18.3-0.7
	C213.2,154.9,220,152.1,221.6,151.4z"/>
<path d="M261.7,153.6c0.8-1,3.4-0.8,3.3,1.1c0.3,2.4,1.9,16.2,1.8,18.7c-0.1,9.7,0.8,20.7-12.3,19.3c-4.4-0.2-8.4-4.4-6.3-8.8
	c0.2-1,0.9-2.1,2.1-1.9C265.3,207.8,259.6,162.9,261.7,153.6z"/>
<path d="M274.6,151.6c5.4-0.4,17.4-0.4,17.8,0.9c-0.1,1-11,1.1-11,1.3c0.2,3.5,0.3,12.7,0.9,14.1c12-0.7,13.5,1.4-0.2,2.2
	c-0.3,3.5-0.3,8.1-0.7,11.4l4.8,0.2c5.3,0.1,9.2,1.3,5.9,3.1c-4.5,0.4-16.3,0.7-18-1.2c-0.8-4.1,0.3-24.7-0.4-31.5
	C274.1,152,274.2,151.8,274.6,151.6z"/>
<path d="M310.6,149.4c4.1-0.5,9.4-0.8,12.5,2.4c1.5,1.3,2.1,3.1-0.1,3.2c-15-13.8-16.5,14.8-13,23.1c1.9,5.3,11.8,7.1,13.6,1
	c1.6-6.8,8.4-5.4,6.1,1.5c-2,6.9-15.5,6.4-20.8,3.9C297,178,300,155.6,310.6,149.4z"/>
<path d="M358.1,152.6c6.4,0,7.6-1,9.7,0c0.4,1.8-9.5,1.1-11.8,2.4c0,6.8,1.1,18.8,0.3,29.2c-9.8,11.9-5.3-24.2-5.3-28.4
	C332.4,158.3,333.4,153.4,358.1,152.6z"/>
<path d="M380.3,148.7c2.6-1.6,18.3,1.3,13.9,5.2c-5-1.9-12.6-7.5-13.5,1.8c-0.5,7.4,19.3,12.2,18.4,20.8
	c1.5,11.3-17.7,13.3-21.4,3.9c-1.1-1.6-2.5-6.7,0.2-7c3.1-0.7,7.5,10.7,10.8,9.8c3.9-0.4,6.3-4.8,4.7-8.3
	C390.2,165.1,365.1,162,380.3,148.7z"/>
<g>
	<path d="M169.7,49c0.6-1.4,4.9-0.7,5.3-0.3c-0.9,12.8-3.4,27.9-2.5,41.1c4.4,1.6,23.1-6.5,19.4,3c-1.1,1.1-6.5,2.1-16.3,3.1
		c-3,0-6.1,2.5-8.9,0.9C163.2,84.6,168.4,59.4,169.7,49z"/>
	<path d="M221.2,49.7c7.7-2.8,11.7,25.7,13.9,30.9c0.6,4.3,6.3,18.8-2.6,16c-2.5-3.6-2.4-12.3-4-16.7c-0.1-2.6-1.2-3.5-3.7-2.5
		c-19.4,3.8-10.6,0.9-19.5,19c-1.1,2.6-5,2-5.2-0.9c0-1,0.6-2.7,1.7-5.4C205.8,79.1,212.5,60.1,221.2,49.7z M223.1,61
		c-0.1-0.7-0.4-1.4-0.8-2c0.6-1.3-9.2,16.7-7.8,16.4C229.6,71.9,227.3,75.9,223.1,61z"/>
	<path d="M258,49.9c7.5-2.5,12.3,2.3,13.4,9.5c-4.2,5.2-6.6-7.7-10.6-4.9c-3.7,12-6.7,30-1.2,41.5c2.5,0.5,5.8-12.9,9.5-14.3
		c0.8,0.6,0.3,1.1,0.3,3c-0.4,5.4-0.8,8.5-1.4,9.3c-2.9,5.9-14.3,9.8-19.1,5.3C242.3,84.8,242.3,57.6,258,49.9z"/>
	<path d="M283.4,51.1c6.5-3.8,3.7,20.2,5,22c0.2,1.4,11.3-12.8,18-18.5c8.1-3.6-12,18-12.7,19.3c3.5,0.2,8.5-0.4,11.6,2.1
		c7.3,4.3,12.7,18.8,7.2,26.3c-2.9,1.7-3.6-0.5-3.6-3c-1.1-10.7-8.4-25.6-21.2-19.5c-0.6,5.2-1.2,8.9-1.8,15c0.2,3-1.5,9.4-5.4,6.3
		c-3.7-8.6-0.2-23.4,0.1-34.2C281.7,56.6,280.4,52.8,283.4,51.1z"/>
</g>
<g>
	<path d="M403.4,51.5c1.4-0.6,4.4-1.2,5.4-0.1c0.7,1.2-5.7,5.9-4.3,7c18-13.5,30.7,9.7,19.8,24.7c-8.8,16.2-35.6,21.8-35.1-3.7
		C388.9,69,394,54.6,403.4,51.5z M416,59.9c-6.1-4-9.4,2.9-12.6,0.3c-4.7,8.1-9.8,30,2.6,32.5C417.1,88.9,427.5,68.5,416,59.9z"/>
	<path d="M460.8,50.2c8.1-2.7-3.3,15.1-5.9,21.9c5.6,7.4,13,17.4,17,24.1c3.8,7.1,7.9,10.7,0.9,11.8c-7.2-5-16.6-20.8-22.6-27.2
		C447.4,82.1,440,101,436,97.9c-2.3-0.9,10.6-22.4,10.4-23.2c-1-2.8-9.4-16.9-9.1-17.5c0.4-1.4,2.2-1.8,3.5-2.1
		c3.1,3,7.8,8.7,9.8,10.7C452.1,63.4,460,48.8,460.8,50.2z"/>
</g>
<g>
	<path d="M125.3,49c9.7-1.6,19.2,1.2,23.5,10.1c3.7,12.3-8.2,25.8-14.9,35.1c0,0.7,0.8,0.2,1.2,0.2c6.8-2.6,14.8-3.5,21.7-0.7
		c14.3,8.8-5.6,26.6-15.2,37c-10.7,10.2-21.9,26-36.4,33c-4.6,2.9-14.7,4.5-7.4-0.5c7.1-5.7,14-13.7,19.5-20.2
		c8-10,26-26.3,32.4-34.1c13.8-22.5-24.5-4.6-33-1.8c0,2.4,0.3,9.4,0.2,11.7c-0.9,15.2,2.1,23.5-8.1,23c-5.5-1.2-4.6-9.5-3.9-14.2
		c1.6-6.5,2.4-45.8,3.3-59.7c0-5.4,3.6-9.8,5.6-3.2c1.2,5.2,1.9,13,1.9,23.4c0.1,5.9,0.1,9.1,0.7,9.2c12.8-10.9,23.7-28.2,23-32.3
		c-7.2-25.7-35-5.9-48,3.4c-2.4-1.8,3-4.9,5.3-7.4C104.4,52.5,114.7,50.7,125.3,49z"/>
</g>
<g>
	<path d="M122.3,1.6c1.8-3.2,6.8-1.1,5.8,2.4c0,0.2-0.4,0.7-1.1,1.6c2.7-2.3-40.2,43.2-57.9,61.5c0,16.3-0.1,70.2,0.2,79.3
		c0.1,6.8,0.9,8.8,2.9,13.3h-6.1c-5.9-0.3-7.4,0.6-5.1-2.7c1.7-5,1.7-65.9,1.5-83c0.9-6.6-5.4-10.5-9.4-14.8
		C38.6,44.4,8.6,15.1,0,3.5c3.9-8.9,22.1,15.7,35.4,27.8c0,0,30.3,30.7,30.3,30.7c7.6-7.1,16.1-16.8,45.6-48.2
		C116.9,7.7,120.5,3.8,122.3,1.6z"/>
</g>
<g>
	<path d="M348.7,49c9.7-1.6,19.2,1.2,23.5,10.1c3.7,12.3-8.2,25.9-14.9,35.1c0,0.7,0.8,0.2,1.2,0.2c6.8-2.6,14.8-3.5,21.7-0.7
		c14.3,8.8-5.6,26.6-15.2,37c-10.6,10.2-21.9,26-36.4,33c-4.6,2.9-14.7,4.5-7.4-0.5c7.1-5.7,14-13.6,19.4-20.2
		c8.1-10,26-26.3,32.4-34.1c13.9-22.5-24.6-4.6-33-1.8c0.4,8.1,0.3,30.9-1.6,32.5c-3.7,4.8-11.7,1.9-10.8-5.4
		c1.3-14.4,2.6-23.6,3.1-48.8c1-10.1-1.3-21.7,3.9-24c6.6,4.1,3,27.8,5,36.1c12.9-10.6,23.7-28.3,23.1-32.3c-5.6-22.9-33-9-44.7,1.4
		c-2.3,1.4-3.2,2.9-4,1.4c1.6-4.5,9.9-9.7,13.5-13.2C334.5,51.9,341.6,50,348.7,49z"/>
</g>
</svg>
