<?xml version="1.0" encoding="utf-8"?>
<!-- Generator: Adobe Illustrator 25.4.1, SVG Export Plug-In . SVG Version: 6.00 Build 0)  -->
<svg version="1.1" id="Layer_1" xmlns="http://www.w3.org/2000/svg" xmlns:xlink="http://www.w3.org/1999/xlink" x="0px" y="0px"
	 viewBox="0 0 476.5 192.8" style="enable-background:new 0 0 476.5 192.8;" xml:space="preserve">
<style type="text/css">
	.st0{fill:#FFFFFF;}
</style>
<path class="st0" d="M148.5,151.7c2.6-0.1,4.8-0.2,6.7-0.2c2,0,4.1,0.1,6.1,0.5c1.3,0.3,2.5,1,3.6,1.8c1.6,1.4,2.3,3.6,2.3,6.6v0.5
	c0,1.4-0.2,2.8-0.8,4.1c-0.7,1.3-1.7,2.3-2.8,3.2c-2.9,2.5-6.3,4.3-10,5.2l-3.1,0.9v4.2c0.1,1.8,0,3.6-0.4,5.3c-0.2,0.9-1,1.6-2,1.6
	c-0.8-0.1-1.5-0.5-1.9-1.2c-1-1.2-1.5-5.6-1.4-13.4c0-2.3,0-4.1,0.1-5.3c0.2-8.4,0.5-12.8,0.6-13.2l0.1-0.1
	C146.4,151.8,147.5,151.6,148.5,151.7z M160.2,153.9c-1.2-0.5-2.5-0.7-3.8-0.6h-0.9c-1.7-0.1-3.3,0.1-4.9,0.5
	c-0.8,0.3-1.3,1-1.2,1.8c0,0.4,0,0.8,0.1,1.2c0.2,1.9,0.4,4.7,0.6,8.1c0.2,4,0.4,6,0.6,6.1c0.1,0.1,0.2,0.1,0.3,0.1
	c0.7,0,2.1-0.6,4.4-1.7c1.8-0.9,3.5-2,5.1-3.3c1.4-1.3,2.3-3.4,2.6-6.2v-0.8C162.9,156.5,162,154.9,160.2,153.9L160.2,153.9z"/>
<path class="st0" d="M184.8,149.3c0-0.2,0.5-0.3,1.4-0.3c2.2,0,4.4,0.4,6.5,1.2c1.4,0.5,2.6,1.2,3.8,2.1c1.1,0.9,1.9,2.1,2.5,3.4
	c0.5,0.8,0.8,1.7,1.1,2.6c0.1,1.1,0.2,2.3,0.2,3.4c0,1.1,0,2.1-0.1,3.2c-0.2,0.7-0.5,1.3-0.9,1.8c-0.8,1.1-1.9,2-3.1,2.6
	c-0.8,0.4-1.5,0.8-2.1,1.4c0,0.2,0.5,0.8,1.4,1.6c1,1.1,1.9,2.4,2.6,3.7c0.2,0.4,0.7,1.2,1.4,2.5s1.3,2.1,1.6,2.6
	c0.8,1.2,1.3,2.4,1.6,3.8c0.1,0.4-0.2,0.8-0.7,0.9c0,0,0,0,0,0c-0.3,0.1-0.7,0.1-1,0.1c-1.5-0.1-2.8-0.8-3.7-2c-2-2-3.7-4.4-5.1-6.9
	c-0.6-1.3-1.3-2.4-2.2-3.5c-0.3-0.3-0.6-0.6-1-0.9c-0.5-0.1-1-0.1-1.4-0.1c-0.6,0-1.2,0-1.8,0.1c-1.2,0-2.3,0.1-3.5,0.4
	c-0.3,0.1-0.4,1.4-0.4,4c0,5.5-1.2,8.3-3.4,8.3c-0.3,0-0.5,0-0.6-0.1c-0.8-0.2-1.5-0.9-2.1-2.1l-1-1.8l0.1-12.1v-4.9
	c0.1-2.6,0-5.2-0.2-7.8c-0.1-0.4-0.2-0.8-0.2-1.3c0-0.3,0-0.7,0.1-1c0-0.5,0.2-1,0.5-1.4c0.5-0.3,1-0.6,1.6-0.8
	c2.1-0.9,4.4-1.6,6.7-2C184,149.6,184.6,149.6,184.8,149.3z M190.6,152.2c-1.5-0.7-3.2-1.1-4.8-1c-0.4,0-0.9,0-1.3,0.2
	c-0.6,0.4-1.3,0.7-2,0.9c-0.7,0.2-1.4,0.5-2,0.9c-0.2,0.2-0.4,0.5-0.5,0.8c0.1,0.7,0.2,1.3,0.4,2c0.5,2.4,0.9,4.8,1,7.3
	c0.3,3.5,0.6,5.2,0.6,5.3c0.2,0.2,1.6,0.4,4.1,0.4s4-0.1,4.2-0.4c0.6-0.5,1.2-0.9,1.8-1.3c1.8-1.2,2.9-3.2,3.1-5.4
	c0-0.4,0.1-0.9,0.1-1.6C195.2,156.4,193.7,153.8,190.6,152.2L190.6,152.2z"/>
<path class="st0" d="M221.6,151.4c1.3-0.1,2.6-0.2,3.9-0.2c3.4,0,5.6,0.2,6.7,0.6c2.7,1,4.8,3,6,5.6c1.4,2.8,2.1,6.9,2.1,12.1
	c0,4.9-0.6,8.4-1.8,10.6c-1.6,2.9-5.3,4.7-11,5.6c-1,0.1-2,0.2-3,0.3c-2.3-0.1-4.6-0.8-6.6-1.9c-2.3-1-4.3-2.7-5.8-4.7
	c-1.2-2.1-1.9-4.5-1.8-7c0-1,0.1-2,0.3-3c0.3-1.1,0.7-2.1,1.2-3.1c0.4-1.1,0.9-2.1,1.6-3.1c0.7-1,1.6-1.9,2.5-2.7
	c2.7-2.6,5-4,6.9-4.1c1.6,0,2.5,0.3,2.5,0.9c0,0.4-0.5,0.8-1.4,1.2c-1.4,0.7-2.6,1.6-3.6,2.8c-3,2.8-4.9,6.7-5.2,10.9v1
	c-0.2,4,2.1,7.7,5.7,9.4c1.1,0.7,2.2,1.1,3.5,1.3c0.4,0,0.8,0,1.2-0.1c3.4-0.4,5.8-1.4,7.3-3.1c2.1-2.4,3.2-6.7,3.2-12.8
	c0-4.4-0.7-8-2.1-10.6c-0.5-1.1-1.3-2-2.2-2.8c-0.4-0.4-0.9-0.6-1.4-0.8c-0.5-0.1-1.5-0.2-3.2-0.3h-2c-1.6,0.1-3.1,0.5-4.6,1.3
	c-3,1.3-4.6,1.9-4.8,1.9c-0.2,0-0.4-0.1-0.5-0.3c-0.1-0.1-0.1-0.2-0.1-0.4c0-0.7,1-1.4,2.9-2.4C218.9,152.5,220.2,151.8,221.6,151.4
	z"/>
<path class="st0" d="M261.7,153.6c0.2-0.4,0.8-0.6,1.6-0.6c0.4,0,0.6,0.1,0.8,0.1c0.1,0,0.3,0.1,0.4,0.2c0.1,0.1,0.2,0.3,0.3,0.5
	c0,0.3,0.1,0.6,0.2,0.9c0.2,1.6,0.6,4.6,1.1,9.3s0.8,7.7,0.8,9.4v1.8c0,2.4-0.2,5.1-0.5,8s-0.7,4.8-1.1,5.5c-0.5,1.2-1.7,2-3.7,2.9
	c-1.9,0.8-3.9,1.2-5.9,1.2c-0.4,0-0.8,0-1.2-0.1c-1.3-0.1-2.6-0.5-3.7-1.2c-1.8-0.9-3.1-2.7-3.2-4.7c0-1,0.2-2,0.6-2.9
	c0.1-0.5,0.4-1,0.7-1.4c0.3-0.3,0.6-0.4,1-0.5h0.4c0.5,0,1,0.5,1.5,1.6c1,2.1,2.2,4,3.6,5.8c0.3,0.3,0.6,0.5,1.1,0.6
	c0.4,0,0.7-0.1,1.1-0.2c0.8-0.2,1.4-0.6,1.9-1.2c1.2-1.6,1.7-9,1.7-22.3C261.3,158.2,261.4,154.1,261.7,153.6z"/>
<path class="st0" d="M274.6,151.6c1.6-0.2,3.2-0.3,4.7-0.2c7.3,0,11.4,0.2,12.4,0.6c0.5,0.1,0.7,0.3,0.7,0.5c0,0.4-1.5,0.7-4.6,0.9
	s-4.7,0.3-5.2,0.3l-1.2,0.1l0.2,6c0.2,4.3,0.3,6.6,0.4,7.1l0.3,1.1l4.5-0.1h0.9c3,0,4.5,0.2,4.5,0.7c0,0.1-0.1,0.2-0.4,0.4
	s-2.7,0.6-6.9,1l-2.7,0.2l-0.3,4.8c0,0.7-0.1,1.5-0.1,2.5s-0.1,1.7-0.1,2.2c0,0.3,0,0.7-0.1,1l-0.1,0.9l4.8,0.2
	c4.7,0.2,7.1,0.9,7.1,1.9c0,0.6-0.4,1-1.2,1.2c-1.5,0.3-3.1,0.4-4.6,0.3c-1.8,0-3.3,0-4.5-0.1c-5.1-0.1-7.9-0.5-8.4-0.9
	c-0.2-0.1-0.3-0.3-0.4-0.5c0-0.1-0.1-0.5-0.2-1.3c-0.1-1.1-0.1-2.2-0.1-3.3c0-0.1,0-4.4,0.1-12.9v-4.9c0-4.6,0-7.4-0.1-8
	s-0.2-1-0.1-1.2C274.1,152,274.2,151.8,274.6,151.6z"/>
<path class="st0" d="M310.6,149.4c1-0.2,2.1-0.3,3.2-0.3c0.6,0,1.2,0,1.7,0.1c1.5,0,3.1,0.2,4.5,0.6c1.1,0.4,2.2,1.1,3,2
	c0.9,0.9,1.4,1.6,1.4,2.2c0,0.5-0.3,0.8-0.9,0.9c-0.2,0.1-0.4,0.1-0.6,0.1c-0.4,0-1.6-0.8-3.6-2.4c-0.8-0.8-1.8-1.3-2.9-1.5h-1
	c-0.7,0-1.5,0.2-2.1,0.6c-0.9,0.9-1.6,1.9-2.2,2.9c-0.6,0.8-1,1.6-1.3,2.5c-0.5,1.6-0.8,3.3-1,4.9c-0.3,2.1-0.5,4.3-0.5,6.5
	c0,4.4,0.5,7.6,1.5,9.6c0.5,0.9,1.1,1.8,1.8,2.5c0.6,0.8,1.4,1.4,2.3,1.7c0.6,0.3,1.3,0.5,1.9,0.6c0.1,0,1-0.1,2.5-0.3
	c1.2-0.1,2.4-0.4,3.6-0.9c0.7-0.8,1.2-1.7,1.5-2.7c0.3-1.2,0.9-2.3,1.6-3.3c0.5-0.8,1.4-1.2,2.3-1.2c0.4,0,0.9,0.1,1.3,0.2
	c0.3,0.3,0.6,0.6,0.8,1.1c0.4,0.7,0.6,1.4,0.6,2.1c-0.1,0.9-0.2,1.8-0.5,2.6c-0.4,1.9-1.7,3.5-3.6,4.1c-1.6,0.5-3.2,0.8-4.8,1
	c-1.9,0.3-3.9,0.4-5.8,0.5c-2.3,0-4.6-0.6-6.6-1.6c-2-1.1-3.7-2.6-5-4.5c-1.6-2.5-2.5-5.9-2.5-10.2c0-2.9,0.4-5.8,1.2-8.6
	c0.9-2.9,1.4-4.6,1.6-5.1c0.9-1.4,1.9-2.7,3.1-3.8C308.2,151,309.3,150,310.6,149.4z"/>
<path class="st0" d="M358.1,152.6c5.1-0.2,7.8-0.4,8.3-0.4c1,0,1.4,0.1,1.4,0.4c0,0.8-2.3,1.4-7,1.6c-0.4,0-1,0.1-1.5,0.1
	c-0.5,0-0.9,0-1.4,0.1c-0.3,0-0.7,0.1-1,0.1c-0.2,0-0.5,0.1-0.7,0.2c-0.1,0.1-0.2,0.2-0.2,0.3c0,1.4,0.1,3.7,0.2,7
	c0.1,1.8,0.2,6.7,0.4,14.5c0.1,2.6,0,5.1-0.3,7.6c-0.2,1-0.9,1.8-1.8,2.1c-0.3,0.1-0.7,0.2-1.1,0.2c-1.1,0-1.9-0.7-2.6-2.1
	c-0.6-1.2-0.9-4-0.9-8.3c0-2.7,0.1-5.2,0.3-7.7l0.6-9l0.2-3.5h-1.8c-1.8,0-3.5,0.2-5.2,0.6c-1,0.2-2.1,0.3-3.1,0.4
	c-0.5,0-1-0.1-1.5-0.3c-0.9-0.2-1.3-0.5-1.3-0.6C338,154.3,344.8,153.2,358.1,152.6z"/>
<path class="st0" d="M380.3,148.7c1-0.3,2.1-0.4,3.2-0.4c1.7,0,3.4,0.2,5.1,0.5c1.5,0.3,2.9,0.9,4.2,1.6c1.3,0.7,2,1.4,2.1,2
	c0.1,0.2,0.1,0.4,0.1,0.6c0.1,0.4-0.2,0.8-0.7,0.9c-0.1,0-0.1,0-0.2,0c-1,0-1.9-0.4-2.6-1.1c-0.6-0.6-1.3-1-2-1.3
	c-1.1-0.4-2.3-0.7-3.5-0.9c-0.7-0.2-1.3-0.3-2-0.3c-0.4,0-0.8,0.1-1.2,0.4c-0.5,0.5-0.9,1.1-1.3,1.8c-0.6,0.9-1,2.1-1,3.2
	c0,3.2,2.9,6.4,8.8,9.5s9,6.8,9.6,11.3c0.1,0.5,0.1,1.1,0.1,1.6c0,1.7-0.6,3.3-1.8,4.6c-1.6,1.7-3.6,2.8-5.9,3.3
	c-1.1,0.2-2.3,0.4-3.5,0.4c-2.5,0-5-0.7-7.1-2.1c-0.7-0.4-1.3-0.9-1.8-1.6c-0.5-0.7-1-1.5-1.4-2.3c-0.8-1.3-1.3-2.8-1.4-4.4
	c0-1.7,0.5-2.6,1.5-2.6c1.5,0,3.3,1.6,5.3,5s3.8,4.8,5.5,4.8c1.1-0.1,2.2-0.6,3-1.4c1.3-1,2.1-2.4,2.2-4.1c0-1-0.2-2-0.5-2.9
	c-0.4-1.5-1.2-2.9-2.3-4c-1.5-1.4-3.2-2.6-5-3.5c-2.9-1.4-5.6-3.3-7.9-5.5c-1.5-1.5-2.4-3.5-2.5-5.6c0-0.7,0.1-1.4,0.3-2.1
	c0.4-1.2,1.1-2.3,1.9-3.2C378.4,150,379.2,149.2,380.3,148.7z"/>
<g>
	<path class="st0" d="M169.7,49c0.1-0.3,0.4-0.6,0.7-0.7c0.7-0.1,1.3-0.1,2-0.1c1.6,0,2.4,0.2,2.6,0.5v0.1c0,0.1,0.1,0.2,0.1,0.3
		c0,0.9-0.2,2.8-0.6,6c-1.3,9.1-2,18.3-2.1,27.5v2.9c-0.1,1.5,0,2.9,0.1,4.3c0.1,0,0.2,0.1,0.4,0.1c4-0.2,7.9-0.6,11.8-1.3
		c1.6-0.3,3.2-0.4,4.7-0.5c0.8-0.1,1.7,0.1,2.3,0.7c0.5,0.6,0.7,1.4,0.7,2.1c0.1,0.7-0.1,1.3-0.6,1.8c-1.1,1.1-6.5,2.1-16.2,3.1
		c-1.4,0.2-2.7,0.5-4.1,0.9c-1,0.3-2,0.5-3,0.6c-0.7,0-1.3-0.2-1.8-0.6c-0.4-0.3-0.6-0.7-0.8-1.2c-0.2-1-0.3-1.9-0.3-2.9v-2.4
		c0.1-9,0.7-18,2-26.9C168.6,54.8,169.4,50,169.7,49z"/>
	<path class="st0" d="M221.2,49.7c0.4-0.2,0.8-0.3,1.3-0.3c0.6,0,1.1,0.2,1.6,0.4c0.9,0.4,1.6,1.5,2.5,3.2c1.3,3.2,2.5,6.5,3.5,9.8
		c2,6.2,3.7,12.2,5,17.8c1.1,3.9,1.8,7.9,2.2,11.9v1.2c0,0.6,0,1.2-0.2,1.8c-0.1,0.4-0.4,0.7-0.7,0.9c-0.7,0.4-1.5,0.6-2.3,0.6
		c-0.6,0.1-1.2-0.1-1.6-0.4c-0.9-0.7-1.4-2.2-1.6-4.8c-0.1-1.2-0.3-2.5-0.6-3.7c-0.3-1.4-0.6-3-1-4.6s-0.6-2.9-0.8-3.6
		c-0.1-0.8-0.3-1.6-0.5-2.3c-0.2-0.4-0.6-0.6-1-0.6c-0.8,0.1-1.5,0.2-2.2,0.4c-8.3,1.7-12.8,2.6-13.1,2.9s-0.7,1.2-1.2,2.9
		c-0.3,1.1-1.2,3.3-2.6,6.8s-2.3,5.5-2.7,6.4c-0.3,0.5-0.7,0.9-1.2,1.3c-0.4,0.3-0.9,0.5-1.4,0.5c-0.8-0.1-1.6-0.5-2.1-1.2
		c-0.4-0.4-0.6-0.9-0.6-1.5c0-1,0.6-2.7,1.6-5.4c1.2-3.2,2.1-5.5,2.6-7.2c1.6-4.7,4.7-11.9,9.6-21.3c2.5-4.8,4.2-7.9,5-9.3
		S220.6,49.9,221.2,49.7z M223.1,61c-0.1-0.7-0.4-1.4-0.8-2c-0.1,0-1.6,2.8-4.5,8.4c-2.3,4.6-3.5,7.2-3.5,7.8c0,0.1,0,0.1,0.1,0.1
		h0.1c1.5-0.1,3-0.4,4.4-0.9c2.6-0.7,4.6-1.1,5.8-1.3s1.7-0.5,1.7-0.8s-0.5-1.9-1.4-4.8c-0.3-1-0.7-2.2-1.2-3.9
		C223.6,62.8,223.3,61.9,223.1,61z"/>
	<path class="st0" d="M258,49.9c1.2-0.4,2.4-0.6,3.7-0.6c1.5,0,3.1,0.2,4.5,0.9c1.1,0.5,2,1.3,2.7,2.3c0.7,1.2,1.3,2.5,1.6,3.9
		l0.9,3l-0.9,0.7c-0.4,0.3-0.8,0.5-1.4,0.6c-0.8,0-1.6-0.8-2.7-2.3c-0.8-1.1-1.7-2.2-2.7-3.2c-0.6-0.7-1.4-1.1-2.2-1.3
		c-0.4,0-0.6,0.2-0.8,0.6s-0.3,0.8-0.5,1.3s-0.3,0.8-0.4,1c-0.1,0.3-0.2,0.5-0.3,0.8c-0.1,0.4-0.2,0.7-0.3,1s-0.1,0.7-0.3,1.3
		s-0.2,1.2-0.3,1.8s-0.2,1.4-0.4,2.5c-1,5.8-1.6,11.7-1.7,17.6c0,1.7,0,3,0.1,3.9c0.3,2.2,0.7,4.4,1.4,6.5c0.7,2.5,1.2,3.8,1.5,3.9
		h0.1c0.9,0,2.5-2.5,4.8-7.5c0.8-1.9,1.8-3.7,2.8-5.4c0.6-1,1.3-1.3,1.7-1.3c0.3,0,0.4,0.3,0.4,0.9c0,0.1,0,0.8-0.1,2.1
		c-0.4,5.4-0.8,8.5-1.4,9.3c-1.8,3.2-4.8,5.4-8.3,6.3c-1.8,0.5-3.7,0.8-5.6,0.9c-2.7,0-4.5-0.6-5.1-1.8c-0.2-0.5-0.9-2.2-1.8-5.3
		s-1.6-5.4-1.9-6.9c-0.4-1.8-0.5-3.6-0.5-5.4c0-6.6,1-13.2,3.1-19.5C250.1,55.5,253.5,51.5,258,49.9z"/>
	<path class="st0" d="M283.4,51.1c0.5-0.2,1-0.3,1.5-0.4c1.2,0,1.9,1,2.3,2.9c0.2,0.9,0.4,4.4,0.7,10.4s0.5,9.1,0.6,9.1
		c0.7,0,5.2-4.8,13.8-14.6c1.2-1.5,2.6-2.8,4.2-3.9c0.5-0.3,1.1-0.5,1.7-0.6c0.3,0,0.5,0.2,0.5,0.4c0,0,0,0,0,0.1c0,0.4-1,1.9-3,4.7
		c-2,2.8-3.7,5-5,6.6c-0.7,0.8-1.6,1.9-3,3.4s-1.9,2.2-2,2.3c-1.3,1.4-1.9,2.3-1.9,2.3s0.6,0.1,1.6,0.1h1.2c0.4,0,1-0.1,1.7-0.1
		c2.5,0,4.9,0.7,7,2.1c4.2,2.6,7,6.8,8.3,12.4c0.6,2.5,0.9,5.1,0.9,7.6c0.1,1.6-0.1,3.2-0.6,4.7c-0.3,0.7-0.8,1.2-1.5,1.6
		c-0.6,0.4-1.3,0.6-2,0.6h-0.3c-0.4,0-0.7-0.2-0.9-0.6c-0.2-1-0.4-2-0.5-3c-0.4-3.1-1.2-6.2-2.2-9.1c-0.9-2.5-2.2-4.9-3.9-7
		c-1.2-1.2-2.5-2.3-3.9-3.2c-1.1-0.8-2.3-1.4-3.7-1.7h-0.5c-1.4,0-2.7,0.3-4,0.7l-3.1,0.9l-0.6,4.8c-0.4,2.7-0.8,6.1-1.2,10.2
		c-0.1,1.9-0.5,3.8-1,5.6c-0.5,0.8-1.4,1.3-2.4,1.4c-0.2,0-0.5,0.1-0.8,0.1c-0.5,0-0.9-0.3-1.2-0.8c-1.1-1.6-1.6-5.4-1.6-11.4
		c0-3.1,0.2-6.1,0.6-9.2c0.5-3.8,0.9-8.3,1.2-13.6c0.5-9.1,1-14,1.5-15.1C282.5,51.5,282.9,51.3,283.4,51.1z"/>
</g>
<g>
	<path class="st0" d="M403.4,51.5c1.1-0.4,2.2-0.7,3.4-0.7c1.1,0,1.8,0.2,2,0.6c0.1,0.1,0.1,0.3,0.1,0.4c0,0.3-0.7,1.2-2,2.6
		c-1.7,1.7-2.6,3-2.6,3.8c0,0.1,0.1,0.2,0.2,0.2c0.6-0.3,1.2-0.7,1.6-1.2c1.9-1.4,4.2-2.2,6.6-2.4c0.9-0.1,1.7-0.2,2.6-0.2
		c1.9-0.1,3.8,0.2,5.5,1c1.1,0.6,2.2,1.3,3.1,2.2c0.8,0.7,1.5,1.6,2.1,2.5c0.7,1.6,1.2,3.3,1.5,5c0.4,1.9,0.7,3.8,0.8,5.7
		c-0.1,4.3-1.5,8.5-4,12c-3,4.4-6.8,8.3-11.2,11.3c-1.5,1.1-3.2,1.8-4.9,2.1c-1.5,0.3-3,0.4-4.5,0.5c-1.4,0-2.8-0.2-4.2-0.5
		c-1.1-0.2-2.2-0.6-3.2-1.2c-1.1-0.7-2.2-1.5-3.1-2.4c-2.7-2.4-4.1-7-4.1-13.5c0-4.3,0.7-8.5,1.9-12.6
		C393.6,58.8,397.7,53.7,403.4,51.5z M416,59.9c-1.3-0.8-2.8-1.2-4.4-1.2c-1.6-0.1-3.2,0.4-4.5,1.3c-0.6,0.5-1.4,0.9-2.2,1
		c-0.4,0-0.7-0.1-1-0.4l-0.6-0.4c-0.6,0.8-1,1.6-1.4,2.5c-1.1,2.6-2,5.4-2.5,8.2c-0.6,2.8-1,5.6-1.1,8.5c0.1,4.4,0.9,7.8,2.2,10.2
		c0.6,1,1.4,1.7,2.4,2.2c0.9,0.5,1.9,0.9,3,0.9c1.1,0,2.5-0.8,4.4-2.3c2-1.6,3.8-3.5,5.3-5.6c0.9-1.1,1.7-2.2,2.4-3.5
		c0.6-1.3,1.2-2.7,1.6-4.1c0.7-2.1,1.1-4.3,1.1-6.5c0-1.8-0.2-3.7-0.7-5.4c-0.3-1.2-0.8-2.3-1.4-3.3C417.9,61.2,417,60.5,416,59.9z"
		/>
	<path class="st0" d="M460.8,50.2c0.4-0.1,0.8-0.2,1.2-0.2c0.6-0.1,1.3,0.1,1.7,0.6c0.2,0.2,0.3,0.4,0.3,0.7
		c-0.1,0.7-0.3,1.3-0.6,1.9c-1.1,2.9-3.5,8.4-7.4,16.5l-1.2,2.3l5.3,7.1c4.7,6.4,8.6,12,11.7,17s4.6,8.1,4.6,9.3
		c0,1.4-1,2.2-2.9,2.4c-0.2,0-0.5,0.1-0.9,0.1c-0.8-0.2-1.5-0.6-1.9-1.3c-0.8-0.9-3-3.5-6.6-7.8c-4.8-5.9-8.9-11.3-12.3-16.1
		c-1-1.4-1.5-2-1.8-2s-1.5,1.9-4,5.7s-4.5,7.1-6,9.7c-1,1.4-1.9,2.1-3.1,2.1h-0.3c-0.3,0-0.6-0.1-0.8-0.4c-0.1-0.4-0.1-0.9-0.1-1.4
		c0-1.2,1.7-4.9,5.2-11.5s5.2-10,5.3-10.3s-0.2-0.9-0.8-1.8c-0.9-1.3-2-3.4-3.5-6.2c-3.2-5.9-4.8-9.1-4.8-9.5c0-0.2,0.1-0.4,0.3-0.6
		c0.5-0.6,1.1-1,1.8-1.2l1.4-0.4l3.6,3.8c2.5,2.7,4.1,4.5,4.6,5.2c0.8,1,1.3,1.6,1.5,1.7s1.1-1.6,2.7-4.7
		C456.8,54.5,459.2,50.9,460.8,50.2z"/>
</g>
<g>
	<path class="st0" d="M125.3,49c2.9-0.4,4.6-0.6,5.2-0.6h0.4c1.8,0.1,3.6,0.5,5.3,1c1.9,0.4,3.7,1,5.4,1.8c1.6,0.8,3,2,4.1,3.4
		c1.2,1.3,2.3,2.8,3,4.5c0.5,1.4,0.7,2.9,0.7,4.4c0,3.7-1.2,8-3.5,13c-2.4,5-5.5,9.6-9.3,13.7c-1.9,2-2.8,3.4-2.8,4
		c0,0.2,0.1,0.4,0.3,0.4c0,0,0,0,0.1,0c0.1,0,0.3,0,0.4-0.1s0.3-0.1,0.4-0.1c3.9-1.6,8.1-2.4,12.4-2.4c3.2-0.1,6.3,0.4,9.3,1.6
		c3.4,1.7,5,3.9,5,6.8c-0.1,2.4-0.7,4.8-1.7,7c-1.3,3.1-3,6-5,8.6c-2,2.6-6.6,7.4-13.4,14.6c-5.1,5.2-10.7,11.2-17,17.9
		c-5.5,6.2-12,11.3-19.3,15.1c-3.6,1.8-6.1,2.7-7.6,2.7s-2.5-0.2-2.5-0.6s1-1.2,2.8-2.6c3.2-2.5,6.2-5.3,8.9-8.3
		c4-4.2,7.4-8.1,10.6-11.9c5.9-6.9,12.1-13.5,18.7-19.7c7.2-7.1,11.7-11.9,13.7-14.4c1.8-2,2.9-4.5,3-7.2c0-1.6-0.4-2.6-1.2-3.2
		c-1.2-0.7-2.6-1-4.1-0.9c-2.2,0-5.8,0.7-10.8,2.1c-4.1,1.1-8.1,2.5-11.9,4.3c-1.7,0.9-3.5,1.6-5.3,2.1l-2.7,0.9l0.2,8.1v3.6
		c0,12-0.6,18.9-1.7,20.8c-1,1.5-2.7,2.3-5.2,2.3c-0.4,0-0.8,0-1.2-0.1c-3-0.9-4.4-3.4-4.4-7.6c0.1-2.2,0.3-4.4,0.6-6.6
		c1.2-7.8,2-22,2.5-42.3c0.2-8.7,0.5-14.5,0.8-17.4s0.8-4.7,1.4-5.5c0.4-0.6,1-1,1.7-1.1c1.1,0,1.8,1.2,2.5,3.4
		c1.2,5.2,1.9,13,1.9,23.4c0,5.9,0.2,9,0.6,9.2h0.1c0.6,0,1.4-0.8,2.8-2.2c13.3-14.5,20.1-24.6,20.2-30.1c0-1.5-0.8-3.5-2.3-5.8
		c-2.6-4.5-7.6-7-12.8-6.6c-5.2-0.1-10.3,1.2-14.7,3.9c-5.2,3-10.1,6.3-14.9,9.9c-1.8,1.3-2.9,2-3.3,2s-0.7-0.2-0.7-0.6
		c0-1.1,1-2.4,2.9-4c0.4-0.4,1.4-1.3,3.1-2.8s3.2-2.8,4.4-3.9s2.3-1.9,3.1-2.5c3.2-1.3,6.5-2.3,9.9-3.1
		C117.8,50.3,121.5,49.5,125.3,49z"/>
</g>
<g>
	<path class="st0" d="M122.3,1.6c0.6-1,1.6-1.6,2.7-1.6c0.9,0,1.8,0.4,2.4,1.2c0.7,0.8,0.9,1.9,0.7,2.9
		c-0.3,1.4-17.2,19.5-50.6,54.3l-8.4,8.8v42.7c0,19.9,0.1,32.1,0.2,36.7s0.6,7.7,1.4,9.6l1.6,3.7h-6.1c-4.2,0-6.2-0.2-6.2-0.5
		c0.2-0.8,0.6-1.6,1.1-2.2c0.9-1.3,1.4-15.2,1.4-41.7c0-4,0-9.2,0.1-15.8s0.1-11.1,0.1-13.5s0-4.6-0.1-6.8s-0.1-4-0.1-5.2v-2.1
		c0-1.6-0.6-3.1-1.4-4.4c-2.5-2.9-5.1-5.7-7.9-8.3C40.2,46.4,28.2,34.1,16.9,22.4C5.6,10.5,0,4.3,0,3.5s0.9-1.3,2.7-2
		c0.1,0,0.3,0,0.4-0.1c0.1-0.1,0.2-0.1,0.4-0.1c1.1,0,3.4,1.6,6.9,4.9s11.9,11.6,25.1,25l30.3,30.7l2.9-2.7
		c2.5-2.5,16.7-17.7,42.7-45.5C116.9,7.7,120.5,3.8,122.3,1.6z"/>
</g>
<g>
	<path class="st0" d="M348.7,49c2.9-0.4,4.6-0.6,5.2-0.6h0.4c1.8,0.1,3.6,0.5,5.3,1c1.9,0.4,3.7,1,5.4,1.8c1.6,0.8,3,2,4.2,3.4
		c1.2,1.3,2.2,2.8,3,4.5c0.5,1.4,0.7,2.9,0.7,4.4c0,3.7-1.2,8-3.5,13c-2.4,5-5.5,9.6-9.3,13.7c-1.9,2-2.8,3.4-2.8,4
		c0,0.2,0.1,0.4,0.3,0.4c0,0,0,0,0.1,0c0.1,0,0.3,0,0.4-0.1c0.1-0.1,0.2-0.1,0.4-0.1c3.9-1.6,8.1-2.4,12.4-2.4
		c3.2-0.1,6.3,0.4,9.3,1.6c3.4,1.7,5,3.9,5,6.8c-0.1,2.4-0.7,4.8-1.7,7c-1.3,3.1-3,6-5,8.6c-2,2.6-6.6,7.4-13.5,14.6
		c-5.1,5.2-10.7,11.2-17,17.9c-5.5,6.2-12,11.3-19.4,15.1c-3.6,1.8-6.1,2.7-7.6,2.7s-2.5-0.2-2.5-0.6s1-1.2,2.8-2.6
		c3.2-2.5,6.1-5.3,8.9-8.3c4-4.2,7.5-8.1,10.5-11.9c5.9-6.9,12.1-13.5,18.7-19.7c7.2-7.1,11.7-11.9,13.7-14.4s3-4.9,3-7.2
		c0.1-1.2-0.3-2.4-1.2-3.2c-1.2-0.7-2.7-1-4.1-0.9c-2.2,0-5.8,0.7-10.8,2.1c-4.1,1.1-8.1,2.5-11.9,4.3c-1.7,0.9-3.5,1.6-5.3,2.1
		l-2.7,0.9l0.2,8.1v3.6c0,12-0.6,18.9-1.8,20.8c-1,1.5-2.7,2.3-5.2,2.3c-0.4,0-0.8,0-1.2-0.1c-3-0.9-4.5-3.4-4.5-7.6
		c0.1-2.2,0.3-4.4,0.6-6.6c1.2-7.8,2-22,2.5-42.3c0.2-8.7,0.5-14.5,0.8-17.4s0.8-4.8,1.4-5.6c0.4-0.6,1-1,1.7-1.1
		c1.1,0,1.8,1.2,2.5,3.4c1.3,5.2,1.9,13.1,1.9,23.5c0,5.9,0.2,9,0.6,9.2h0.1c0.6,0,1.5-0.8,2.8-2.2c13.3-14.5,20.1-24.6,20.2-30.1
		c0-1.5-0.8-3.5-2.3-5.8c-2.6-4.5-7.6-7-12.8-6.6c-5.2-0.1-10.3,1.2-14.7,3.9c-5.2,3-10.1,6.3-14.9,9.9c-1.8,1.3-2.9,2-3.3,2
		s-0.7-0.2-0.7-0.6c0-1.1,1-2.4,2.9-4c0.4-0.4,1.5-1.3,3.1-2.8s3.2-2.8,4.5-3.9s2.3-1.9,3.1-2.5c3.2-1.3,6.5-2.3,9.9-3.1
		C341.2,50.3,345,49.5,348.7,49z"/>
</g>
</svg>
