<?xml version="1.0" encoding="utf-8"?>
<!-- Generator: Adobe Illustrator 25.4.1, SVG Export Plug-In . SVG Version: 6.00 Build 0)  -->
<svg version="1.1" id="Layer_1" xmlns="http://www.w3.org/2000/svg" xmlns:xlink="http://www.w3.org/1999/xlink" x="0px" y="0px"
	 viewBox="0 0 506.7 188.7" style="enable-background:new 0 0 506.7 188.7;" xml:space="preserve">
<style type="text/css">
	.st0{enable-background:new    ;}
	.st1{fill:#FFFFFF;}
</style>
<g class="st0">
	<path class="st1" d="M185.3,58.6c0.2-0.4,0.4-0.6,0.7-0.7c0.3-0.1,0.9-0.1,2.1-0.1c1.6,0,2.5,0.2,2.7,0.5v0.1
		c0,0.1,0.1,0.2,0.1,0.3c0,0.9-0.2,2.9-0.6,6.2c-1.5,11.9-2.2,21.3-2.2,28.4v3c0,2.9,0,4.4,0.1,4.5c0.1,0,0.2,0.1,0.4,0.1
		c2.1,0,6.1-0.4,12.2-1.3c2.2-0.3,3.8-0.5,4.9-0.5c1.2,0,2,0.2,2.4,0.7c0.5,0.5,0.7,1.2,0.7,2.2c0,0.9-0.2,1.5-0.6,1.9
		c-1.1,1.1-6.7,2.2-16.8,3.2c-1.6,0.2-3,0.5-4.2,0.9c-1.3,0.4-2.3,0.6-3.1,0.6c-0.7,0-1.4-0.2-1.9-0.6c-0.4-0.3-0.6-0.7-0.8-1.2
		c-0.1-0.4-0.2-1.4-0.3-3c0-0.2,0-0.6,0-1.2c0-0.5,0-1,0-1.3c0-8.3,0.7-17.6,2.1-27.8C184.2,64.6,185,59.6,185.3,58.6z"/>
	<path class="st1" d="M238.6,59.3c0.4-0.2,0.9-0.3,1.3-0.3c0.4,0,0.9,0.1,1.7,0.4c0.9,0.4,1.7,1.5,2.6,3.3c0.8,1.8,2.1,5.2,3.6,10.1
		c2.1,6.4,3.8,12.6,5.2,18.4c1.4,5.9,2.2,10,2.3,12.3v1.2c0,1-0.1,1.6-0.2,1.9s-0.3,0.6-0.7,0.9c-0.5,0.4-1.3,0.6-2.4,0.6
		c-0.8,0-1.4-0.1-1.7-0.4c-0.9-0.7-1.5-2.3-1.7-5c-0.1-1.1-0.3-2.3-0.6-3.8c-0.3-1.5-0.6-3.1-1-4.8c-0.4-1.7-0.6-3-0.8-3.7
		c-0.2-1.2-0.4-2.1-0.5-2.4c-0.2-0.4-0.5-0.6-1-0.6c-0.3,0-1.1,0.1-2.3,0.4c-8.6,1.7-13.2,2.7-13.5,3c-0.3,0.2-0.7,1.2-1.2,3
		c-0.3,1.1-1.2,3.4-2.7,7c-1.4,3.6-2.4,5.7-2.8,6.6c-0.2,0.4-0.6,0.9-1.2,1.3c-0.4,0.3-0.9,0.5-1.4,0.5c-0.7,0-1.5-0.4-2.2-1.2
		c-0.4-0.5-0.6-1-0.6-1.5c0-1,0.6-2.8,1.7-5.6c1.3-3.3,2.2-5.7,2.7-7.4c1.6-4.9,4.9-12.3,9.9-22c2.6-5,4.3-8.2,5.2-9.6
		C237.1,60.4,237.9,59.5,238.6,59.3z M240.5,71c-0.4-1.4-0.7-2.1-0.8-2.1c-0.1,0-1.7,2.9-4.7,8.7c-2.4,4.8-3.6,7.4-3.6,8.1
		c0,0.1,0,0.1,0.1,0.1h0.1c0.8,0,2.4-0.3,4.6-0.9c2.7-0.7,4.7-1.1,6-1.3c1.2-0.2,1.8-0.5,1.8-0.8s-0.5-2-1.4-5c-0.3-1-0.7-2.3-1.2-4
		C240.8,72.1,240.5,71.2,240.5,71z"/>
	<path class="st1" d="M276.6,59.5c1.2-0.4,2.5-0.6,3.8-0.6c1.8,0,3.4,0.3,4.6,0.9c1.2,0.6,2.1,1.4,2.8,2.4c0.7,1,1.2,2.3,1.7,4
		l0.9,3.1l-0.9,0.7c-0.5,0.4-1,0.6-1.4,0.6c-0.8,0-1.7-0.8-2.8-2.4c-0.9-1.3-1.9-2.4-2.8-3.3c-1-0.9-1.8-1.3-2.3-1.3
		c-0.4,0-0.6,0.2-0.8,0.6c-0.1,0.3-0.3,0.8-0.5,1.3c-0.2,0.5-0.3,0.8-0.4,1c0,0.1-0.1,0.4-0.3,0.8c-0.1,0.4-0.2,0.7-0.3,1
		s-0.1,0.7-0.3,1.3c-0.1,0.6-0.2,1.2-0.3,1.9c-0.1,0.6-0.2,1.5-0.4,2.6c-1.2,7.2-1.8,13.3-1.8,18.2c0,1.8,0,3.1,0.1,4
		c0.2,2,0.7,4.2,1.4,6.8s1.2,3.9,1.6,4h0.1c0.9,0,2.6-2.6,5-7.8c1.3-2.8,2.3-4.7,2.9-5.6c0.6-1,1.3-1.4,1.8-1.4
		c0.3,0,0.4,0.3,0.4,0.9c0,0.1,0,0.8-0.1,2.2c-0.4,5.6-0.8,8.8-1.4,9.6c-1.7,3.1-4.5,5.3-8.6,6.5c-2.1,0.6-4,0.9-5.8,0.9
		c-2.8,0-4.6-0.6-5.3-1.9c-0.2-0.5-0.9-2.3-1.9-5.5s-1.7-5.6-2-7.1c-0.3-1.3-0.5-3.2-0.5-5.6c0-7.2,1.1-13.9,3.2-20.2
		C268.4,65.3,271.9,61.1,276.6,59.5z"/>
	<path class="st1" d="M302.8,60.7c0.6-0.2,1.1-0.4,1.5-0.4c1.2,0,2,1,2.4,3c0.2,0.9,0.4,4.5,0.7,10.8c0.3,6.3,0.5,9.4,0.6,9.4
		c0.7,0,5.4-5,14.3-15.1c1.9-2.1,3.3-3.4,4.3-4c0.9-0.4,1.5-0.6,1.8-0.6c0.3,0,0.5,0.2,0.5,0.5c0,0.4-1,2-3.1,4.9
		c-2.1,2.9-3.8,5.2-5.2,6.8c-0.7,0.8-1.7,2-3.1,3.5c-1.3,1.5-2,2.3-2.1,2.4c-1.3,1.5-2,2.4-2,2.4c0,0.1,0.6,0.1,1.7,0.1h1.3
		c0.4,0,1-0.1,1.8-0.1c2.6,0,5,0.7,7.3,2.2c4.3,2.7,7.2,7,8.6,12.8c0.6,2.3,0.9,4.9,0.9,7.8c0,2.4-0.2,4-0.6,4.8
		c-0.3,0.7-0.8,1.2-1.5,1.7c-0.7,0.4-1.4,0.6-2.1,0.6h-0.3c-0.5-0.1-0.8-0.3-0.9-0.6c-0.1-0.3-0.3-1.4-0.5-3.1
		c-0.4-3.2-1.2-6.3-2.3-9.4c-1.2-3-2.5-5.4-4-7.2c-1-1.1-2.3-2.1-4-3.3c-1.7-1.1-3-1.7-3.8-1.8c0,0-0.1,0-0.2,0c-0.1,0-0.2,0-0.3,0
		c-1.1,0-2.4,0.2-4.1,0.7l-3.2,0.9l-0.6,5c-0.4,2.8-0.8,6.3-1.2,10.5c-0.3,3.1-0.7,5.1-1,5.8c-0.4,0.7-1.2,1.2-2.5,1.4
		c-0.2,0-0.5,0.1-0.8,0.1c-0.5,0-0.9-0.3-1.2-0.8c-1.1-1.7-1.7-5.6-1.7-11.8c0-3,0.2-6.1,0.6-9.5c0.5-3.9,0.9-8.6,1.2-14
		c0.5-9.4,1-14.5,1.6-15.6C301.9,61.3,302.2,60.9,302.8,60.7z"/>
</g>
<g class="st0">
	<path class="st1" d="M426.9,61.1c1.2-0.5,2.4-0.7,3.5-0.7c1.1,0,1.8,0.2,2.1,0.6c0.1,0.2,0.1,0.3,0.1,0.4c0,0.3-0.7,1.2-2.1,2.7
		c-1.8,1.8-2.7,3.1-2.7,3.9c0,0.1,0.1,0.2,0.2,0.2c0.1,0,0.7-0.4,1.7-1.2c1.5-1.2,3.8-2.1,6.8-2.5c0.9-0.1,1.8-0.2,2.7-0.2
		c2.5,0,4.4,0.3,5.7,1c1.1,0.5,2.1,1.3,3.2,2.3c1.1,1,1.8,1.9,2.2,2.6c0.5,1,1,2.7,1.5,5.2c0.5,2.5,0.8,4.5,0.8,5.9
		c0,4.1-1.4,8.2-4.1,12.4c-2.8,4.2-6.6,8.1-11.6,11.7c-1.5,1.1-3.2,1.8-5.1,2.2c-1.7,0.3-3.3,0.5-4.6,0.5c-1.3,0-2.8-0.2-4.3-0.5
		c-1.3-0.3-2.4-0.7-3.3-1.2c-0.9-0.5-2-1.3-3.2-2.5c-2.8-2.5-4.2-7.2-4.2-14c0-4.4,0.7-8.7,2-13C416.8,68.7,421,63.4,426.9,61.1z
		 M439.9,69.8c-1.2-0.8-2.8-1.2-4.5-1.2c-1.9,0-3.4,0.4-4.6,1.3c-1,0.7-1.7,1-2.3,1c-0.4,0-0.7-0.1-1-0.4l-0.6-0.4
		c-0.1,0-0.6,0.9-1.4,2.6c-1,2.3-1.9,5.1-2.6,8.5c-0.7,3.4-1.1,6.4-1.1,8.8c0.1,4.6,0.9,8.1,2.3,10.5c0.5,0.9,1.3,1.7,2.4,2.3
		c1.1,0.6,2.1,0.9,3.1,0.9c1.1,0,2.6-0.8,4.5-2.4c1.9-1.6,3.8-3.5,5.5-5.8c1.3-1.6,2.1-2.8,2.5-3.6c0.4-0.7,0.9-2.1,1.7-4.2
		c0.7-2.1,1.1-4.3,1.1-6.7c0-2-0.2-3.9-0.7-5.6c-0.4-1.4-0.9-2.6-1.5-3.4C442,71.3,441.1,70.6,439.9,69.8z"/>
	<path class="st1" d="M486.2,59.8c0.4-0.1,0.8-0.2,1.2-0.2c0.9,0,1.5,0.2,1.8,0.6c0.2,0.3,0.3,0.5,0.3,0.7c0,0.2-0.2,0.9-0.6,2
		c-1.1,3-3.6,8.7-7.6,17.1l-1.2,2.4l5.5,7.3c4.9,6.6,8.9,12.4,12.1,17.6c3.2,5.1,4.8,8.4,4.8,9.6c0,1.4-1,2.3-3,2.5
		c-0.2,0-0.5,0.1-0.9,0.1c-0.5,0-1.2-0.4-2-1.3c-0.8-0.9-3.1-3.6-6.8-8.1c-5-6.1-9.2-11.7-12.7-16.6c-1-1.4-1.6-2.1-1.9-2.1
		c-0.2,0-1.6,2-4.1,5.9c-2.6,3.9-4.6,7.3-6.2,10c-1,1.5-2,2.2-3.2,2.2h-0.3c-0.4,0-0.7-0.2-0.8-0.4c-0.1-0.2-0.1-0.7-0.1-1.4
		c0-1.2,1.8-5.1,5.4-11.9c3.6-6.8,5.4-10.3,5.5-10.7c0.1-0.3-0.2-0.9-0.8-1.9c-0.9-1.4-2.1-3.5-3.6-6.4c-3.3-6.1-5-9.4-5-9.8
		c0-0.1,0.1-0.4,0.3-0.6c0.3-0.5,1-0.9,1.9-1.2l1.4-0.4l3.7,3.9c2.6,2.8,4.2,4.6,4.8,5.4c0.8,1,1.3,1.6,1.6,1.7
		c0.2,0,1.1-1.6,2.8-4.8C482.1,64.2,484.6,60.5,486.2,59.8z"/>
</g>
<g class="st0">
	<path class="st1" d="M139.4,58.5c3-0.4,4.8-0.6,5.4-0.6h0.4c1.1,0,2.9,0.3,5.5,1c2.6,0.7,4.5,1.3,5.6,1.9c1.5,0.7,2.9,1.9,4.3,3.5
		c1.4,1.6,2.5,3.1,3.1,4.6c0.5,1.4,0.7,2.9,0.7,4.5c0,3.8-1.2,8.3-3.6,13.4c-2.4,5.1-5.6,9.8-9.6,14.2c-2,2.1-2.9,3.5-2.9,4.1
		c0,0.2,0.1,0.4,0.4,0.4c0.1,0,0.2,0,0.4-0.1c0.2-0.1,0.3-0.1,0.4-0.1c3.7-1.5,8-2.3,12.8-2.3c4,0,7.2,0.6,9.6,1.7
		c3.5,1.7,5.2,4,5.2,7c0,1.9-0.6,4.3-1.8,7.2c-1.4,3.3-3.1,6.2-5.2,8.9c-2.1,2.7-6.8,7.7-13.9,15.1c-5.3,5.4-11.1,11.6-17.6,18.5
		c-5.8,6.5-12.4,11.7-20,15.6c-3.7,1.9-6.3,2.8-7.9,2.8c-1.7,0-2.6-0.2-2.6-0.6c0-0.3,1-1.2,2.9-2.7c2-1.5,5.1-4.3,9.2-8.6
		c4.1-4.3,7.7-8.4,10.9-12.3c4-4.9,10.4-11.7,19.3-20.4c7.4-7.3,12.1-12.3,14.2-14.9c2.1-2.6,3.1-5.1,3.1-7.4c0-1.6-0.4-2.7-1.2-3.3
		c-0.8-0.6-2.2-0.9-4.2-0.9c-2.3,0-6,0.7-11.2,2.2c-5.2,1.5-9.3,2.9-12.3,4.4c-1.2,0.7-3,1.4-5.5,2.2l-2.8,0.9l0.2,8.4v3.7
		c0,12.4-0.6,19.5-1.8,21.5c-1,1.6-2.8,2.4-5.4,2.4c-0.6,0-1,0-1.2-0.1c-3.1-0.9-4.6-3.5-4.6-7.9c0-1.5,0.2-3.7,0.6-6.8
		c1.2-8.1,2.1-22.7,2.6-43.7c0.2-9,0.5-15,0.8-18c0.3-3,0.8-4.9,1.4-5.7c0.6-0.7,1.2-1.1,1.8-1.1c1.1,0,1.9,1.2,2.6,3.5
		c1.3,5.4,2,13.5,2,24.3c0,6.1,0.2,9.3,0.6,9.5h0.1c0.6,0,1.5-0.8,2.9-2.3c13.8-15,20.8-25.4,20.9-31.1c0-1.6-0.8-3.6-2.4-6
		c-1.6-2.4-3.4-4.1-5.4-5.2c-1.9-1.1-4.5-1.6-7.8-1.6c-5.9,0-10.9,1.3-15.2,4c-6.3,3.7-11.5,7.2-15.4,10.2c-1.9,1.4-3,2.1-3.4,2.1
		c-0.5,0-0.7-0.2-0.7-0.6c0-1.1,1-2.5,3-4.1c0.4-0.4,1.5-1.4,3.2-2.9c1.7-1.5,3.3-2.9,4.6-4c1.3-1.1,2.4-2,3.2-2.6
		c1.4-0.7,4.8-1.8,10.2-3.2C133.2,59.5,137.1,58.7,139.4,58.5z"/>
</g>
<g class="st0">
	<path class="st1" d="M136.3,9.6c0.8-1.1,1.7-1.7,2.8-1.7c1,0,1.8,0.4,2.5,1.2c0.7,0.8,0.9,1.8,0.7,3c-0.3,1.4-17.8,20.1-52.3,56.1
		l-8.7,9.1v44.1c0,20.6,0.1,33.2,0.2,37.9c0.2,4.7,0.6,8,1.4,9.9l1.6,3.8h-6.3c-4.3,0-6.4-0.2-6.4-0.5s0.4-1.1,1.2-2.3
		c0.9-1.3,1.4-15.7,1.5-43.1c0-4.1,0-9.5,0.1-16.3c0.1-6.8,0.1-11.5,0.1-14c0-2.4,0-4.8-0.1-7c-0.1-2.3-0.1-4.1-0.1-5.4
		c0-1.4,0-2.1,0-2.2c-0.1-1.8-0.6-3.2-1.5-4.5c-0.9-1.2-3.6-4.1-8.2-8.6c-13.3-13.2-25.8-25.9-37.4-38C15.7,18.8,9.9,12.3,9.9,11.5
		c0-0.7,0.9-1.4,2.8-2.1c0.1,0,0.2,0,0.4-0.1c0.2-0.1,0.3-0.1,0.4-0.1c1.1,0,3.5,1.7,7.1,5.1c3.6,3.4,12.3,12,25.9,25.9l31.3,31.7
		l3-2.8c2.6-2.6,17.3-18.3,44.1-47C130.7,15.9,134.5,11.8,136.3,9.6z"/>
</g>
<g class="st0">
	<path class="st1" d="M370.4,58.5c3-0.4,4.8-0.6,5.4-0.6h0.4c1.1,0,2.9,0.3,5.5,1c2.6,0.7,4.5,1.3,5.6,1.9c1.5,0.7,2.9,1.9,4.3,3.5
		c1.4,1.6,2.5,3.1,3.1,4.6c0.5,1.4,0.7,2.9,0.7,4.5c0,3.8-1.2,8.3-3.6,13.4c-2.4,5.1-5.6,9.8-9.6,14.2c-2,2.1-2.9,3.5-2.9,4.1
		c0,0.2,0.1,0.4,0.4,0.4c0.1,0,0.2,0,0.4-0.1c0.2-0.1,0.3-0.1,0.4-0.1c3.7-1.5,8-2.3,12.8-2.3c4,0,7.2,0.6,9.6,1.7
		c3.5,1.7,5.2,4,5.2,7c0,1.9-0.6,4.3-1.8,7.2c-1.4,3.3-3.1,6.2-5.2,8.9c-2.1,2.7-6.8,7.7-13.9,15.1c-5.3,5.4-11.1,11.6-17.6,18.5
		c-5.8,6.5-12.4,11.7-20,15.6c-3.7,1.9-6.3,2.8-7.9,2.8c-1.7,0-2.6-0.2-2.6-0.6c0-0.3,1-1.2,2.9-2.7c2-1.5,5.1-4.3,9.2-8.6
		c4.1-4.3,7.7-8.4,10.9-12.3c4-4.9,10.4-11.7,19.3-20.4c7.4-7.3,12.1-12.3,14.2-14.9c2.1-2.6,3.1-5.1,3.1-7.4c0-1.6-0.4-2.7-1.2-3.3
		c-0.8-0.6-2.2-0.9-4.2-0.9c-2.3,0-6,0.7-11.2,2.2c-5.2,1.5-9.3,2.9-12.3,4.4c-1.2,0.7-3,1.4-5.5,2.2l-2.8,0.9l0.2,8.4v3.7
		c0,12.4-0.6,19.5-1.8,21.5c-1,1.6-2.8,2.4-5.4,2.4c-0.6,0-1,0-1.2-0.1c-3.1-0.9-4.6-3.5-4.6-7.9c0-1.5,0.2-3.7,0.6-6.8
		c1.2-8.1,2.1-22.7,2.6-43.7c0.2-9,0.5-15,0.8-18c0.3-3,0.8-4.9,1.4-5.7c0.6-0.7,1.2-1.1,1.8-1.1c1.1,0,1.9,1.2,2.6,3.5
		c1.3,5.4,2,13.5,2,24.3c0,6.1,0.2,9.3,0.6,9.5h0.1c0.6,0,1.5-0.8,2.9-2.3c13.8-15,20.8-25.4,20.9-31.1c0-1.6-0.8-3.6-2.4-6
		c-1.6-2.4-3.4-4.1-5.4-5.2c-1.9-1.1-4.5-1.6-7.8-1.6c-5.9,0-10.9,1.3-15.2,4c-6.3,3.7-11.5,7.2-15.4,10.2c-1.9,1.4-3,2.1-3.4,2.1
		c-0.5,0-0.7-0.2-0.7-0.6c0-1.1,1-2.5,3-4.1c0.4-0.4,1.5-1.4,3.2-2.9c1.7-1.5,3.3-2.9,4.6-4c1.3-1.1,2.4-2,3.2-2.6
		c1.4-0.7,4.8-1.8,10.2-3.2C364.3,59.5,368.1,58.7,370.4,58.5z"/>
</g>
</svg>
