<svg width="1440" height="1024" viewBox="0 0 1440 1024" fill="none" xmlns="http://www.w3.org/2000/svg">
<rect width="1440" height="1024" fill="#F5F5F5"/>
<rect width="1440" height="1024" fill="white"/>
<path d="M715.033 160.08C715.033 151.257 715.989 177.707 716.907 186.481C717.507 192.222 717.225 198.19 717.657 203.969C718.096 209.843 716.782 215.207 716.782 221.041C716.782 253.569 715.243 285.977 715.243 318.522C715.243 323.834 716.896 328.885 716.896 334.157C716.896 337.893 716.831 341.635 716.831 345.375C716.831 355.529 716.347 365.608 716.067 375.748C715.55 394.472 715.139 412.907 715.764 431.651C716.511 454.035 715.908 521.238 715.908 498.841" stroke="#1E1E1E" stroke-width="3" stroke-linecap="round" stroke-linejoin="round"/>
<path d="M720.131 538.862C720.131 530.039 721.087 556.488 722.005 565.263C722.605 571.004 722.323 576.971 722.756 582.751C723.195 588.625 721.881 593.989 721.881 599.823C721.881 632.351 720.342 664.759 720.342 697.304C720.342 702.615 721.994 707.666 721.994 712.939C721.994 716.674 721.929 720.417 721.929 724.157C721.929 734.311 721.445 744.39 721.165 754.53C720.648 773.254 720.237 791.689 720.863 810.432C721.61 832.817 721.006 900.019 721.006 877.623" stroke="#1E1E1E" stroke-width="3" stroke-linecap="round" stroke-linejoin="round"/>
<path d="M713.477 158.512C723.854 158.512 692.726 158.955 682.35 158.955C667.256 158.955 652.523 161.832 637.429 161.832C620.005 161.832 602.825 165.168 585.452 164.58C566.333 163.933 547.344 165.204 528.286 165.204C499.858 165.204 471.382 164.435 442.939 164.435C416.378 164.435 389.847 165.594 363.278 165.594C325.328 165.594 287.53 163.329 249.497 163.329C237.904 163.329 226.32 164.045 214.713 164.045C213.04 164.045 203.078 162.099 203.078 163.824" stroke="#1E1E1E" stroke-width="3" stroke-linecap="round" stroke-linejoin="round"/>
<path d="M718.575 537.294C728.952 537.294 697.825 537.737 687.448 537.737C672.354 537.737 657.622 540.614 642.527 540.614C625.103 540.614 607.924 543.95 590.55 543.362C571.432 542.714 552.442 543.985 533.384 543.985C504.956 543.985 476.48 543.217 448.037 543.217C421.477 543.217 394.945 544.376 368.376 544.376C330.426 544.376 292.629 542.111 254.595 542.111C243.002 542.111 231.418 542.827 219.812 542.827C218.138 542.827 208.177 540.88 208.177 542.605" stroke="#1E1E1E" stroke-width="3" stroke-linecap="round" stroke-linejoin="round"/>
<path d="M714.692 503.802C711.475 503.802 707.623 502.39 704.403 501.668C699.765 500.627 695.172 500.64 690.473 500.118C682.872 499.274 675.27 498.217 667.605 498.217C658.463 498.217 649.311 496.941 640.173 496.941C630.065 496.941 619.942 497.163 609.82 497.163C579.649 497.163 549.553 496.668 519.369 496.668C491.688 496.668 464.305 498.269 436.654 498.269C422.353 498.269 407.752 499.837 393.512 498.645C381.419 497.633 369.312 498.465 357.258 497.565C351.002 497.097 345.123 496.108 338.804 496.108C332.534 496.108 326.673 495.943 320.483 494.897C314.412 493.872 307.904 495.047 301.903 496.004C296.951 496.794 291.933 496.447 286.934 496.447C267.929 496.447 249.088 495.887 230.115 495.887C223.613 495.887 217.182 496.11 210.74 496.225C206.997 496.293 195.977 496.106 199.553 497.215" stroke="#1E1E1E" stroke-width="3" stroke-linecap="round" stroke-linejoin="round"/>
<path d="M719.791 882.583C716.573 882.583 712.721 881.171 709.501 880.449C704.863 879.409 700.271 879.421 695.571 878.899C687.97 878.055 680.368 876.999 672.703 876.999C663.561 876.999 654.409 875.723 645.271 875.723C635.163 875.723 625.04 875.944 614.919 875.944C584.747 875.944 554.651 875.45 524.467 875.45C496.786 875.45 469.403 877.051 441.752 877.051C427.452 877.051 412.85 878.619 398.61 877.427C386.518 876.415 374.41 877.247 362.356 876.346C356.101 875.879 350.221 874.89 343.902 874.89C337.632 874.89 331.771 874.725 325.581 873.679C319.511 872.654 313.002 873.828 307.002 874.786C302.049 875.576 297.031 875.228 292.032 875.228C273.027 875.228 254.186 874.669 235.213 874.669C228.712 874.669 222.28 874.891 215.839 875.007C212.096 875.074 201.076 874.887 204.651 875.996" stroke="#1E1E1E" stroke-width="3" stroke-linecap="round" stroke-linejoin="round"/>
<path d="M202.018 165.972C202.018 164.569 201.519 165.234 201.46 166.424C201.301 169.617 201.133 172.808 201.133 176.009C201.133 181.264 203.252 187.38 202.203 192.509C201.228 197.281 201.894 202.485 201.949 207.315C202.014 213.053 200.706 219.003 200.311 224.79C199.313 239.371 200.6 253.873 199.335 268.41C197.775 286.343 199.525 304.72 198.502 322.725C197.358 342.845 198.528 363.239 198.528 383.398C198.528 400.433 197.763 417.498 198.421 434.494C199.228 455.378 199.205 476.53 199.205 497.384" stroke="#1E1E1E" stroke-width="3" stroke-linecap="round" stroke-linejoin="round"/>
<path d="M207.117 544.753C207.117 543.351 206.617 544.016 206.558 545.205C206.399 548.398 206.231 551.59 206.231 554.79C206.231 560.046 208.351 566.162 207.302 571.291C206.326 576.063 206.993 581.266 207.047 586.097C207.112 591.835 205.805 597.785 205.409 603.572C204.412 618.153 205.698 632.655 204.434 647.192C202.874 665.124 204.624 683.502 203.6 701.507C202.456 721.627 203.626 742.021 203.626 762.18C203.626 779.215 202.862 796.279 203.519 813.276C204.327 834.16 204.303 855.311 204.303 876.166" stroke="#1E1E1E" stroke-width="3" stroke-linecap="round" stroke-linejoin="round"/>
<path d="M440.578 188.776C440.578 189.346 441.098 187.74 441.499 187.335C442.452 186.369 443.898 185.541 445.184 185.128C448.987 183.906 453.338 183.849 457.29 184.318C467.193 185.494 474.128 194.994 476.157 204.228C478.076 212.959 476.963 225.218 470.95 232.237C464.468 239.805 453.964 244.216 444.269 240.531C432.935 236.223 429.923 221.606 431.893 210.671C432.814 205.555 435.207 201.188 436.362 196.281C436.719 194.763 438.474 190.493 439.851 189.805" stroke="#1E1E1E" stroke-width="3" stroke-linecap="round" stroke-linejoin="round"/>
<path d="M531.216 225.143C531.216 225.713 531.736 224.108 532.137 223.702C533.09 222.736 534.536 221.909 535.822 221.496C539.625 220.274 543.976 220.216 547.928 220.686C557.831 221.862 564.766 231.361 566.795 240.595C568.714 249.327 567.601 261.586 561.588 268.605C555.106 276.173 544.602 280.583 534.907 276.898C523.573 272.59 520.561 257.973 522.531 247.038C523.452 241.922 525.844 237.556 527 232.648C527.357 231.131 529.112 226.861 530.489 226.173" stroke="#1E1E1E" stroke-width="3" stroke-linecap="round" stroke-linejoin="round"/>
<path d="M538.817 316.543C538.817 317.113 539.337 315.508 539.737 315.102C540.69 314.136 542.137 313.308 543.422 312.895C547.226 311.673 551.577 311.616 555.528 312.085C565.431 313.261 572.366 322.761 574.396 331.995C576.315 340.726 575.201 352.985 569.189 360.005C562.707 367.573 552.202 371.983 542.508 368.298C531.173 363.99 528.162 349.373 530.131 338.438C531.053 333.322 533.445 328.956 534.6 324.048C534.958 322.531 536.712 318.261 538.09 317.572" stroke="#1E1E1E" stroke-width="3" stroke-linecap="round" stroke-linejoin="round"/>
<path d="M476.092 383.043C476.092 383.613 476.612 382.008 477.012 381.602C477.965 380.637 479.412 379.809 480.697 379.396C484.501 378.174 488.852 378.117 492.803 378.586C502.706 379.762 509.641 389.261 511.671 398.496C513.59 407.227 512.476 419.486 506.464 426.505C499.982 434.073 489.478 438.484 479.783 434.799C468.448 430.49 465.437 415.873 467.406 404.938C468.328 399.823 470.72 395.456 471.876 390.548C472.233 389.031 473.987 384.761 475.365 384.073" stroke="#1E1E1E" stroke-width="3" stroke-linecap="round" stroke-linejoin="round"/>
<path d="M376.541 337.269C376.541 337.839 377.062 336.234 377.462 335.828C378.415 334.862 379.862 334.034 381.147 333.621C384.951 332.399 389.302 332.342 393.253 332.811C403.156 333.987 410.091 343.487 412.121 352.721C414.04 361.452 412.926 373.711 406.914 380.731C400.432 388.299 389.927 392.709 380.232 389.024C368.898 384.716 365.887 370.099 367.856 359.164C368.777 354.048 371.17 349.682 372.325 344.774C372.683 343.256 374.437 338.986 375.814 338.298" stroke="#1E1E1E" stroke-width="3" stroke-linecap="round" stroke-linejoin="round"/>
<path d="M371.491 236.169C371.491 236.739 372.011 235.133 372.412 234.728C373.365 233.762 374.811 232.934 376.096 232.521C379.9 231.299 384.251 231.242 388.203 231.711C398.106 232.887 405.04 242.387 407.07 251.621C408.989 260.352 407.875 272.611 401.863 279.63C395.381 287.198 384.877 291.609 375.182 287.924C363.847 283.616 360.836 268.999 362.806 258.064C363.727 252.948 366.119 248.581 367.275 243.674C367.632 242.156 369.387 237.886 370.764 237.198" stroke="#1E1E1E" stroke-width="3" stroke-linecap="round" stroke-linejoin="round"/>
<path d="M632.396 524.24H632.396" stroke="#1E1E1E" stroke-width="3" stroke-linecap="round" stroke-linejoin="round"/>
<path d="M503.852 283.882C503.852 281.85 499.165 287.386 498.233 288.608C495.569 292.104 491.743 295.392 488.606 298.535C483.664 303.485 477.797 309.013 473.725 314.648C471.416 317.844 470.571 320.537 467.323 317.063C465.208 314.801 462.765 312.686 460.921 310.184C459.434 308.168 456.27 305.827 454.126 304.583C450.503 302.483 448.011 298.986 445.037 296.149C442.431 293.663 439.954 291.035 437.312 288.638C433.767 285.42 438.172 283.403 440.458 280.746C444.742 275.765 449.211 270.148 454.339 266.043C456.719 264.138 457.981 261.543 460.072 259.412C461.237 258.224 463.089 257.543 464.082 256.177C466.439 252.932 467.8 252.48 471.056 254.921C474.189 257.269 477.816 259.129 480.852 261.565C483.607 263.775 485.639 266.672 488.3 268.945C492.607 272.626 496.839 276.275 500.745 280.356C502.37 282.054 502.688 282.692 500.512 280.248C497.378 276.73 493.921 273.334 490.251 270.39C486.22 267.157 480.833 264.254 477.521 260.235C475.93 258.304 471.283 255.604 470.333 253.706" stroke="#1E1E1E" stroke-width="3" stroke-linecap="round" stroke-linejoin="round"/>
<path d="M470.446 316.686C470.91 321.323 469.509 327.447 469.509 332.531C469.509 337.994 468.847 343.393 468.847 348.857C468.847 351.424 468.895 352.445 468.895 348.923C468.895 345.046 469.119 341.291 469.45 337.428C470.051 330.416 470.075 323.258 470.075 316.226" stroke="#1E1E1E" stroke-width="3" stroke-linecap="round" stroke-linejoin="round"/>
<path d="M434.666 287.951C435.936 287.951 434.165 308.899 434.165 312.112C434.165 317.15 435.358 305.329 435.748 303.681C436.574 300.189 436.576 295.389 436.669 291.751C436.705 290.352 436.927 286.164 436.927 287.563C436.927 290.241 436.441 292.905 436.254 295.58C435.824 301.753 435.718 307.958 435 314.108C434.754 316.211 434.931 318.403 434.483 320.477C433.92 323.076 434.569 309.837 434.569 312.497C434.569 315.208 435.344 317.822 435.344 320.492C435.344 321.891 434.501 320.565 434.89 320.921C436.283 322.192 437.93 323.12 439.294 324.454C446.379 331.386 454.258 337.593 461.07 344.817C462.463 346.294 465.556 349 467.385 349.914C471.933 352.187 459.923 343.004 456.101 339.652C451.467 335.588 446.964 331.477 442.272 327.409C440.714 326.058 433.078 321.468 432.679 319.472" stroke="#1E1E1E" stroke-width="3" stroke-linecap="round" stroke-linejoin="round"/>
<path d="M503.69 283.834C504.177 283.834 503.404 304.564 503.876 307.205C504.484 310.608 504.563 313.957 504.563 317.413" stroke="#1E1E1E" stroke-width="3" stroke-linecap="round" stroke-linejoin="round"/>
<path d="M471.674 347.287C474.705 347.287 475.815 344.32 478.046 342.506C481.398 339.779 484.388 336.682 487.783 333.996C493.672 329.339 498.61 323.231 505.106 319.52C512.291 315.416 492.093 329.785 486.133 335.524C483.199 338.35 480.543 341.716 477.263 344.105C474.951 345.788 470.43 348.461 468.847 350.835" stroke="#1E1E1E" stroke-width="3" stroke-linecap="round" stroke-linejoin="round"/>
<g style="mix-blend-mode:multiply" opacity="0.55">
<path d="M443.045 211.335V187.335H442.473C441.86 187.335 441.248 187.444 440.721 187.757C438.971 188.797 435.045 191.952 435.045 199.335C435.045 201.524 434.11 204.402 433.144 206.791C432.294 208.892 433.787 211.335 436.054 211.335H443.045ZM446.508 194.095L452.24 204.638L446.508 194.095ZM464.78 199.184L476.517 196.682L464.78 199.184ZM465.038 217.056L476.574 220.36L476.574 220.36L465.038 217.056ZM449.923 208.695L441.527 200.122L449.923 208.695ZM447.665 212.051L438.271 204.585L438.271 204.585L447.665 212.051ZM456.026 211.522L437.237 226.454L437.593 226.902C437.974 227.382 438.44 227.793 439.013 228.011C440.916 228.734 445.829 229.845 451.609 225.251C453.323 223.889 456.157 222.831 458.629 222.101C460.802 221.459 461.786 218.77 460.376 216.995L456.026 211.522ZM443.045 211.335C447.435 211.335 450.245 209.018 451.038 208.326C452.091 207.406 452.76 206.501 453.044 206.101C453.649 205.251 454.067 204.444 454.216 204.155C454.416 203.768 454.609 203.366 454.727 203.122C454.87 202.825 454.969 202.619 455.072 202.412C455.303 201.951 455.348 201.91 455.242 202.065C455.177 202.16 454.961 202.469 454.577 202.87C454.218 203.246 453.453 203.978 452.24 204.638L440.776 183.552C439.148 184.438 437.977 185.503 437.226 186.289C436.451 187.1 435.856 187.896 435.427 188.524C434.591 189.746 433.965 190.959 433.598 191.695C433.403 192.087 433.221 192.465 433.104 192.708C433.039 192.843 432.993 192.938 432.954 193.018C432.935 193.056 432.922 193.084 432.911 193.104C432.901 193.125 432.897 193.133 432.898 193.132C432.898 193.131 432.907 193.114 432.923 193.085C432.938 193.056 432.965 193.006 433.004 192.94C433.064 192.834 433.229 192.554 433.486 192.192C433.684 191.913 434.273 191.102 435.254 190.246C435.768 189.798 436.616 189.136 437.796 188.555C438.994 187.965 440.795 187.335 443.045 187.335V211.335ZM452.24 204.638C453.185 204.124 453.72 203.827 454.244 203.56C454.711 203.322 454.92 203.237 455.004 203.206C455.053 203.188 455.048 203.192 455.048 203.192C455.065 203.189 455.229 203.161 455.627 203.161V179.161C448.344 179.161 444.047 181.774 440.776 183.552L452.24 204.638ZM455.627 203.161C454.485 203.161 453.66 202.943 453.261 202.815C452.839 202.68 452.607 202.554 452.572 202.534C452.525 202.509 452.744 202.633 453.109 202.965C453.463 203.286 453.699 203.573 453.783 203.689C453.819 203.741 453.748 203.651 453.629 203.414C453.527 203.213 453.242 202.616 453.044 201.685L476.517 196.682C475.864 193.621 474.345 191.184 473.306 189.731C472.12 188.073 470.713 186.534 469.259 185.211C467.816 183.899 466.065 182.56 464.095 181.482C462.333 180.517 459.319 179.161 455.627 179.161V203.161ZM453.044 201.685C454.078 206.536 454.244 211.159 453.501 213.753L476.574 220.36C478.952 212.055 477.811 202.758 476.517 196.682L453.044 201.685ZM453.501 213.753C453.502 213.751 453.494 213.777 453.476 213.831C453.457 213.884 453.43 213.955 453.394 214.044C453.319 214.224 453.218 214.444 453.09 214.686C452.821 215.193 452.521 215.641 452.259 215.958C451.971 216.307 451.936 216.25 452.268 216.039C452.618 215.817 453.735 215.211 455.468 215.211V239.211C463.193 239.211 468.377 234.13 470.761 231.245C473.49 227.941 475.552 223.93 476.574 220.36L453.501 213.753ZM455.468 215.211C457.512 215.211 458.853 216.208 459.439 216.874C459.985 217.493 460.376 218.333 460.376 219.44H436.376C436.376 228.53 443.48 239.211 455.468 239.211V215.211ZM460.376 219.44C460.376 218.849 460.358 218.266 460.341 217.795C460.333 217.553 460.323 217.304 460.314 217.081C460.305 216.849 460.297 216.634 460.29 216.42C460.26 215.532 460.254 214.897 460.279 214.396C460.306 213.855 460.353 213.862 460.256 214.201C460.169 214.506 459.742 215.876 458.32 217.269L441.527 200.122C436.789 204.762 436.415 211.072 436.309 213.202C436.232 214.738 436.268 216.186 436.304 217.241C436.348 218.531 436.376 218.975 436.376 219.44H460.376ZM458.32 217.269C458.319 217.27 458.16 217.427 457.901 217.646C457.772 217.755 457.509 217.973 457.148 218.228C456.906 218.399 456.044 219.006 454.792 219.515C454.169 219.768 452.887 220.233 451.184 220.361C449.442 220.491 446.372 220.314 443.377 218.199C440.261 215.998 438.999 212.962 438.56 210.87C438.156 208.948 438.325 207.386 438.436 206.645C438.659 205.151 439.121 204.064 439.24 203.784C439.427 203.344 439.6 203.013 439.687 202.851C440.05 202.175 440.314 201.874 439.81 202.563C439.534 202.941 439.184 203.403 438.862 203.822C438.706 204.026 438.565 204.208 438.456 204.349C438.401 204.419 438.355 204.477 438.321 204.521C438.283 204.569 438.268 204.588 438.271 204.585L457.06 219.517C457.309 219.203 458.351 217.866 459.177 216.738C459.379 216.461 460.234 215.315 460.823 214.219C460.939 214.005 461.134 213.628 461.338 213.149C461.472 212.831 461.945 211.712 462.172 210.195C462.284 209.441 462.453 207.87 462.048 205.94C461.607 203.84 460.342 200.798 457.221 198.594C454.22 196.475 451.143 196.297 449.393 196.428C447.681 196.556 446.388 197.024 445.753 197.282C444.475 197.802 443.581 198.428 443.298 198.627C442.897 198.911 442.584 199.168 442.398 199.325C442.024 199.642 441.716 199.937 441.527 200.122L458.32 217.269ZM438.271 204.585C437.849 205.116 437.032 206.125 436.341 207.145C435.627 208.197 434.513 210.009 433.881 212.413C432.256 218.593 434.902 223.516 437.237 226.454L456.026 211.522C456.031 211.528 456.16 211.69 456.336 211.996C456.516 212.308 456.771 212.818 456.987 213.51C457.483 215.101 457.524 216.873 457.092 218.518C456.904 219.232 456.666 219.769 456.5 220.099C456.337 220.42 456.212 220.604 456.206 220.613C456.2 220.621 456.249 220.549 456.409 220.342C456.576 220.125 456.762 219.893 457.06 219.517L438.271 204.585Z" fill="#979797"/>
</g>
<g style="mix-blend-mode:multiply" opacity="0.55">
<path d="M521.457 238.266H545.457V237.694C545.457 237.081 545.348 236.469 545.035 235.942C543.995 234.192 540.84 230.266 533.457 230.266C531.268 230.266 528.39 229.331 526.001 228.365C523.9 227.515 521.457 229.008 521.457 231.275V238.266ZM534.64 240.27L546.604 241.202L546.604 241.202L534.64 240.27ZM536.386 234.796L526.621 227.822L526.621 227.822L536.386 234.796ZM541.319 240.476L532.544 232.29L541.319 240.476ZM550.203 238.226L544.601 248.838L550.203 238.226ZM554.258 252.558L542.932 248.592L554.258 252.558ZM544.75 264.362L546.492 276.235L544.75 264.362ZM535.286 260.996L546.113 255.82L535.286 260.996ZM542.083 225.189V249.189H542.655C543.268 249.189 543.88 249.08 544.407 248.767C546.157 247.727 550.083 244.572 550.083 237.189C550.083 235 551.018 232.122 551.984 229.733C552.834 227.632 551.341 225.189 549.074 225.189H542.083ZM521.457 238.266C521.457 240.189 521.946 241.928 522.018 242.199C522.212 242.937 522.505 243.889 522.902 244.85C523.086 245.293 523.438 246.098 523.984 246.983C524.254 247.422 524.744 248.163 525.481 248.961C526.091 249.622 527.665 251.206 530.262 252.157C533.51 253.347 537.572 253.211 541.078 250.9C543.881 249.052 545.096 246.602 545.535 245.602C546.432 243.555 546.566 241.687 546.604 241.202L522.676 239.339C522.689 239.17 522.722 238.817 522.811 238.35C522.887 237.948 523.079 237.05 523.555 235.964C523.95 235.062 525.118 232.675 527.869 230.862C531.323 228.585 535.329 228.454 538.517 229.622C541.056 230.551 542.567 232.088 543.113 232.679C543.786 233.407 544.209 234.057 544.412 234.385C544.822 235.051 545.033 235.563 545.079 235.673C545.153 235.853 545.189 235.963 545.197 235.987C545.208 236.02 545.215 236.044 545.223 236.074C545.227 236.091 545.256 236.2 545.293 236.393C545.311 236.491 545.344 236.674 545.375 236.919C545.4 237.117 545.457 237.612 545.457 238.266H521.457ZM546.604 241.202C546.63 240.86 546.669 240.755 546.648 240.825C546.624 240.905 546.503 241.279 546.152 241.77L526.621 227.822C523.702 231.91 522.909 236.349 522.676 239.339L546.604 241.202ZM546.152 241.77C545.974 242.019 545.822 242.201 545.72 242.316C545.617 242.433 545.54 242.51 545.501 242.548C545.46 242.587 545.443 242.601 545.454 242.592C545.464 242.583 545.492 242.559 545.542 242.521C545.643 242.443 545.795 242.334 545.995 242.205C546.193 242.077 546.413 241.946 546.644 241.82C546.875 241.694 547.096 241.584 547.294 241.494C547.494 241.403 547.64 241.348 547.721 241.319C547.76 241.306 547.771 241.303 547.754 241.308C547.739 241.312 547.683 241.328 547.587 241.348C547.494 241.368 547.337 241.398 547.125 241.423C546.916 241.449 546.611 241.475 546.228 241.475V217.475C543.605 217.475 541.288 218.145 539.813 218.659C538.16 219.236 536.562 219.98 535.135 220.759C532.776 222.049 529.039 224.437 526.621 227.822L546.152 241.77ZM546.228 241.475C545.195 241.475 544.117 241.261 543.1 240.819C542.106 240.387 541.376 239.828 540.887 239.351C539.996 238.48 539.858 237.847 539.985 238.203C540.082 238.477 540.252 239.118 540.35 240.149C540.446 241.149 540.455 242.314 540.352 243.539C540.132 246.174 539.484 248.145 538.981 249.046C538.751 249.457 538.81 249.179 539.412 248.725C540.146 248.172 541.391 247.603 542.907 247.603V271.603C551.958 271.603 557.379 265.325 559.936 260.745C562.587 255.997 563.859 250.436 564.269 245.539C564.676 240.667 564.345 235.075 562.598 230.162C561.052 225.815 556.444 217.475 546.228 217.475V241.475ZM542.907 247.603C544.219 247.603 545.862 247.99 547.385 249.039C548.813 250.022 549.536 251.17 549.847 251.803C550.145 252.407 550.174 252.743 550.152 252.604C550.135 252.495 550.103 252.19 550.117 251.681C550.147 250.623 550.356 249.376 550.661 248.349C550.809 247.852 550.93 247.573 550.965 247.501C551.049 247.327 550.824 247.879 550.093 248.662L532.544 232.29C529.791 235.242 528.382 239.068 527.655 241.514C526.798 244.399 526.22 247.716 526.127 251.005C526.041 254.049 526.328 258.366 528.315 262.404C529.376 264.558 531.087 266.956 533.778 268.808C536.564 270.727 539.746 271.603 542.907 271.603V247.603ZM550.093 248.662C549.635 249.153 549.255 249.444 549.078 249.571C548.884 249.71 548.761 249.778 548.731 249.794C548.688 249.817 548.745 249.786 548.831 249.761C548.942 249.729 548.771 249.799 548.308 249.809C547.969 249.816 546.464 249.821 544.601 248.838L555.806 227.614C552.77 226.012 549.771 225.772 547.799 225.814C545.704 225.858 543.762 226.242 542.147 226.711C539.383 227.512 535.427 229.201 532.544 232.29L550.093 248.662ZM544.601 248.838C544.231 248.642 543.827 248.304 543.518 247.869C543.235 247.47 543.161 247.175 543.153 247.135C543.146 247.108 543.18 247.254 543.153 247.575C543.127 247.892 543.052 248.251 542.932 248.592L565.584 256.524C567.071 252.276 567.728 247.094 566.582 241.934C565.378 236.51 562.068 230.921 555.806 227.614L544.601 248.838ZM542.932 248.592C542.631 249.452 542.363 250.277 542.144 250.955C541.91 251.677 541.736 252.215 541.561 252.717C541.199 253.757 541.036 254.036 541.042 254.026C541.118 253.9 541.466 253.392 542.151 252.932C542.824 252.479 543.262 252.452 543.007 252.489L546.492 276.235C553.54 275.2 558.519 271.531 561.606 266.4C562.886 264.275 563.692 262.146 564.23 260.597C564.505 259.806 564.764 259.004 564.974 258.354C565.199 257.661 565.387 257.084 565.584 256.524L542.932 248.592ZM543.007 252.489C541.047 252.777 539.333 253.204 538.721 253.341C538.32 253.432 538.368 253.41 538.579 253.383C538.822 253.352 539.572 253.27 540.599 253.404C541.722 253.549 542.921 253.917 544.057 254.564C545.137 255.178 545.836 255.859 546.208 256.278C546.558 256.672 546.685 256.91 546.612 256.786C546.545 256.675 546.383 256.386 546.113 255.82L524.46 266.171C525.305 267.94 526.507 270.237 528.264 272.215C530.421 274.644 533.496 276.683 537.512 277.204C540.568 277.601 543.293 276.913 543.991 276.756C545.209 276.481 545.69 276.353 546.492 276.235L543.007 252.489ZM546.113 255.82C546.476 256.581 546.482 256.946 546.417 256.55C546.369 256.254 546.313 255.711 546.304 254.929C546.286 253.346 546.465 251.422 546.847 249.641C547.033 248.77 547.246 248.037 547.454 247.468C547.556 247.189 547.648 246.976 547.72 246.825C547.793 246.672 547.832 246.611 547.825 246.622C547.819 246.632 547.739 246.756 547.565 246.951C547.39 247.145 547.084 247.451 546.619 247.781C545.608 248.499 544.027 249.189 542.083 249.189V225.189C534.341 225.189 529.698 230.409 527.586 233.723C525.358 237.22 524.101 241.241 523.378 244.619C522.625 248.136 522.267 251.838 522.306 255.209C522.34 258.143 522.676 262.44 524.46 266.171L546.113 255.82Z" fill="#979797"/>
</g>
<g style="mix-blend-mode:multiply" opacity="0.55">
<path d="M541.373 353.365V329.365H540.801C540.188 329.365 539.576 329.474 539.049 329.787C537.299 330.827 533.373 333.982 533.373 341.365C533.373 343.554 532.438 346.432 531.472 348.821C530.622 350.922 532.115 353.365 534.382 353.365H541.373ZM542.442 333.665L553.696 337.831L542.442 333.665ZM548.279 326.802L539.84 318.271L539.84 318.271L548.279 326.802ZM559.888 335.418L548.016 337.162L559.888 335.418ZM545.842 351.343L535.979 358.179L545.842 351.343ZM551.176 334.183L557.314 344.494L551.176 334.183ZM572.297 336.426L548.603 340.25L548.694 340.814C548.792 341.419 548.997 342.006 549.39 342.477C550.696 344.039 554.436 347.412 561.724 346.236C563.886 345.887 566.876 346.352 569.388 346.925C571.598 347.429 573.772 345.566 573.41 343.328L572.297 336.426ZM541.373 353.365C548.79 353.365 551.928 347.47 552.46 346.391C553.301 344.684 553.605 343.103 553.72 342.466C553.989 340.969 554.068 339.4 554.108 338.53C554.172 337.106 554.159 336.934 554.207 336.036C554.222 335.74 554.232 335.68 554.223 335.76C554.217 335.806 554.195 335.988 554.142 336.259C554.099 336.482 553.976 337.074 553.696 337.831L531.189 329.499C530.603 331.081 530.438 332.526 530.387 332.955C530.308 333.628 530.266 334.278 530.241 334.763C530.205 335.427 530.148 337.101 530.132 337.445C530.091 338.343 530.055 338.463 530.1 338.213C530.102 338.199 530.267 337.13 530.932 335.781C531.275 335.085 532.064 333.662 533.601 332.302C535.328 330.776 538.001 329.365 541.373 329.365V353.365ZM553.696 337.831C553.492 338.383 553.282 338.675 553.272 338.689C553.264 338.701 553.357 338.571 553.649 338.266C553.945 337.957 554.311 337.606 554.853 337.101C555.312 336.673 556.057 335.987 556.719 335.332L539.84 318.271C539.503 318.604 539.145 318.933 538.478 319.555C537.894 320.1 537.113 320.835 536.324 321.658C534.863 323.182 532.546 325.832 531.189 329.499L553.696 337.831ZM556.719 335.332C556.944 335.11 555.47 336.664 552.444 336.616C549.405 336.567 547.683 334.952 547.317 334.559C546.976 334.191 547.124 334.215 547.431 334.983C547.703 335.662 547.914 336.467 548.016 337.162L571.761 333.674C571.124 329.339 569.23 322.886 564.904 318.227C562.544 315.686 558.489 312.709 552.825 312.619C547.173 312.529 542.781 315.361 539.84 318.271L556.719 335.332ZM548.016 337.162C547.881 336.245 548.005 335.875 547.93 336.369C547.876 336.729 547.746 337.332 547.5 338.124C546.992 339.762 546.23 341.436 545.485 342.604C545.119 343.178 544.904 343.397 544.919 343.383C544.937 343.364 545.081 343.224 545.362 343.032C545.642 342.841 546.137 342.546 546.846 342.293C548.461 341.717 550.69 341.561 552.895 342.469C554.843 343.27 555.663 344.447 555.704 344.507L535.979 358.179C537.631 360.562 540.123 363.166 543.763 364.664C547.661 366.267 551.601 366.077 554.901 364.901C560.52 362.899 563.983 358.231 565.719 355.511C567.788 352.268 569.384 348.584 570.422 345.236C571.319 342.345 572.382 337.899 571.761 333.674L548.016 337.162ZM555.704 344.507C555.196 343.774 555.292 343.646 555.37 344.087C555.409 344.31 555.431 344.612 555.397 344.962C555.363 345.311 555.283 345.62 555.189 345.866C555.007 346.345 554.853 346.388 555.184 346.055C555.522 345.714 556.182 345.168 557.314 344.494L545.038 323.872C540.541 326.549 535.249 330.791 532.761 337.325C529.939 344.735 531.773 352.111 535.979 358.179L555.704 344.507ZM557.314 344.494C558.402 343.847 558.665 343.793 558.406 343.877C558.172 343.952 556.13 344.594 553.421 343.645C550.426 342.597 549.017 340.479 548.586 339.641C548.256 338.997 548.393 338.947 548.603 340.25L572.297 336.426C571.917 334.073 571.272 331.277 569.932 328.669C568.492 325.867 565.846 322.567 561.352 320.994C557.143 319.52 553.34 320.294 551.048 321.032C548.73 321.779 546.637 322.92 545.038 323.872L557.314 344.494Z" fill="#979797"/>
</g>
<g style="mix-blend-mode:multiply" opacity="0.55">
<path d="M496.819 390.626L472.819 390.626L472.819 391.198C472.819 391.811 472.928 392.423 473.241 392.95C474.281 394.7 477.436 398.626 484.819 398.626C487.008 398.626 489.886 399.561 492.275 400.527C494.376 401.377 496.819 399.884 496.819 397.617L496.819 390.626ZM493.953 385.001L501.813 375.934L493.953 385.001ZM498.591 412.692L486.769 410.632L498.591 412.692ZM492.617 423.526L502.895 429.719L492.617 423.526ZM484.402 423.176L492.993 414.797L492.993 414.797L484.402 423.176ZM487.665 384.174L495.832 406.741L496.37 406.547C496.946 406.338 497.485 406.027 497.874 405.554C499.166 403.98 501.784 399.678 499.271 392.735C498.526 390.677 498.426 387.652 498.522 385.077C498.606 382.812 496.371 381.023 494.239 381.795L487.665 384.174ZM496.819 390.626C496.819 391.661 496.558 392.365 496.353 392.771C496.147 393.181 495.772 393.739 495.047 394.294C494.305 394.862 492.854 395.657 490.8 395.676C488.579 395.696 486.931 394.795 486.092 394.068L501.813 375.934C498.801 373.323 494.925 371.638 490.584 371.677C486.41 371.714 482.947 373.333 480.465 375.232C475.864 378.751 472.819 384.572 472.819 390.626L496.819 390.626ZM486.092 394.068C487.404 395.206 487.969 396.35 488.124 398.63C488.327 401.618 487.731 405.109 486.769 410.632L510.413 414.752C511.205 410.204 512.512 403.51 512.069 397C511.577 389.783 508.946 382.117 501.813 375.934L486.092 394.068ZM486.769 410.632C486.878 410.004 487.021 409.826 486.822 410.243C486.65 410.606 486.354 411.142 485.88 411.901C485.406 412.659 484.887 413.433 484.263 414.362C483.702 415.197 482.968 416.288 482.339 417.332L502.895 429.719C503.165 429.272 503.553 428.686 504.189 427.739C504.761 426.887 505.512 425.773 506.234 424.618C507.441 422.686 509.677 418.972 510.413 414.752L486.769 410.632ZM482.339 417.332C482.474 417.108 483.181 416.011 484.802 415.085C486.612 414.051 488.65 413.753 490.427 414.01C491.973 414.235 492.896 414.808 493.104 414.943C493.345 415.1 493.302 415.114 492.993 414.797L475.811 431.554C477.632 433.421 481.472 436.963 486.985 437.762C490.171 438.224 493.585 437.708 496.708 435.923C499.643 434.247 501.601 431.867 502.895 429.719L482.339 417.332ZM492.993 414.797C493.291 415.102 493.124 415.171 493.02 414.446C492.912 413.684 492.956 412.484 493.365 411.053C493.771 409.631 494.419 408.4 495.082 407.554C495.771 406.675 496.129 406.634 495.832 406.741L487.665 384.174C478.053 387.652 472.477 396.8 470.289 404.459C468.1 412.119 467.896 423.437 475.811 431.554L492.993 414.797Z" fill="#979797"/>
</g>
<g style="mix-blend-mode:multiply" opacity="0.55">
<path d="M384.957 329.777V353.777H385.529C386.142 353.777 386.754 353.668 387.281 353.355C389.031 352.315 392.957 349.16 392.957 341.777C392.957 339.588 393.892 336.71 394.858 334.321C395.708 332.22 394.215 329.777 391.948 329.777H384.957ZM385.677 339.952L389.297 351.393L385.677 339.952ZM393.631 342.189L401.171 332.853L393.631 342.189ZM400.041 365.429L388.328 362.818L400.041 365.429ZM382.5 372.786L392.171 365.682L392.171 365.682L382.5 372.786ZM379.494 355.59L367.807 352.869L379.494 355.59ZM383.061 335.224L395.866 355.523L396.35 355.218C396.868 354.891 397.328 354.472 397.606 353.926C398.532 352.113 400.169 347.35 396.23 341.105C395.062 339.254 394.317 336.321 393.86 333.785C393.458 331.554 390.892 330.285 388.974 331.494L383.061 335.224ZM384.957 329.777C386.339 329.777 389.205 330.046 391.993 332.187C395.09 334.566 396.277 337.836 396.526 340.32C396.743 342.498 396.288 344.168 396.048 344.915C395.771 345.774 395.448 346.408 395.242 346.776C394.84 347.496 394.406 348.053 393.976 348.511C393.75 348.753 393.374 349.128 392.841 349.542C392.488 349.817 391.236 350.779 389.297 351.393L382.058 328.511C380 329.162 378.606 330.209 378.098 330.605C377.411 331.139 376.868 331.67 376.474 332.089C375.71 332.904 374.941 333.908 374.294 335.065C373.987 335.614 372.237 338.632 372.644 342.706C372.909 345.349 374.158 348.751 377.375 351.222C380.283 353.455 383.327 353.777 384.957 353.777V329.777ZM389.297 351.393C388.989 351.49 388.466 351.603 387.79 351.596C387.11 351.588 386.511 351.461 386.053 351.304C385.627 351.158 385.412 351.018 385.448 351.04C385.496 351.07 385.685 351.196 386.091 351.524L401.171 332.853C399.645 331.62 397.136 329.73 393.823 328.596C390.108 327.325 386.1 327.232 382.058 328.511L389.297 351.393ZM386.091 351.524C386.061 351.5 386.367 351.749 386.809 352.565C387.241 353.364 387.67 354.463 387.998 355.808C388.695 358.667 388.648 361.385 388.328 362.818L411.753 368.041C413.007 362.416 412.728 355.916 411.314 350.12C409.94 344.488 407.009 337.568 401.171 332.853L386.091 351.524ZM388.328 362.818C388.312 362.893 388.181 363.295 387.798 363.805C387.411 364.32 387.086 364.524 387.089 364.522C387.09 364.522 387.965 364.046 389.466 364.296C390.221 364.422 390.9 364.702 391.436 365.051C391.689 365.216 391.873 365.373 391.996 365.492C392.118 365.61 392.171 365.683 392.171 365.682L372.829 379.89C375.878 384.042 380.209 387.084 385.518 387.969C390.591 388.815 395.155 387.461 398.583 385.591C405.078 382.047 410.137 375.29 411.753 368.041L388.328 362.818ZM392.171 365.682C392.289 365.843 392.135 365.674 391.891 364.99C391.662 364.351 391.443 363.508 391.286 362.535C391.131 361.568 391.06 360.615 391.064 359.787C391.069 358.92 391.154 358.43 391.182 358.311L367.807 352.869C366.793 357.222 366.913 362.135 367.591 366.346C368.251 370.452 369.722 375.662 372.829 379.89L392.171 365.682ZM391.182 358.311C390.994 359.115 390.576 359.241 391.305 358.601C391.679 358.273 392.216 357.868 393.02 357.331C393.885 356.755 394.677 356.272 395.866 355.523L383.061 335.224C381.47 336.228 378.225 338.152 375.486 340.552C372.531 343.142 369.15 347.1 367.807 352.869L391.182 358.311Z" fill="#979797"/>
</g>
<g style="mix-blend-mode:multiply" opacity="0.55">
<path d="M380.337 253.657V229.657H379.765C379.152 229.657 378.54 229.766 378.013 230.079C376.263 231.119 372.337 234.274 372.337 241.657C372.337 243.846 371.402 246.724 370.436 249.113C369.586 251.214 371.079 253.657 373.346 253.657H380.337ZM383.472 239.832L389.589 250.156L389.589 250.156L383.472 239.832ZM390.679 242.974L382.482 251.738L390.679 242.974ZM387.653 270.808L391.968 282.005L391.968 282.005L387.653 270.808ZM378.872 272.22L369.911 280.201L369.911 280.201L378.872 272.22ZM373.814 260.194L385.713 258.641L373.814 260.194ZM381.652 249.127L376.277 238.398L381.652 249.127ZM400.79 251.048L377.943 258.398L378.118 258.942C378.306 259.526 378.597 260.075 379.057 260.481C380.583 261.828 384.788 264.599 391.816 262.339C393.9 261.668 396.926 261.677 399.496 261.865C401.757 262.031 403.625 259.862 402.931 257.704L400.79 251.048ZM380.337 253.657C382.009 253.657 383.915 253.399 385.875 252.606C387.844 251.81 389.224 250.732 390.058 249.987C390.432 249.654 390.736 249.349 390.844 249.241C391.011 249.074 390.962 249.123 390.922 249.161C390.742 249.332 390.276 249.749 389.589 250.156L377.356 229.508C376.013 230.303 375.046 231.142 374.427 231.728C374.168 231.974 373.915 232.229 373.884 232.26C373.793 232.351 373.902 232.238 374.074 232.084C374.507 231.698 375.457 230.931 376.88 230.356C378.293 229.784 379.535 229.657 380.337 229.657V253.657ZM389.589 250.156C387.44 251.429 385.18 251.602 383.517 251.335C382.101 251.107 381.277 250.6 381.181 250.542C381.028 250.449 381.079 250.461 381.377 250.718C381.699 250.996 381.929 251.22 382.482 251.738L398.875 234.209C398.445 233.807 396.232 231.601 393.628 230.022C391.323 228.624 384.562 225.238 377.356 229.508L389.589 250.156ZM382.482 251.738C381.953 251.243 381.81 250.903 381.873 251.027C381.926 251.132 382.071 251.466 382.221 252.074C382.529 253.323 382.684 255.037 382.545 256.834C382.403 258.673 382.003 259.976 381.69 260.617C381.344 261.326 381.624 260.271 383.337 259.611L391.968 282.005C397.849 279.739 401.331 275.092 403.258 271.145C405.218 267.13 406.162 262.713 406.474 258.685C406.788 254.617 406.506 250.32 405.525 246.334C404.603 242.591 402.741 237.824 398.875 234.209L382.482 251.738ZM383.337 259.611C382.941 259.764 382.505 259.944 382.226 260.06C381.893 260.197 381.601 260.317 381.3 260.437C380.674 260.685 380.229 260.84 379.932 260.923C379.512 261.041 379.919 260.867 380.841 260.88C381.625 260.891 385.026 261.087 387.833 264.239L369.911 280.201C373.54 284.275 378.215 284.846 380.507 284.877C382.937 284.911 385.086 284.404 386.422 284.029C387.881 283.619 389.205 283.12 390.145 282.748C391.732 282.118 391.258 282.279 391.968 282.005L383.337 259.611ZM387.833 264.239C387.681 264.067 387.183 263.37 386.651 262.054C386.143 260.798 385.83 259.535 385.713 258.641L361.915 261.747C362.639 267.293 365.156 274.862 369.911 280.201L387.833 264.239ZM385.713 258.641C385.887 259.97 385.599 260.882 385.486 261.177C385.377 261.46 385.337 261.431 385.56 261.149C385.767 260.887 386.069 260.575 386.421 260.286C386.589 260.148 386.74 260.039 386.86 259.959C386.984 259.877 387.044 259.848 387.028 259.856L376.277 238.398C372.806 240.137 369.345 242.96 366.731 246.267C364.312 249.327 361.018 254.874 361.915 261.747L385.713 258.641ZM387.028 259.856C386.311 260.215 384.702 260.773 382.565 260.429C380.461 260.09 379.049 259.069 378.345 258.395C377.713 257.79 377.522 257.356 377.598 257.502C377.65 257.601 377.779 257.888 377.943 258.398L400.79 251.048C400.049 248.745 398.44 244.41 394.946 241.063C392.992 239.192 390.141 237.34 386.382 236.735C382.59 236.124 379.109 236.98 376.277 238.398L387.028 259.856Z" fill="#979797"/>
</g>
<path d="M492.104 208.235C489.399 208.235 495.323 208.937 496.686 209.559C502.192 212.073 506.513 215.49 510.212 219.957" stroke="#1E1E1E" stroke-width="3" stroke-linecap="round" stroke-linejoin="round"/>
<path d="M511.295 215.743C509.372 215.743 507.465 219.84 505.802 220.842C504.392 221.693 508.256 218.851 508.939 217.901C509.483 217.144 513.105 211.668 514.041 213.684C515.469 216.762 517.304 220.302 517.304 223.773C517.304 225.694 509.53 224.557 508.213 224.38C505.496 224.014 506.714 224.244 508.29 223.638C510.457 222.803 510.637 219.085 513.12 219.085C514.117 219.085 514.994 223.026 514.994 223.711" stroke="#1E1E1E" stroke-width="3" stroke-linecap="round" stroke-linejoin="round"/>
<path d="M561.387 285.263C561.387 290.313 562.049 295.62 562.049 300.799" stroke="#1E1E1E" stroke-width="3" stroke-linecap="round" stroke-linejoin="round"/>
<path d="M563.584 296.984C562.264 294.31 557.305 294.491 559.676 298.884C559.985 299.457 562.465 304.72 562.712 304.072C563.851 301.081 564.605 297.585 565.328 294.466" stroke="#1E1E1E" stroke-width="3" stroke-linecap="round" stroke-linejoin="round"/>
<path d="M542.552 375.768C540.907 375.865 539.444 377.999 538.623 379.14C536.276 382.4 533.269 386.524 529.403 388.059" stroke="#1E1E1E" stroke-width="3" stroke-linecap="round" stroke-linejoin="round"/>
<path d="M531.406 389.597C528.699 389.597 526.165 387.286 524.18 385.51C523.259 384.687 524.476 388.296 524.476 389.644C524.476 391.757 523.202 395.384 525.97 395.019C528.602 394.671 532.175 393.575 534.136 391.704" stroke="#1E1E1E" stroke-width="3" stroke-linecap="round" stroke-linejoin="round"/>
<path d="M447.617 398.449C452.827 398.449 437.003 398.205 432.124 396.376C426.987 394.451 426.106 391.78 424 387.332" stroke="#1E1E1E" stroke-width="3" stroke-linecap="round" stroke-linejoin="round"/>
<path d="M428.006 385.794C426.421 386.942 419.139 389.556 419.211 389.289C419.788 387.123 422.365 373.686 425.183 378.393C425.749 379.339 430.481 385.383 426.567 385.383C425.892 385.383 423.639 383.268 423.252 382.61C423.107 382.364 422.819 384.559 422.417 384.559" stroke="#1E1E1E" stroke-width="3" stroke-linecap="round" stroke-linejoin="round"/>
<path d="M388.188 320.9C383.665 320.9 382.898 315.866 381.172 312.326C379.818 309.551 377.852 302.006 380.288 299.358" stroke="#1E1E1E" stroke-width="3" stroke-linecap="round" stroke-linejoin="round"/>
<path d="M385.312 303.16C383.297 303.16 376.128 302.605 376.377 301.489C376.919 299.051 377.577 291.775 382.134 293.313C384.438 294.09 389.918 307.339 384.437 300.663C381.719 297.352 381.437 296.235 380.127 300.327" stroke="#1E1E1E" stroke-width="3" stroke-linecap="round" stroke-linejoin="round"/>
<path d="M409.22 216.772C406.675 216.772 395.606 216.938 399.431 221.301" stroke="#1E1E1E" stroke-width="3" stroke-linecap="round" stroke-linejoin="round"/>
<path d="M406.716 212.498C406.716 215.126 408.158 218.028 408.582 220.627C409.207 224.455 407.55 216.903 407.427 215.987C406.525 209.287 410.016 211.298 414.259 214.151C416.196 215.454 409.753 218.677 408.816 219.714C406.723 222.029 409.978 220.442 410.951 218.801C411.542 217.803 413.488 211.918 411.702 215.438C411.569 215.699 409.744 218.737 409.543 217.027" stroke="#1E1E1E" stroke-width="3" stroke-linecap="round" stroke-linejoin="round"/>
<path d="M222.338 574.753C222.778 571.455 224.147 581.287 226.042 584.022C228.886 588.127 231.263 592.585 234.376 596.488C236.126 598.682 241.957 609.926 244.241 606.979C248.51 601.472 250.234 594.308 253.834 588.398C255.536 585.603 260.21 578.868 260.21 575.608" stroke="#1E1E1E" stroke-width="3" stroke-linecap="round" stroke-linejoin="round"/>
<path d="M244.25 606.793C244.25 613.981 245.679 622.837 243.854 629.86C241.794 637.788 244.013 613.395 242.666 605.316" stroke="#1E1E1E" stroke-width="3" stroke-linecap="round" stroke-linejoin="round"/>
<path d="M229.41 643.396C229.41 635.745 229.404 658.709 229.893 666.345C230.172 670.696 230.594 675.043 231.159 679.363C231.291 680.373 230.531 672.71 230.42 670.982C230.031 664.9 229.468 658.916 229.468 652.813C229.468 651.133 228.637 646.725 229.555 645.171C230.675 643.275 232.119 641.518 234.183 640.615" stroke="#1E1E1E" stroke-width="3" stroke-linecap="round" stroke-linejoin="round"/>
<path d="M221.43 645.424C222.538 645.27 224.376 641.423 225.172 640.68C228.261 637.8 232.692 634.909 237.107 635.718C241.135 636.456 245.036 637.649 244.923 642.097C244.825 645.962 241.258 650.089 239.226 653.138C236.499 657.23 234.283 662.261 230.628 665.643C226.102 669.83 231.575 664.643 232.873 663.132C235.906 659.606 240.741 654.58 245.663 654.041C250.108 653.554 247.371 660.805 246.307 662.494C243.129 667.537 238.286 671.425 234.052 675.53C230.029 679.429 226.421 683.887 222.28 687.618" stroke="#1E1E1E" stroke-width="3" stroke-linecap="round" stroke-linejoin="round"/>
<path d="M241.004 678.638C243.621 678.638 240.076 693.815 240.076 696.644C240.076 698.905 251.031 695.018 252.848 694.629" stroke="#1E1E1E" stroke-width="3" stroke-linecap="round" stroke-linejoin="round"/>
<path d="M246.414 705.202C245.167 709.849 243.281 715.285 240.424 719.166C237.23 723.507 244.826 709.327 246.964 704.38C248.283 701.326 248.188 700.116 249.907 703.926C251.919 708.387 253.632 722.508 254.819 717.761" stroke="#1E1E1E" stroke-width="3" stroke-linecap="round" stroke-linejoin="round"/>
<path d="M251.264 709.823C248.688 708.516 245.798 710.743 243.091 711.17" stroke="#1E1E1E" stroke-width="3" stroke-linecap="round" stroke-linejoin="round"/>
<path d="M248.424 727.465C248.424 723.159 243.734 727.365 242.236 729.87C240.918 732.073 240.157 736.228 242.018 738.329C243.379 739.865 247.251 743.072 249.293 741.067" stroke="#1E1E1E" stroke-width="3" stroke-linecap="round" stroke-linejoin="round"/>
<path d="M243.207 748.381C243.207 752.765 243.725 757.257 243.458 761.794" stroke="#1E1E1E" stroke-width="3" stroke-linecap="round" stroke-linejoin="round"/>
<path d="M254.317 744.818C250.701 744.818 246.39 750.097 245.799 753.864C245.375 756.564 250.981 759.675 253.215 760.809" stroke="#1E1E1E" stroke-width="3" stroke-linecap="round" stroke-linejoin="round"/>
<path d="M222.532 770.166C223.125 770.166 222.899 784.67 222.931 785.736C223.13 792.37 223.312 799.443 224.734 805.958" stroke="#1E1E1E" stroke-width="3" stroke-linecap="round" stroke-linejoin="round"/>
<path d="M214.436 777.047C209.48 777.047 222.511 770.245 227.452 769.864C235.501 769.243 227.242 783.033 225.42 786.092C220.226 794.813 224.435 791.466 231.43 789.138C236.145 787.569 238.772 789.801 236.375 794.888C232.69 802.71 226.003 806.32 219.208 810.883" stroke="#1E1E1E" stroke-width="3" stroke-linecap="round" stroke-linejoin="round"/>
<path d="M237.313 810.883C244.61 810.883 240.358 826.005 233.149 826.005C224.319 826.005 231.481 809.217 239.11 809.217" stroke="#1E1E1E" stroke-width="3" stroke-linecap="round" stroke-linejoin="round"/>
<path d="M242.414 833.334C242.414 838.93 234.507 844.765 231.729 849.383" stroke="#1E1E1E" stroke-width="3" stroke-linecap="round" stroke-linejoin="round"/>
<path d="M232.714 832.349C232.714 833.819 234.604 836.303 235.24 837.642C237.193 841.752 239.072 845.964 240.637 850.238" stroke="#1E1E1E" stroke-width="3" stroke-linecap="round" stroke-linejoin="round"/>
<path d="M310.384 591.65C310.384 590.317 309.952 592.047 309.952 592.763C309.952 595.848 310.186 598.956 310.347 602.037C310.65 607.819 311.682 613.478 311.682 619.278C311.682 625.497 311.324 631.712 311.324 637.938C311.324 642.712 312.226 647.509 312.226 652.321C312.226 663.245 311.756 674.067 311.756 684.963C311.756 692.253 311.517 699.28 310.604 706.461C309.738 713.267 310.683 720.289 310.302 727.134C308.392 761.495 308.778 796.029 308.778 830.351" stroke="#1E1E1E" stroke-width="3" stroke-linecap="round" stroke-linejoin="round"/>
<path d="M310.327 590.357C318.624 590.357 326.825 591.796 335.05 591.796C346.05 591.796 358.935 588.241 369.602 590.814C382.516 593.929 394.093 592.143 407.151 591.051C418.838 590.075 431.017 590.559 442.751 590.559C460.746 590.559 479.024 590.53 496.884 591.504C507.007 592.056 502.032 613.146 501.22 619.841C498.923 638.782 500.392 658.109 499.55 677.158C498.574 699.23 499.165 721.48 499.165 743.585C499.165 769.953 503.366 795.628 503.366 821.715" stroke="#1E1E1E" stroke-width="3" stroke-linecap="round" stroke-linejoin="round"/>
<path d="M308.616 832.333C327.348 832.333 346.467 836.132 365.196 837.017C376.665 837.558 387.914 835.752 399.419 835.752C406.908 835.752 414.166 837.957 421.625 837.957C429.221 837.957 436.772 837.189 444.301 837.102C464.329 836.871 484.204 839.396 504.086 839.396C509.769 839.396 505.647 807.275 505.647 803.09" stroke="#1E1E1E" stroke-width="3" stroke-linecap="round" stroke-linejoin="round"/>
<path d="M497.275 595.62C496.823 595.62 492.142 606.935 490.363 608.742C486.222 612.946 482.858 618.149 479.707 623.132C470.684 637.395 460.259 650.764 451.013 664.897C434.934 689.473 414.96 711.778 399.465 736.809C383.814 762.09 362.051 782.073 340.696 802.084C331.643 810.567 318.283 821.226 312.637 832.513" stroke="#1E1E1E" stroke-width="3" stroke-linecap="round" stroke-linejoin="round"/>
<path d="M310.237 593.236C310.237 592.84 314.091 598.487 315.156 599.771C318.48 603.776 322.126 607.599 325.301 611.715C332.975 621.668 341.382 630.869 348.036 641.571C363.917 667.115 385.366 689.454 403.23 713.634C413.695 727.798 424.305 741.583 435.199 755.423C445.055 767.945 456.445 781.042 464.826 794.547C471.556 805.391 479.948 817.54 488.879 826.727C490.648 828.546 500.75 845.138 502.226 844.548" stroke="#1E1E1E" stroke-width="3" stroke-linecap="round" stroke-linejoin="round"/>
<path d="M542.898 637.985C544.234 637.985 541.236 641.548 540.938 642.101C539.843 644.137 538.763 646.226 537.857 648.352C537.031 650.291 536.713 652.665 535.383 654.347C533.688 656.49 533.769 657.89 534.984 654.169C535.846 651.526 536.633 648.863 537.551 646.238C538.16 644.497 539.523 643.293 540.177 641.582C541.006 639.414 541.823 637.616 542.755 635.558C543.626 633.633 544.59 638.952 544.709 639.445C545.605 643.137 546.579 646.725 547.523 650.372C547.655 650.885 548.155 656.009 548.377 656.12" stroke="#1E1E1E" stroke-width="3" stroke-linecap="round" stroke-linejoin="round"/>
<path d="M546.12 648.689C546.12 648.89 543.69 648.504 543.517 648.484C542.105 648.317 540.657 648.4 539.236 648.4C538.61 648.4 535.061 647.901 536.226 648.275" stroke="#1E1E1E" stroke-width="3" stroke-linecap="round" stroke-linejoin="round"/>
<path d="M554.043 635.82C554.058 635.822 553.353 647.284 553.353 648.386C553.353 650.167 553.136 651.922 553.136 653.704C553.136 655.533 553.136 649.498 553.136 648.982C553.136 645.254 553.736 641.286 554.561 637.627C555.112 635.185 557.309 634.881 559.579 635.009C561.086 635.095 561.214 637.245 560.877 638.299C560.064 640.84 558.134 641.984 556.081 643.502C555.614 643.848 551.867 646.701 553.729 645.832C555.345 645.077 556.797 644.042 558.668 644.042C561.94 644.042 563.02 646.101 563.02 649.028C563.02 653.582 556.617 655.522 553.038 655.522" stroke="#1E1E1E" stroke-width="3" stroke-linecap="round" stroke-linejoin="round"/>
<path d="M572.165 634.195C573.156 634.195 573.947 633.693 574.902 633.693C577.429 633.693 578.779 635.598 579.488 637.949C581.177 643.544 578.626 650.457 573.919 653.845C569.275 657.187 568.469 647.511 568.469 645.206C568.469 642.859 569.009 640.609 570.036 638.503C570.867 636.8 573.289 635.722 573.761 634.099" stroke="#1E1E1E" stroke-width="3" stroke-linecap="round" stroke-linejoin="round"/>
<path d="M586.877 633.405C585.715 633.405 585.363 646.568 586.032 648.201C586.44 649.199 587.58 651.986 588.795 652.22C589.491 652.355 591.894 652.962 592.482 652.355C595.013 649.736 596.206 644.928 596.692 641.453C597.032 639.015 596.149 636.122 596.987 633.818" stroke="#1E1E1E" stroke-width="3" stroke-linecap="round" stroke-linejoin="round"/>
<path d="M616.774 633.094C616.774 634.571 601.964 632.795 601.964 635.008" stroke="#1E1E1E" stroke-width="3" stroke-linecap="round" stroke-linejoin="round"/>
<path d="M608.733 634.195C608.733 640.795 606.91 647.318 606.91 653.955" stroke="#1E1E1E" stroke-width="3" stroke-linecap="round" stroke-linejoin="round"/>
<path d="M631.487 632.784C631.487 639.291 630.181 658.736 631.135 652.3C631.972 646.658 631.038 640.905 631.756 635.323C632.328 630.873 633.494 634.507 634.473 636.343C635.452 638.178 637.293 645.63 640.382 644.199C643.588 642.713 645.466 636.12 646.449 633.083C647.586 629.567 647.204 636.442 647.204 637.179C647.204 641.619 646.859 646.068 646.859 650.506" stroke="#1E1E1E" stroke-width="3" stroke-linecap="round" stroke-linejoin="round"/>
<path d="M663.197 633.656C664.445 633.656 660.703 633.656 659.456 633.656C658.459 633.656 653.963 632.539 653.448 633.66C652.599 635.509 653.619 639.117 653.619 640.953C653.619 644.433 650.26 652.788 654.602 655.099C655.444 655.547 663.51 656.592 663.73 655.839" stroke="#1E1E1E" stroke-width="3" stroke-linecap="round" stroke-linejoin="round"/>
<path d="M660.783 644.013C659.358 644.013 657.856 643.687 656.528 644.287C655.468 644.765 654.661 645.017 653.491 645.017" stroke="#1E1E1E" stroke-width="3" stroke-linecap="round" stroke-linejoin="round"/>
<path d="M548.221 684.014C548.221 684.978 555.432 678.283 555.851 678.012C558.014 676.615 558.799 681.379 559.683 682.338C563.195 686.143 568.577 673.374 571.884 678.495C572.38 679.262 574.199 678.599 574.945 678.599C577.454 678.599 579.144 680.909 581.934 679.921" stroke="#1E1E1E" stroke-width="3" stroke-linecap="round" stroke-linejoin="round"/>
<path d="M601.297 681.545C603.654 682.208 603.877 681.365 605.627 679.611C607.739 677.495 609.226 677.617 610.433 680.094C611.274 681.82 612.868 682.965 614.769 681.966C618.275 680.122 622.026 678.82 625.727 677.421" stroke="#1E1E1E" stroke-width="3" stroke-linecap="round" stroke-linejoin="round"/>
<path d="M543.876 712.75C547.627 711.559 549.556 705.476 552.78 710.249C554.087 712.184 555.381 710.415 557.261 709.756C561.559 708.25 564.939 710.55 569.007 711.719C573.116 712.9 574.556 709.531 577.719 707.984C580.255 706.743 582.333 708.141 584.85 708.408C588.397 708.784 591.757 707.645 595.215 707.14C596.706 706.922 598.634 706.64 599.858 707.698C600.736 708.457 601.081 709.361 602.242 709.74" stroke="#1E1E1E" stroke-width="3" stroke-linecap="round" stroke-linejoin="round"/>
<path d="M622.083 712.009C624.142 712.009 626.113 710.28 628.228 709.846C632.304 709.009 635 708.16 638.896 709.437C640.922 710.102 643.103 709.752 645.189 710.116C647.05 710.441 649.316 710.95 651.048 709.947C653.307 708.638 655.18 706.919 657.379 705.584" stroke="#1E1E1E" stroke-width="3" stroke-linecap="round" stroke-linejoin="round"/>
<path d="M543.94 735.068C544.678 734.75 545.612 733.069 546.356 733.069C547.394 733.069 548.267 732.495 549.235 732.194C552.49 731.18 552.062 734.359 554.62 734.359C559.576 734.359 564.873 733.648 569.444 731.58C571.621 730.594 572.822 732.297 575.019 732.297" stroke="#1E1E1E" stroke-width="3" stroke-linecap="round" stroke-linejoin="round"/>
<path d="M614.287 733.746C614.577 735.238 620.192 729.874 620.439 729.684C622.045 728.454 625.872 724.484 627.735 726.954C628.867 728.457 630.267 734.82 632.253 733.031C635.553 730.058 640.593 724.924 645.398 724.924" stroke="#1E1E1E" stroke-width="3" stroke-linecap="round" stroke-linejoin="round"/>
<path d="M270.04 656.509C268.238 656.623 266.797 663.992 266.359 665.282C265.383 668.162 264.296 671.122 263.4 674.008C262.601 676.582 265.124 668.896 266.148 666.402C267.418 663.307 268.044 659.333 269.641 656.46C270.417 655.063 270.385 658.073 270.54 658.758C271.673 663.766 274.326 669.677 274.326 674.85" stroke="#1E1E1E" stroke-width="3" stroke-linecap="round" stroke-linejoin="round"/>
<path d="M272.807 669.326C271.595 667.981 269.743 668.102 268.385 669.215" stroke="#1E1E1E" stroke-width="3" stroke-linecap="round" stroke-linejoin="round"/>
<path d="M266.333 681.99C266.333 677.891 266.367 690.188 266.367 694.287C266.367 697.977 266.31 691.076 266.401 690.072C266.521 688.744 266.337 682.431 267.699 681.654C268.527 681.182 271.96 680.432 272.768 681.029C275.558 683.088 270.661 687.031 268.994 687.948C266.976 689.058 265.647 689.104 268.918 689.104C272.073 689.104 276.518 688.815 275.525 693.438C275.058 695.615 273.327 697.715 271.349 698.683C269.955 699.365 268.198 699.255 267.013 700.365" stroke="#1E1E1E" stroke-width="3" stroke-linecap="round" stroke-linejoin="round"/>
<path d="M269.575 708.338C269.575 706.263 273.193 708.025 273.872 708.616C276.188 710.63 276.843 712.934 276.843 715.904C276.843 718.518 275.654 724.095 272.809 725.15C262.034 729.149 264.138 709.315 270.936 709.315" stroke="#1E1E1E" stroke-width="3" stroke-linecap="round" stroke-linejoin="round"/>
<path d="M267.047 735.587C265.048 738.335 262.698 749.271 268.556 749.271C272.346 749.271 273.318 745.809 273.792 742.482C274.17 739.827 275.664 732.367 273.963 734.439" stroke="#1E1E1E" stroke-width="3" stroke-linecap="round" stroke-linejoin="round"/>
<path d="M274.904 756.631C274.904 757.277 265.858 757.92 264.099 758.909" stroke="#1E1E1E" stroke-width="3" stroke-linecap="round" stroke-linejoin="round"/>
<path d="M269.349 759.954C268.837 761.962 269.167 764.475 269.099 766.539C269.038 768.421 267.713 774.374 269.609 775.542" stroke="#1E1E1E" stroke-width="3" stroke-linecap="round" stroke-linejoin="round"/>
<path d="M265.675 786.838C265.675 783.133 264.815 794.202 264.616 797.902C264.511 799.828 264.496 801.75 264.496 803.679C264.496 804.908 264.555 801.217 264.701 799.997C265.02 797.332 265.216 794.622 265.732 791.986C265.8 791.636 266.436 789.026 266.454 789.06C267.775 791.513 268.216 794.361 269.462 796.86C272.869 803.696 275.148 786.496 276.99 786.496C277.394 786.496 276.412 804.728 276.412 806.837" stroke="#1E1E1E" stroke-width="3" stroke-linecap="round" stroke-linejoin="round"/>
<path d="M273.997 814.129C277.766 814.129 266.334 812.882 262.692 813.857C262.266 813.971 263.304 814.911 263.408 815.049C264.471 816.455 264.314 818.599 264.314 820.256C264.314 822.819 262.411 828.96 266.493 828.96C268.315 828.96 274.787 829.312 275.834 827.482" stroke="#1E1E1E" stroke-width="3" stroke-linecap="round" stroke-linejoin="round"/>
<path d="M273.135 821.634C272.517 818.467 264.851 820.375 262.977 820.555" stroke="#1E1E1E" stroke-width="3" stroke-linecap="round" stroke-linejoin="round"/>
<path d="M1285.15 162.15C1285.15 153.327 1286.11 179.776 1287.02 188.551C1287.63 194.292 1287.34 200.259 1287.78 206.039C1288.21 211.913 1286.9 217.277 1286.9 223.111C1286.9 255.639 1285.36 288.046 1285.36 320.592C1285.36 325.903 1287.01 330.954 1287.01 336.227C1287.01 339.962 1286.95 343.705 1286.95 347.445C1286.95 357.599 1286.47 367.678 1286.19 377.818C1285.67 396.542 1285.26 414.977 1285.88 433.72C1286.63 456.105 1286.03 523.307 1286.03 500.911" stroke="#1E1E1E" stroke-width="3" stroke-linecap="round" stroke-linejoin="round"/>
<path d="M1285.15 540.15C1285.15 531.327 1286.11 557.776 1287.02 566.551C1287.63 572.292 1287.34 578.259 1287.78 584.039C1288.21 589.913 1286.9 595.277 1286.9 601.111C1286.9 633.639 1285.36 666.046 1285.36 698.592C1285.36 703.903 1287.01 708.954 1287.01 714.227C1287.01 717.962 1286.95 721.705 1286.95 725.445C1286.95 735.599 1286.47 745.678 1286.19 755.818C1285.67 774.542 1285.26 792.977 1285.88 811.72C1286.63 834.105 1286.03 901.307 1286.03 878.911" stroke="#1E1E1E" stroke-width="3" stroke-linecap="round" stroke-linejoin="round"/>
<path d="M1283.6 160.582C1293.97 160.582 1262.84 161.024 1252.47 161.024C1237.37 161.024 1222.64 163.901 1207.55 163.901C1190.12 163.901 1172.94 167.238 1155.57 166.65C1136.45 166.002 1117.46 167.273 1098.4 167.273C1069.98 167.273 1041.5 166.505 1013.06 166.505C986.497 166.505 959.966 167.664 933.396 167.664C895.447 167.664 857.649 165.399 819.616 165.399C808.022 165.399 796.438 166.115 784.832 166.115C783.158 166.115 773.197 164.168 773.197 165.893" stroke="#1E1E1E" stroke-width="3" stroke-linecap="round" stroke-linejoin="round"/>
<path d="M1283.6 538.582C1293.97 538.582 1262.84 539.025 1252.47 539.025C1237.37 539.025 1222.64 541.901 1207.55 541.901C1190.12 541.901 1172.94 545.238 1155.57 544.65C1136.45 544.002 1117.46 545.273 1098.4 545.273C1069.98 545.273 1041.5 544.505 1013.06 544.505C986.497 544.505 959.966 545.664 933.396 545.664C895.447 545.664 857.649 543.399 819.616 543.399C808.022 543.399 796.438 544.115 784.832 544.115C783.158 544.115 773.197 542.168 773.197 543.893" stroke="#1E1E1E" stroke-width="3" stroke-linecap="round" stroke-linejoin="round"/>
<path d="M1284.81 505.871C1281.59 505.871 1277.74 504.459 1274.52 503.737C1269.88 502.697 1265.29 502.709 1260.59 502.187C1252.99 501.343 1245.39 500.287 1237.72 500.287C1228.58 500.287 1219.43 499.011 1210.29 499.011C1200.18 499.011 1190.06 499.232 1179.94 499.232C1149.77 499.232 1119.67 498.738 1089.49 498.738C1061.81 498.738 1034.42 500.339 1006.77 500.339C992.472 500.339 977.87 501.907 963.63 500.715C951.538 499.702 939.43 500.535 927.376 499.634C921.121 499.167 915.242 498.178 908.922 498.178C902.652 498.178 896.792 498.013 890.601 496.967C884.531 495.942 878.023 497.116 872.022 498.074C867.069 498.864 862.051 498.516 857.052 498.516C838.048 498.516 819.206 497.956 800.233 497.956C793.732 497.956 787.301 498.179 780.859 498.295C777.116 498.362 766.096 498.175 769.672 499.284" stroke="#1E1E1E" stroke-width="3" stroke-linecap="round" stroke-linejoin="round"/>
<path d="M1284.81 883.871C1281.59 883.871 1277.74 882.459 1274.52 881.737C1269.88 880.697 1265.29 880.709 1260.59 880.187C1252.99 879.343 1245.39 878.287 1237.72 878.287C1228.58 878.287 1219.43 877.011 1210.29 877.011C1200.18 877.011 1190.06 877.232 1179.94 877.232C1149.77 877.232 1119.67 876.738 1089.49 876.738C1061.81 876.738 1034.42 878.339 1006.77 878.339C992.472 878.339 977.87 879.907 963.63 878.715C951.538 877.702 939.43 878.535 927.376 877.634C921.121 877.167 915.242 876.178 908.922 876.178C902.652 876.178 896.792 876.013 890.601 874.967C884.531 873.942 878.023 875.116 872.022 876.074C867.069 876.864 862.051 876.516 857.052 876.516C838.048 876.516 819.206 875.956 800.233 875.956C793.732 875.956 787.301 876.179 780.859 876.295C777.116 876.362 766.096 876.175 769.672 877.284" stroke="#1E1E1E" stroke-width="3" stroke-linecap="round" stroke-linejoin="round"/>
<path d="M772.137 168.041C772.137 166.639 771.637 167.304 771.578 168.493C771.419 171.686 771.251 174.878 771.251 178.078C771.251 183.334 773.371 189.45 772.322 194.578C771.346 199.35 772.013 204.554 772.067 209.385C772.132 215.122 770.825 221.073 770.429 226.859C769.432 241.441 770.718 255.943 769.454 270.48C767.894 288.412 769.644 306.79 768.62 324.795C767.476 344.915 768.646 365.309 768.646 385.468C768.646 402.503 767.882 419.567 768.539 436.564C769.347 457.448 769.323 478.599 769.323 499.454" stroke="#1E1E1E" stroke-width="3" stroke-linecap="round" stroke-linejoin="round"/>
<path d="M772.137 546.041C772.137 544.639 771.637 545.304 771.578 546.493C771.419 549.686 771.251 552.878 771.251 556.078C771.251 561.334 773.371 567.45 772.322 572.578C771.346 577.35 772.013 582.554 772.067 587.385C772.132 593.123 770.825 599.073 770.429 604.859C769.432 619.441 770.718 633.943 769.454 648.48C767.894 666.412 769.644 684.79 768.62 702.795C767.476 722.915 768.646 743.309 768.646 763.468C768.646 780.503 767.882 797.567 768.539 814.564C769.347 835.448 769.323 856.599 769.323 877.454" stroke="#1E1E1E" stroke-width="3" stroke-linecap="round" stroke-linejoin="round"/>
<path d="M833.284 193.434C833.284 192.112 830.234 195.714 829.628 196.509C827.894 198.784 825.405 200.923 823.364 202.968C820.149 206.189 816.331 209.786 813.682 213.452C812.179 215.532 811.629 217.284 809.516 215.024C808.14 213.552 806.55 212.176 805.35 210.548C804.383 209.236 802.324 207.713 800.929 206.904C798.572 205.537 796.95 203.262 795.015 201.416C793.32 199.798 791.708 198.089 789.989 196.529C787.682 194.435 790.549 193.123 792.036 191.394C794.823 188.153 797.731 184.498 801.068 181.827C802.616 180.587 803.438 178.899 804.798 177.512C805.556 176.739 806.761 176.296 807.407 175.408C808.941 173.296 809.826 173.002 811.945 174.59C813.984 176.118 816.343 177.328 818.319 178.913C820.111 180.351 821.434 182.236 823.165 183.715C825.967 186.11 828.721 188.484 831.262 191.14C832.32 192.245 832.527 192.66 831.111 191.07C829.072 188.78 826.823 186.571 824.434 184.655C821.812 182.552 818.306 180.663 816.152 178.048C815.116 176.792 812.092 175.035 811.474 173.8" stroke="#1E1E1E" stroke-width="3" stroke-linecap="round" stroke-linejoin="round"/>
<path d="M1273.5 449.953C1273.5 448.631 1270.45 452.232 1269.84 453.028C1268.11 455.302 1265.62 457.442 1263.58 459.487C1260.36 462.708 1256.54 466.304 1253.89 469.971C1252.39 472.05 1251.84 473.803 1249.73 471.542C1248.35 470.07 1246.76 468.694 1245.56 467.067C1244.59 465.755 1242.54 464.231 1241.14 463.422C1238.78 462.055 1237.16 459.78 1235.23 457.934C1233.53 456.317 1231.92 454.607 1230.2 453.047C1227.89 450.954 1230.76 449.641 1232.25 447.912C1235.04 444.671 1237.94 441.017 1241.28 438.345C1242.83 437.106 1243.65 435.418 1245.01 434.031C1245.77 433.258 1246.97 432.815 1247.62 431.926C1249.15 429.815 1250.04 429.52 1252.16 431.109C1254.2 432.637 1256.56 433.847 1258.53 435.432C1260.32 436.87 1261.65 438.755 1263.38 440.234C1266.18 442.629 1268.93 445.003 1271.47 447.659C1272.53 448.764 1272.74 449.178 1271.32 447.588C1269.28 445.299 1267.03 443.09 1264.65 441.174C1262.02 439.07 1258.52 437.182 1256.36 434.567C1255.33 433.31 1252.3 431.553 1251.69 430.318" stroke="#1E1E1E" stroke-width="3" stroke-linecap="round" stroke-linejoin="round"/>
<path d="M959.056 320.211C959.056 317.696 953.254 324.547 952.101 326.061C948.803 330.387 944.068 334.458 940.185 338.347C934.068 344.475 926.806 351.317 921.766 358.292C918.907 362.248 917.861 365.582 913.841 361.282C911.223 358.481 908.199 355.863 905.916 352.767C904.076 350.271 900.159 347.373 897.505 345.834C893.022 343.234 889.937 338.906 886.256 335.394C883.03 332.317 879.964 329.065 876.694 326.097C872.305 322.114 877.759 319.618 880.588 316.329C885.89 310.163 891.422 303.211 897.77 298.129C900.715 295.771 902.278 292.56 904.866 289.922C906.308 288.451 908.6 287.609 909.829 285.918C912.747 281.902 914.432 281.341 918.462 284.363C922.34 287.27 926.829 289.572 930.587 292.587C933.996 295.323 936.512 298.908 939.805 301.722C945.137 306.278 950.375 310.794 955.21 315.847C957.221 317.948 957.615 318.737 954.921 315.712C951.042 311.357 946.764 307.155 942.22 303.51C937.231 299.509 930.563 295.916 926.464 290.941C924.495 288.551 918.742 285.208 917.567 282.859" stroke="#1E1E1E" stroke-width="3" stroke-linecap="round" stroke-linejoin="round"/>
<path d="M811.548 214.779C811.85 217.795 810.939 221.78 810.939 225.088C810.939 228.643 810.508 232.156 810.508 235.711C810.508 237.381 810.539 238.046 810.539 235.754C810.539 233.231 810.684 230.788 810.9 228.275C811.291 223.712 811.306 219.055 811.306 214.479" stroke="#1E1E1E" stroke-width="3" stroke-linecap="round" stroke-linejoin="round"/>
<path d="M1251.76 471.297C1252.06 474.314 1251.15 478.299 1251.15 481.607C1251.15 485.161 1250.72 488.674 1250.72 492.23C1250.72 493.899 1250.75 494.564 1250.75 492.272C1250.75 489.75 1250.9 487.307 1251.11 484.793C1251.5 480.23 1251.52 475.574 1251.52 470.998" stroke="#1E1E1E" stroke-width="3" stroke-linecap="round" stroke-linejoin="round"/>
<path d="M917.707 360.815C918.281 366.554 916.547 374.135 916.547 380.428C916.547 387.19 915.727 393.872 915.727 400.636C915.727 403.812 915.787 405.077 915.787 400.717C915.787 395.918 916.064 391.27 916.474 386.489C917.218 377.809 917.247 368.95 917.247 360.246" stroke="#1E1E1E" stroke-width="3" stroke-linecap="round" stroke-linejoin="round"/>
<path d="M788.267 196.082C789.094 196.082 787.941 209.712 787.941 211.802C787.941 215.081 788.718 207.389 788.971 206.317C789.509 204.045 789.51 200.921 789.57 198.554C789.594 197.644 789.739 194.919 789.739 195.829C789.739 197.571 789.422 199.305 789.301 201.045C789.021 205.062 788.952 209.099 788.484 213.101C788.324 214.47 788.44 215.895 788.148 217.245C787.782 218.936 788.204 210.322 788.204 212.053C788.204 213.817 788.709 215.517 788.709 217.255C788.709 218.165 788.16 217.302 788.413 217.534C789.32 218.361 790.391 218.965 791.278 219.833C795.889 224.343 801.015 228.382 805.447 233.082C806.354 234.043 808.367 235.804 809.556 236.398C812.515 237.877 804.701 231.903 802.214 229.721C799.199 227.077 796.269 224.402 793.216 221.756C792.203 220.877 787.234 217.89 786.974 216.591" stroke="#1E1E1E" stroke-width="3" stroke-linecap="round" stroke-linejoin="round"/>
<path d="M1228.48 452.6C1229.31 452.6 1228.15 466.23 1228.15 468.321C1228.15 471.599 1228.93 463.907 1229.18 462.835C1229.72 460.563 1229.72 457.44 1229.78 455.073C1229.81 454.163 1229.95 451.438 1229.95 452.348C1229.95 454.09 1229.63 455.823 1229.51 457.564C1229.23 461.581 1229.16 465.618 1228.7 469.62C1228.54 470.988 1228.65 472.414 1228.36 473.763C1227.99 475.455 1228.42 466.841 1228.42 468.572C1228.42 470.336 1228.92 472.036 1228.92 473.774C1228.92 474.684 1228.37 473.821 1228.62 474.052C1229.53 474.88 1230.6 475.483 1231.49 476.352C1236.1 480.862 1241.23 484.9 1245.66 489.601C1246.57 490.562 1248.58 492.322 1249.77 492.917C1252.73 494.396 1244.91 488.421 1242.43 486.24C1239.41 483.596 1236.48 480.921 1233.43 478.274C1232.41 477.395 1227.45 474.409 1227.19 473.109" stroke="#1E1E1E" stroke-width="3" stroke-linecap="round" stroke-linejoin="round"/>
<path d="M873.418 325.247C874.991 325.247 872.798 351.176 872.798 355.153C872.798 361.389 874.275 346.757 874.758 344.717C875.781 340.396 875.783 334.454 875.898 329.95C875.942 328.22 876.218 323.035 876.218 324.767C876.218 328.081 875.615 331.379 875.384 334.69C874.852 342.331 874.721 350.011 873.832 357.624C873.527 360.227 873.747 362.94 873.192 365.507C872.496 368.725 873.298 352.338 873.298 355.63C873.298 358.986 874.258 362.221 874.258 365.526C874.258 367.257 873.214 365.616 873.696 366.056C875.421 367.63 877.458 368.779 879.147 370.431C887.917 379.011 897.669 386.693 906.101 395.635C907.825 397.463 911.654 400.812 913.918 401.943C919.547 404.757 904.681 393.391 899.95 389.241C894.215 384.211 888.641 379.122 882.834 374.088C880.905 372.416 871.453 366.734 870.959 364.263" stroke="#1E1E1E" stroke-width="3" stroke-linecap="round" stroke-linejoin="round"/>
<path d="M812.347 234.689C814.319 234.689 815.042 232.759 816.493 231.579C818.674 229.804 820.619 227.789 822.829 226.041C826.66 223.011 829.873 219.037 834.1 216.622C838.775 213.952 825.633 223.301 821.755 227.036C819.846 228.874 818.118 231.064 815.984 232.619C814.48 233.714 811.538 235.453 810.508 236.998" stroke="#1E1E1E" stroke-width="3" stroke-linecap="round" stroke-linejoin="round"/>
<path d="M1252.56 491.208C1254.53 491.208 1255.25 489.278 1256.7 488.097C1258.89 486.323 1260.83 484.307 1263.04 482.56C1266.87 479.53 1270.08 475.555 1274.31 473.141C1278.99 470.471 1265.84 479.82 1261.97 483.554C1260.06 485.393 1258.33 487.583 1256.2 489.137C1254.69 490.233 1251.75 491.972 1250.72 493.516" stroke="#1E1E1E" stroke-width="3" stroke-linecap="round" stroke-linejoin="round"/>
<path d="M919.226 398.692C922.978 398.692 924.352 395.02 927.113 392.774C931.263 389.399 934.963 385.565 939.167 382.241C946.455 376.476 952.567 368.916 960.609 364.323C969.502 359.243 944.5 377.028 937.124 384.133C933.492 387.63 930.205 391.796 926.144 394.753C923.283 396.837 917.687 400.146 915.727 403.083" stroke="#1E1E1E" stroke-width="3" stroke-linecap="round" stroke-linejoin="round"/>
<path d="M834.2 194.931C832.685 194.931 833.107 213.222 833.107 216.553" stroke="#1E1E1E" stroke-width="3" stroke-linecap="round" stroke-linejoin="round"/>
<path d="M1274.41 451.449C1272.9 451.449 1273.32 469.74 1273.32 473.071" stroke="#1E1E1E" stroke-width="3" stroke-linecap="round" stroke-linejoin="round"/>
<path d="M960.799 323.057C957.917 323.057 958.718 357.853 958.718 364.19" stroke="#1E1E1E" stroke-width="3" stroke-linecap="round" stroke-linejoin="round"/>
<path d="M793.229 199.813C793.122 200.663 792.263 198.398 791.754 197.709C791.327 197.13 794.372 199.488 795.09 199.92C798.224 201.81 801.776 205.13 804.274 207.816C806.256 209.946 807.511 211.031 809.849 212.783C810.496 213.269 812.458 214.605 812.458 215.512" stroke="#FF29F6" stroke-width="3" stroke-linecap="round" stroke-linejoin="round"/>
<path d="M1233.44 456.332C1233.33 457.181 1232.47 454.917 1231.97 454.228C1231.54 453.648 1234.58 456.006 1235.3 456.439C1238.44 458.329 1241.99 461.649 1244.49 464.334C1246.47 466.465 1247.72 467.549 1250.06 469.302C1250.71 469.787 1252.67 471.124 1252.67 472.031" stroke="#FF29F6" stroke-width="3" stroke-linecap="round" stroke-linejoin="round"/>
<path d="M882.857 332.345C882.655 333.962 881.019 329.654 880.052 328.343C879.24 327.241 885.032 331.727 886.397 332.55C892.36 336.145 899.116 342.46 903.869 347.569C907.64 351.622 910.027 353.686 914.474 357.019C915.706 357.942 919.437 360.485 919.437 362.211" stroke="#FF29F6" stroke-width="3" stroke-linecap="round" stroke-linejoin="round"/>
<path d="M834.037 195.237C831.931 195.237 828.87 200.719 827.296 202.361C825.448 204.287 823.382 206.14 821.223 207.67C818.443 209.641 816.209 213.502 813.241 214.986" stroke="#FF29F6" stroke-width="3" stroke-linecap="round" stroke-linejoin="round"/>
<path d="M1274.25 451.755C1272.14 451.755 1269.08 457.238 1267.51 458.879C1265.66 460.806 1263.59 462.659 1261.43 464.189C1258.65 466.16 1256.42 470.021 1253.45 471.505" stroke="#FF29F6" stroke-width="3" stroke-linecap="round" stroke-linejoin="round"/>
<path d="M960.488 323.639C956.483 323.639 950.659 334.069 947.664 337.192C944.149 340.857 940.219 344.382 936.112 347.292C930.822 351.042 926.573 358.387 920.927 361.21" stroke="#FF29F6" stroke-width="3" stroke-linecap="round" stroke-linejoin="round"/>
<path d="M812.67 216.956C812.695 216.727 812.678 225.29 811.609 227.669C810.568 229.984 810.858 235.325 810.858 230.478" stroke="#FF29F6" stroke-width="3" stroke-linecap="round" stroke-linejoin="round"/>
<path d="M1252.88 473.475C1252.91 473.246 1252.89 481.808 1251.82 484.187C1250.78 486.503 1251.07 491.844 1251.07 486.996" stroke="#FF29F6" stroke-width="3" stroke-linecap="round" stroke-linejoin="round"/>
<path d="M919.841 364.958C919.889 364.522 919.856 380.811 917.822 385.336C915.842 389.742 916.394 399.901 916.394 390.68" stroke="#FF29F6" stroke-width="3" stroke-linecap="round" stroke-linejoin="round"/>
<path d="M983.56 307.741C983.56 299.708 984.15 323.798 984.15 331.831C984.15 335.458 981.748 356.779 985.548 358.044" stroke="#1E1E1E" stroke-width="3" stroke-linecap="round" stroke-linejoin="round"/>
<path d="M970.239 315.841C969.879 318.721 973.805 311.126 976.216 309.51C980.908 306.365 985.794 305.459 991.308 305.459C994.979 305.459 1000.41 307.789 1002.17 311.29C1004.78 316.466 992.975 325.294 989.926 328.691C977.394 342.652 994.371 330.669 1001.25 330.669C1025.73 330.669 994.298 359.022 987.908 363.282" stroke="#1E1E1E" stroke-width="3" stroke-linecap="round" stroke-linejoin="round"/>
<path d="M1020.36 319.799C1020.36 327.883 1019.67 336.268 1019.67 344.503C1019.67 347.812 1035.39 342.332 1037.13 340.167" stroke="#1E1E1E" stroke-width="3" stroke-linecap="round" stroke-linejoin="round"/>
<path d="M1049.58 320.38C1049.58 319.81 1050.66 318.167 1050.66 318.673C1050.66 323.89 1047.11 329.798 1045.52 334.73C1045.12 335.972 1042.3 347.41 1043.74 343.571C1045.68 338.395 1047.12 333.029 1048.92 327.805C1050.85 322.188 1052.22 315.502 1056.28 323.639C1059.6 330.292 1060.73 352.933 1060.73 345.497" stroke="#1E1E1E" stroke-width="3" stroke-linecap="round" stroke-linejoin="round"/>
<path d="M1057.75 335.511C1052.97 335.511 1048.67 337.583 1044.05 337.583" stroke="#1E1E1E" stroke-width="3" stroke-linecap="round" stroke-linejoin="round"/>
<path d="M1077.87 321.475C1079.05 321.414 1080.38 318.704 1078.74 318.704C1072.53 318.704 1069.39 326.525 1069.13 331.779C1068.4 346.553 1074.74 353.438 1081.93 336.908" stroke="#1E1E1E" stroke-width="3" stroke-linecap="round" stroke-linejoin="round"/>
<path d="M1087.06 321.475C1087.06 318.526 1088.04 329.042 1088.07 330.095C1088.26 335.63 1088.24 341.165 1088.24 346.703C1088.24 348.198 1089 342.479 1089.51 341.144" stroke="#1E1E1E" stroke-width="3" stroke-linecap="round" stroke-linejoin="round"/>
<path d="M1101.47 320.986C1098.79 321.197 1092.6 330.305 1091.46 332.444C1090.37 334.475 1101.02 341.26 1103.24 343.03" stroke="#1E1E1E" stroke-width="3" stroke-linecap="round" stroke-linejoin="round"/>
<path d="M1118.92 306.251C1118.92 291.537 1121.09 335.625 1121.09 350.339" stroke="#1E1E1E" stroke-width="3" stroke-linecap="round" stroke-linejoin="round"/>
<path d="M1106.78 305.855C1106.78 302.106 1153.09 294.951 1122.71 319.048C1121.58 319.949 1113.25 329.864 1115.96 328.895C1120.46 327.29 1123.62 323.092 1128.53 321.782C1136.01 319.785 1136.35 326.972 1133.89 332.444C1129.89 341.343 1120.25 345.442 1113.08 351.317" stroke="#1E1E1E" stroke-width="3" stroke-linecap="round" stroke-linejoin="round"/>
<path d="M1146.52 315.05C1160.14 315.05 1158.65 333.685 1151.37 341.915C1142.21 352.268 1134.05 339.438 1135.66 329.931C1136.53 324.787 1141.92 319.514 1146.34 317.028" stroke="#1E1E1E" stroke-width="3" stroke-linecap="round" stroke-linejoin="round"/>
<path d="M1175.62 315.748C1178.55 315.748 1163.23 344.024 1163.11 342.029" stroke="#1E1E1E" stroke-width="3" stroke-linecap="round" stroke-linejoin="round"/>
<path d="M1163.6 320.683C1163.75 327.462 1171.25 330.276 1173.57 335.814" stroke="#1E1E1E" stroke-width="3" stroke-linecap="round" stroke-linejoin="round"/>
<path d="M820.58 229.633C820.58 232.551 900.025 230.779 903.511 230.613C918.459 229.902 933.368 230.37 948.303 228.839C960.726 227.565 972.952 230.23 985.372 228.46C997.861 226.681 1010.2 229.443 1022.7 229.443C1032.99 229.443 1043.18 227.83 1053.5 227.83C1075.84 227.83 1097.77 226.771 1120.05 227.943C1131.6 228.55 1143.36 228.368 1154.93 228.368C1164.31 228.368 1173.55 229.629 1182.94 229.898C1192.83 230.182 1202.64 230.44 1212.54 230.44C1223.63 230.44 1234.39 232.938 1245.49 232.938C1258.89 232.938 1299.1 232.464 1285.7 232.464" stroke="#1E1E1E" stroke-width="3" stroke-linecap="round" stroke-linejoin="round"/>
<path d="M1271.97 185.532C1266.5 185.532 1260.62 183.033 1254.91 183.033C1251.35 183.033 1247.83 183.302 1244.29 183.302" stroke="#1E1E1E" stroke-width="3" stroke-linecap="round" stroke-linejoin="round"/>
<path d="M1272.16 194.055C1267.55 194.055 1262.99 192.566 1258.42 191.699C1253.66 190.793 1248.89 192.807 1244.29 190.892" stroke="#1E1E1E" stroke-width="3" stroke-linecap="round" stroke-linejoin="round"/>
<path d="M1271.57 201.566C1274.08 201.287 1266.51 201.301 1264.01 200.87C1260.9 200.33 1257.13 199.621 1254.05 200.633C1252.42 201.165 1247.85 200.338 1247.96 200.301" stroke="#1E1E1E" stroke-width="3" stroke-linecap="round" stroke-linejoin="round"/>
<path d="M1215 449.207C1215.66 449.207 1216.98 449.162 1216.88 448.195C1216.72 446.782 1204.77 446.953 1203.28 447.425C1200.29 448.372 1196.65 446.725 1193.49 446.725C1189.59 446.725 1185.5 447.675 1181.61 448.083C1175.37 448.739 1168.51 446.994 1162.13 446.994C1156.31 446.994 1150.7 446.25 1144.9 446.25C1097.55 446.25 1050.17 447.143 1002.78 447.531C975.314 447.756 947.924 447.365 920.472 446.094C895.478 444.937 869.598 441.401 844.619 445.045C829.195 447.295 813.056 445.713 797.594 445.713" stroke="#1E1E1E" stroke-width="3" stroke-linecap="round" stroke-linejoin="round"/>
<path d="M801.011 457.398C799.503 457.231 800.272 466.833 800.272 469.147" stroke="#1E1E1E" stroke-width="3" stroke-linecap="round" stroke-linejoin="round"/>
<path d="M810.735 455.912C814.409 456.422 803.581 458.331 799.872 458.331" stroke="#1E1E1E" stroke-width="3" stroke-linecap="round" stroke-linejoin="round"/>
<path d="M807.318 462.031C812.008 462.031 802.083 462.317 801.158 462.696" stroke="#1E1E1E" stroke-width="3" stroke-linecap="round" stroke-linejoin="round"/>
<path d="M819.51 457.525C817.918 457.525 822.679 458.032 823.569 459.113C827.119 463.423 827.415 468.273 821.725 471.029C814.304 474.623 811.121 458.82 817.759 457.873" stroke="#1E1E1E" stroke-width="3" stroke-linecap="round" stroke-linejoin="round"/>
<path d="M832.841 457.462C834.231 457.462 836.996 456.352 837.803 457.797C839.57 460.96 841.41 466.169 838.009 468.959C835.259 471.215 830.024 471.854 829.22 467.615C828.916 466.014 828.218 462.99 829.091 461.49C829.773 460.319 831.51 460.152 832.103 458.869" stroke="#1E1E1E" stroke-width="3" stroke-linecap="round" stroke-linejoin="round"/>
<path d="M853.007 457.398C855.54 457.398 855.693 457.794 852.803 457.794C849.345 457.794 838.98 458.268 842.439 458.268" stroke="#1E1E1E" stroke-width="3" stroke-linecap="round" stroke-linejoin="round"/>
<path d="M848.387 459.343C848.387 461.426 848.834 473.654 848.598 473.654" stroke="#1E1E1E" stroke-width="3" stroke-linecap="round" stroke-linejoin="round"/>
<path d="M868.426 459.944C865.865 459.944 863.297 459.999 860.736 459.944C859.185 459.911 860.115 467.811 860.115 469.459C860.115 472.692 859.227 473.717 862.626 473.717C865.17 473.717 867.526 472.578 870.09 472.578C870.787 472.578 874.179 473.717 873.046 473.717" stroke="#1E1E1E" stroke-width="3" stroke-linecap="round" stroke-linejoin="round"/>
<path d="M869.565 467.265C866.345 467.265 863.192 468.546 859.989 468.546" stroke="#1E1E1E" stroke-width="3" stroke-linecap="round" stroke-linejoin="round"/>
<path d="M878.741 461.225C878.741 455.138 878.615 479.93 878.615 470.424C878.615 465.046 878.013 459.583 884.793 458.551C886.554 458.283 891.537 459.813 888.787 462.197C885.931 464.673 874.899 467.329 878.678 467.329C885.844 467.329 888.533 469.942 890.533 476.943" stroke="#1E1E1E" stroke-width="3" stroke-linecap="round" stroke-linejoin="round"/>
<path d="M799.505 586.607C799.505 579.799 799.505 600.224 799.505 607.032C799.505 611.182 799.784 615.435 799.453 619.571C799.018 625.009 800.38 630.149 800.424 635.546C800.514 646.589 800.842 657.547 800.512 668.587C800.079 683.105 802.519 697.648 802.519 712.211C802.519 724.751 801.744 737.266 801.744 749.793C801.744 756.531 801.64 763.02 800.807 769.707C800.103 775.367 800.711 781.1 800.072 786.749C798.653 799.312 799.276 837.312 799.276 824.669" stroke="#1E1E1E" stroke-width="3" stroke-linecap="round" stroke-linejoin="round"/>
<path d="M833.648 585.918C833.648 577.351 833.605 603.053 833.605 611.62C833.605 622.3 832.873 633.035 832.873 643.648C832.873 655.314 831.759 666.654 832.578 678.37C833.388 689.947 833.056 701.62 833.856 713.201C835.521 737.326 834.917 761.62 836.882 785.738C837.7 795.786 836.33 805.804 836.202 815.827C836.175 817.925 837.324 827.699 835.614 828.553" stroke="#1E1E1E" stroke-width="3" stroke-linecap="round" stroke-linejoin="round"/>
<path d="M834.925 827.864C834.831 827.021 806.659 828.413 802.749 828.413" stroke="#1E1E1E" stroke-width="3" stroke-linecap="round" stroke-linejoin="round"/>
<path d="M833.562 584.326C833.685 582.972 829.221 584.31 827.893 584.412C823.077 584.783 818.026 584.887 813.272 583.899C809.146 583.042 805.841 584.692 801.874 584.692C800.92 584.692 799.229 584.393 798.372 584.821" stroke="#1E1E1E" stroke-width="3" stroke-linecap="round" stroke-linejoin="round"/>
<path d="M811.403 612.599C811.403 614.379 811.173 619.714 811.173 617.934C811.173 613.021 811.187 608.15 811.537 603.249C812.111 595.205 811.512 607.48 811.446 602.508C811.408 599.612 811.786 601.081 812.407 603.283C813.449 606.972 814.86 611.821 816.884 615.093C818.392 617.532 819.056 615.675 819.186 613.964C819.307 612.379 819.876 599.808 821.162 599.808" stroke="#1E1E1E" stroke-width="3" stroke-linecap="round" stroke-linejoin="round"/>
<path d="M814.101 627.489C814.101 627.282 814.655 626.183 814.646 626.873C814.608 629.817 812.8 633.689 811.701 636.359C811.358 637.192 808.577 641.782 809.298 640.688C810.731 638.515 810.97 635.424 811.654 632.973C812.167 631.136 813.181 626.586 814.847 625.416C815.027 625.289 815.922 628.687 816.01 629.004C816.955 632.405 818.008 635.759 818.447 639.273C818.665 641.016 818.693 644.419 818.693 640.7" stroke="#1E1E1E" stroke-width="3" stroke-linecap="round" stroke-linejoin="round"/>
<path d="M816.871 637.365C814.778 637.365 812.777 638.183 810.585 638.183" stroke="#1E1E1E" stroke-width="3" stroke-linecap="round" stroke-linejoin="round"/>
<path d="M810.585 652.395C810.585 657.942 812.198 666.368 815.375 670.728C815.958 671.529 815.788 668.784 816.124 667.852C816.805 665.966 817.545 664.14 818.062 662.193C818.397 660.93 820.791 653.688 820.932 654.815" stroke="#1E1E1E" stroke-width="3" stroke-linecap="round" stroke-linejoin="round"/>
<path d="M813.958 682.54C814.171 686.815 814.23 699.658 814.23 695.377C814.23 691.862 814.181 688.246 814.559 684.756C814.782 682.687 816.41 682.44 818.236 681.634C821.808 680.057 822.483 684.153 820.387 686.403C819.693 687.147 815.283 688.716 816.357 688.897C818.192 689.207 821.417 688.256 822.176 690.685C823.551 695.084 816.476 696.869 814.187 699.172" stroke="#1E1E1E" stroke-width="3" stroke-linecap="round" stroke-linejoin="round"/>
<path d="M817.201 710.781C817.724 710.781 817.703 710.176 817.703 709.796C817.703 705.427 814.854 718.067 813.093 722.066C812.793 722.748 809.436 729.638 810.656 727.362C812.229 724.426 813.874 721.422 814.962 718.268C815.648 716.28 817.347 709.669 819.165 714.489C820.572 718.216 820.137 722.42 820.933 726.289C821.098 727.091 822.08 731.716 822.08 728.779" stroke="#1E1E1E" stroke-width="3" stroke-linecap="round" stroke-linejoin="round"/>
<path d="M819.885 722.927C817.859 722.927 814.47 722.901 813.139 724.67" stroke="#1E1E1E" stroke-width="3" stroke-linecap="round" stroke-linejoin="round"/>
<path d="M812.953 738.645C814.075 738.645 813.412 748.208 813.412 749.006C813.412 750.197 813.957 758.091 813.957 752.933C813.957 748.058 812.208 736.607 820.633 737.779C825.779 738.495 817.599 746.294 816.86 746.897C815.638 747.892 814.542 749.273 812.863 749.242C811.915 749.224 813.086 748.335 813.278 748.26C815.521 747.386 818.501 745.105 820.739 747.379C822.362 749.029 823.395 751.302 824.123 753.468C824.3 753.994 824.428 755.942 824.764 756.278" stroke="#1E1E1E" stroke-width="3" stroke-linecap="round" stroke-linejoin="round"/>
<path d="M883.936 570.523C883.936 572.826 889.626 576.837 891.134 578.44C893.291 580.734 894.961 583.699 897.164 585.83C898.463 587.086 901.789 593.051 903.454 593.051" stroke="#1E1E1E" stroke-width="3" stroke-linecap="round" stroke-linejoin="round"/>
<path d="M923.833 570.932C920.56 570.932 917.362 578.494 915.174 580.534C912.231 583.278 909.576 586.237 906.762 589.049C902.442 593.366 903.724 597.81 904.616 604.127C904.964 606.589 904.645 609.334 904.645 611.822C904.645 612.345 904.645 615.772 904.645 613.791C904.645 607.758 904.36 601.889 903.64 595.914C903.582 595.435 903.267 590.356 903.267 592.249C903.267 595.471 902.868 598.969 903.454 602.14C904.01 605.15 904.304 608.169 904.796 611.187C905.03 612.618 904.503 615.549 905.276 616.806" stroke="#1E1E1E" stroke-width="3" stroke-linecap="round" stroke-linejoin="round"/>
<path d="M881.883 573.084C883.566 573.084 884.9 575.391 885.807 576.507C888.553 579.888 891.53 583.191 894.222 586.6C895.868 588.683 897.05 591.04 898.847 593C902.437 596.916 891.737 585.074 888.64 580.757C886.885 578.311 884.949 575.977 883.142 573.562C880.833 570.476 889.058 578.547 891.627 581.421C894.073 584.157 897.258 586.468 899.306 589.54C900.008 590.594 902.219 592.189 902.219 593.546" stroke="#1E1E1E" stroke-width="3" stroke-linecap="round" stroke-linejoin="round"/>
<path d="M925.11 571.481C923.472 569.699 923.298 571.332 921.455 573.212C918.531 576.196 914.823 578.455 912.034 581.583C909.389 584.549 906.061 586.724 903.533 589.665C902.463 590.911 901.445 592.926 903.389 590.303C907.403 584.886 911.276 580.589 916.291 576.21C917.63 575.041 918.657 573.909 919.772 572.535C919.926 572.346 922.447 569.399 922.556 569.888" stroke="#1E1E1E" stroke-width="3" stroke-linecap="round" stroke-linejoin="round"/>
<path d="M899.536 593.32C899.536 586.775 901.832 606.224 903.519 612.549C903.971 614.242 903.812 619.549 903.812 617.797C903.812 613.049 904.232 607.795 903.64 603.1" stroke="#1E1E1E" stroke-width="3" stroke-linecap="round" stroke-linejoin="round"/>
<path d="M936.821 590.028C936.821 587.777 936.162 593.549 936.049 594.038C934.667 600.015 931.509 605.497 930.315 611.502C929.502 615.591 931.71 610.159 932.052 609.048C933.766 603.467 935.43 597.866 936.266 592.081C937.053 586.637 939.117 589.783 940.477 593.47C942.281 598.356 943.413 603.454 945.296 608.307C945.614 609.126 948.637 616.213 946.451 612.642" stroke="#1E1E1E" stroke-width="3" stroke-linecap="round" stroke-linejoin="round"/>
<path d="M943.351 603.831C941.824 603.831 940.326 603.671 938.802 603.615C937.103 603.553 931.602 605.55 930.392 604.466" stroke="#1E1E1E" stroke-width="3" stroke-linecap="round" stroke-linejoin="round"/>
<path d="M952.378 589.028C952.378 589.602 951.941 592.787 952.201 595.055C952.66 599.062 953.709 603.525 952.986 607.568C952.815 608.524 952.553 608.8 952.966 609.794C954.212 612.788 953.276 616.741 953.325 610.629C953.355 606.889 953.904 602.769 955.858 599.512C958.534 595.052 968.802 594.15 970.016 600.539C971.04 605.928 968.354 610.468 964.182 613.742C962.608 614.977 952.126 618.536 951.689 614.611" stroke="#1E1E1E" stroke-width="3" stroke-linecap="round" stroke-linejoin="round"/>
<path d="M979.818 598.301C978.392 598.301 981.262 597.109 981.907 597.031C984.241 596.748 987.19 597.331 989.029 598.884C993.831 602.938 991.917 613.054 987.605 616.529C982.785 620.412 978.874 614.507 977.799 610.684C976.487 606.015 977.451 599.507 980.909 595.924" stroke="#1E1E1E" stroke-width="3" stroke-linecap="round" stroke-linejoin="round"/>
<path d="M995.82 599.076C994.902 599.178 995.513 604.552 995.863 607.609C996.459 612.807 996.505 616.031 1002.23 616.031C1007.86 616.031 1008.13 610.603 1009.02 605.86C1009.52 603.168 1007.19 596.397 1008.45 594.514" stroke="#1E1E1E" stroke-width="3" stroke-linecap="round" stroke-linejoin="round"/>
<path d="M1017.02 588.07C1019.23 588.07 1020.88 615.203 1019.53 615.203" stroke="#1E1E1E" stroke-width="3" stroke-linecap="round" stroke-linejoin="round"/>
<path d="M1023.91 601.045C1020.24 601.045 1016.58 601.185 1012.91 601.185" stroke="#1E1E1E" stroke-width="3" stroke-linecap="round" stroke-linejoin="round"/>
<path d="M1041.14 587.199C1039.93 587.199 1040.72 599.931 1040.73 601.725C1040.74 604.228 1040.33 607.279 1040.82 609.748C1040.94 610.344 1042 612.557 1042 610.884C1042 605.448 1041.77 599.997 1041.77 594.552C1041.77 592.775 1040.98 588.235 1042.42 586.744C1042.76 586.393 1043.56 588.162 1043.64 588.306C1045.09 590.904 1046.71 593.35 1048.5 595.722C1051.88 600.179 1052.59 601.162 1055.43 595.811C1057.63 591.684 1058.84 586.461 1060.19 582.011C1061.64 577.224 1061.06 591.98 1061.23 596.978C1061.35 600.526 1061.26 604.241 1061.97 607.736C1062.15 608.577 1063.78 613.338 1063.03 611.825" stroke="#1E1E1E" stroke-width="3" stroke-linecap="round" stroke-linejoin="round"/>
<path d="M1067.22 603.1C1072.92 603.1 1078.21 601.583 1083.81 600.767C1086.35 600.398 1086.81 601.502 1085.93 598.845C1084.97 595.93 1084.05 593.215 1082.09 590.772C1077.36 584.847 1072.2 600.98 1071.74 603.627C1070.93 608.289 1071.82 610.029 1075.61 612.417C1078.7 614.367 1084.36 618.442 1086.05 613.191" stroke="#1E1E1E" stroke-width="3" stroke-linecap="round" stroke-linejoin="round"/>
<path d="M864.475 650.157C863.96 653.048 865.063 661.105 865.063 666.192C865.063 675.772 864.999 685.292 865.665 694.858C866.75 710.425 867.284 726.353 865.501 741.896C864.431 751.22 865.436 760.945 865.436 770.34C865.436 776.844 864.356 784.416 865.523 790.823" stroke="#1E1E1E" stroke-width="3" stroke-linecap="round" stroke-linejoin="round"/>
<path d="M960.3 649.468C961.853 649.346 961.288 649.701 959.826 649.834C956.662 650.122 953.037 650.437 949.883 649.995C943.936 649.16 938.106 649.498 932.075 649.844C921.379 650.458 910.957 651.201 900.213 651.201C897.351 651.201 894.773 649.511 891.645 649.511C888.835 649.511 886.025 649.511 883.215 649.511C877.409 649.511 871.616 650.835 865.709 650.835" stroke="#1E1E1E" stroke-width="3" stroke-linecap="round" stroke-linejoin="round"/>
<path d="M866.929 791.867C860.023 791.867 880.679 793.47 887.586 793.47C897.67 793.47 907.549 795.202 917.681 795.202C932.39 795.202 947.083 794.47 961.807 794.47" stroke="#1E1E1E" stroke-width="3" stroke-linecap="round" stroke-linejoin="round"/>
<path d="M961.994 651.018C961.994 659.476 962.998 668.242 962.998 676.826C962.998 690.337 962.625 703.948 962.625 717.503C962.625 724.523 966.413 796.159 963.773 796.159" stroke="#1E1E1E" stroke-width="3" stroke-linecap="round" stroke-linejoin="round"/>
<path d="M960.83 652.319C961.141 654.808 956.078 661.101 954.443 663.473C949.98 669.949 945.566 676.609 941.391 683.293C937.099 690.166 931.618 696.212 927.663 703.282C925.294 707.515 921.858 710.8 919.135 714.771C916.418 718.735 914.245 723.022 911.586 727.031C909.008 730.917 907.451 735.286 904.71 739.085C902.35 742.357 900.358 745.681 898.589 749.306C896.898 752.771 893.687 755.358 892.487 759.037C891.267 762.777 889.367 766.88 886.946 769.998C883.301 774.69 879.434 778.7 875.537 783.112C874.082 784.758 872.43 786.265 871.091 788.014C870.258 789.101 868.846 792.58 868.549 791.243" stroke="#1E1E1E" stroke-width="3" stroke-linecap="round" stroke-linejoin="round"/>
<path d="M866.138 653.008C866.543 653.008 869.3 658.398 869.645 658.914C871.601 661.838 873.945 664.787 876.103 667.575C880.633 673.427 884.381 679.694 888.806 685.576C893.235 691.464 896.911 697.832 900.969 703.972C904.929 709.961 908.62 716.871 913.422 722.214C918.834 728.237 922.93 735.33 927.95 741.712C933.825 749.181 937.73 757.411 942.862 765.39C945.33 769.229 947.785 773.01 950.82 776.44C953.384 779.338 954.584 782.885 956.682 786.069C958.573 788.939 960.137 791.854 961.555 794.971C962.284 796.574 965.941 800.353 964.475 799.376" stroke="#1E1E1E" stroke-width="3" stroke-linecap="round" stroke-linejoin="round"/>
<path d="M1006.6 663.917C1009.43 663.917 1011.95 660.999 1014.11 659.32C1015.11 658.544 1020.96 651.682 1021.7 651.92C1022.48 652.173 1024.73 659.211 1025.48 660.472C1032.76 672.608 1044.47 643.353 1053.97 654.697" stroke="#1E1E1E" stroke-width="3" stroke-linecap="round" stroke-linejoin="round"/>
<path d="M1086.39 656.838C1086.39 659.353 1090.86 654.516 1090.91 654.46C1092.35 652.895 1094.51 650.034 1096.85 649.944C1098.18 649.893 1098.33 652.598 1098.79 653.548C1100.7 657.497 1103.59 659.239 1107.52 656.612C1111.63 653.865 1115.19 655.069 1119.82 655.654C1121.69 655.889 1127.16 658.496 1128.88 657.36C1130.75 656.126 1133.4 652.825 1135.69 652.825C1137.52 652.825 1138.96 654.559 1140.82 654.828C1142.39 655.055 1143.99 654.966 1145.56 654.966C1150.93 654.966 1156.4 655.298 1161.75 654.88" stroke="#1E1E1E" stroke-width="3" stroke-linecap="round" stroke-linejoin="round"/>
<path d="M1006.83 694.299C1009.21 693.183 1011.42 691.792 1013.76 690.622C1017.45 688.784 1019.06 690.619 1022.51 691.173C1026.49 691.813 1028.86 693.966 1032.91 692.701C1037.5 691.269 1040.29 690.744 1043.46 694.528C1047.3 699.115 1054.29 685.414 1056.17 687.778C1058.56 690.801 1062.47 693.072 1066.38 693.072C1068.52 693.072 1070.4 691.43 1072.62 691.332C1073.96 691.274 1075.28 691.979 1076.64 691.588C1078.83 690.959 1090.55 685.019 1088.8 684.433" stroke="#1E1E1E" stroke-width="3" stroke-linecap="round" stroke-linejoin="round"/>
<path d="M1123.63 688.909C1123.63 690.709 1124.02 692.315 1123.77 694.164C1123.21 698.172 1128.9 686.127 1132.94 686.219C1136.52 686.301 1137.21 696.047 1139.91 695.757C1141.14 695.625 1143.85 692.274 1144.91 691.491C1147.78 689.372 1150.88 687.147 1154.04 685.488" stroke="#1E1E1E" stroke-width="3" stroke-linecap="round" stroke-linejoin="round"/>
<path d="M1013.76 722.077C1013.88 720.248 1018.9 716.461 1019.83 719.387C1020.15 720.409 1020.39 724.68 1021.85 724.68C1024.77 724.68 1027.85 721.278 1030.33 719.934C1033.49 718.221 1035.95 717.256 1038.14 720.656C1039.51 722.784 1041.14 724.003 1043.65 722.647C1047.13 720.766 1049.97 715.388 1054.23 715.321C1056.83 715.28 1058.54 717.188 1061.64 716.644" stroke="#1E1E1E" stroke-width="3" stroke-linecap="round" stroke-linejoin="round"/>
<path d="M1106.86 721.937C1106.86 720.588 1108.37 718.721 1109.55 720.299C1113.44 725.49 1116.01 724.552 1121.58 721.574C1127.29 718.52 1130.85 722.961 1136.85 721.759C1141.33 720.863 1144.55 721.664 1148.98 719.656" stroke="#1E1E1E" stroke-width="3" stroke-linecap="round" stroke-linejoin="round"/>
<path d="M216.943 112.956C217.162 112.956 217.972 111.208 218.705 110.911C221.722 109.687 224.996 109.428 227.963 110.76C230.557 111.926 231.931 116.395 231.931 119.015C231.931 122.139 231.253 123.962 229.416 126.355C228.252 127.87 225.061 127.678 223.425 127.678C220.794 127.678 219.125 126.722 217.598 124.683C216.454 123.155 214.664 115.355 217.158 114.519" stroke="#1E1E1E" stroke-width="3" stroke-linecap="round" stroke-linejoin="round"/>
<path d="M779.493 113.887C779.712 113.887 780.522 112.139 781.254 111.842C784.272 110.618 787.546 110.359 790.513 111.691C793.107 112.857 794.481 117.326 794.481 119.946C794.481 123.07 793.803 124.893 791.966 127.286C790.802 128.801 787.611 128.609 785.975 128.609C783.343 128.609 781.675 127.653 780.148 125.614C779.004 124.085 777.214 116.286 779.708 115.449" stroke="#1E1E1E" stroke-width="3" stroke-linecap="round" stroke-linejoin="round"/>
<path d="M237.323 112.543C237.323 115.51 237.809 118.587 238.309 121.505C238.671 123.617 239.023 125.731 239.374 127.844C239.477 128.467 239.239 130.62 239.649 131.081" stroke="#1E1E1E" stroke-width="3" stroke-linecap="round" stroke-linejoin="round"/>
<path d="M799.873 113.474C799.873 116.441 800.359 119.518 800.859 122.436C801.221 124.548 801.573 126.662 801.924 128.775C802.027 129.398 801.789 131.551 802.198 132.012" stroke="#1E1E1E" stroke-width="3" stroke-linecap="round" stroke-linejoin="round"/>
<path d="M237.271 112.736C238.272 112.736 239.046 111.993 240.13 111.788C242.453 111.346 245.832 111.196 247.811 112.685C250.573 114.763 249.927 117.728 248.407 120.317C246.946 122.804 242.443 124.307 239.649 124.307" stroke="#1E1E1E" stroke-width="3" stroke-linecap="round" stroke-linejoin="round"/>
<path d="M799.821 113.667C800.822 113.667 801.596 112.924 802.679 112.718C805.003 112.277 808.382 112.127 810.361 113.616C813.123 115.694 812.477 118.659 810.957 121.248C809.496 123.735 804.992 125.238 802.198 125.238" stroke="#1E1E1E" stroke-width="3" stroke-linecap="round" stroke-linejoin="round"/>
<path d="M255.136 108.32C255.742 108.32 256.566 124.433 256.566 126.935" stroke="#1E1E1E" stroke-width="3" stroke-linecap="round" stroke-linejoin="round"/>
<path d="M817.686 109.251C818.292 109.251 819.116 125.364 819.116 127.866" stroke="#1E1E1E" stroke-width="3" stroke-linecap="round" stroke-linejoin="round"/>
<path d="M259.684 116.74C257.457 116.704 255.767 117.238 253.577 117.476" stroke="#1E1E1E" stroke-width="3" stroke-linecap="round" stroke-linejoin="round"/>
<path d="M822.234 117.671C820.007 117.635 818.317 118.169 816.127 118.407" stroke="#1E1E1E" stroke-width="3" stroke-linecap="round" stroke-linejoin="round"/>
<path d="M264.964 112.736C264.964 113.936 265.367 115.452 265.551 116.646C265.951 119.233 266.405 121.835 266.672 124.44C266.707 124.779 266.677 127.103 266.988 127.297" stroke="#1E1E1E" stroke-width="3" stroke-linecap="round" stroke-linejoin="round"/>
<path d="M827.514 113.667C827.514 114.867 827.916 116.383 828.101 117.577C828.501 120.164 828.955 122.766 829.222 125.371C829.257 125.71 829.227 128.034 829.538 128.228" stroke="#1E1E1E" stroke-width="3" stroke-linecap="round" stroke-linejoin="round"/>
<path d="M264.774 107.442C264.984 107.442 265.147 107.28 265.369 107.28" stroke="#1E1E1E" stroke-width="3" stroke-linecap="round" stroke-linejoin="round"/>
<path d="M827.324 108.373C827.533 108.373 827.697 108.211 827.919 108.211" stroke="#1E1E1E" stroke-width="3" stroke-linecap="round" stroke-linejoin="round"/>
<path d="M273.914 112.627C274.983 112.627 274.645 111.957 275.546 111.582C277.363 110.825 279.471 111.274 281.058 112.386C284.162 114.559 284.562 123.094 281.224 125.398C278.085 127.564 274.732 125.676 273.61 122.661C273.081 121.239 272.865 119.809 272.846 118.277C272.817 116.034 273.574 115.364 274.405 113.253" stroke="#1E1E1E" stroke-width="3" stroke-linecap="round" stroke-linejoin="round"/>
<path d="M836.463 113.558C837.533 113.558 837.195 112.888 838.096 112.513C839.913 111.756 842.021 112.205 843.608 113.316C846.711 115.49 847.112 124.025 843.774 126.329C840.635 128.495 837.282 126.607 836.16 123.592C835.631 122.17 835.415 120.74 835.395 119.207C835.366 116.965 836.124 116.295 836.954 114.184" stroke="#1E1E1E" stroke-width="3" stroke-linecap="round" stroke-linejoin="round"/>
<path d="M288.686 112.104C288.478 112.104 289.18 116.78 289.218 117.261C289.424 119.834 290.297 127.511 290.297 124.929C290.297 122.386 290.576 119.776 290.286 117.244C290.103 115.65 289.723 113.212 290.999 112.008C293.21 109.922 297.44 109.69 298.949 112.623C300.957 116.527 299.294 121.599 300.59 125.592" stroke="#1E1E1E" stroke-width="3" stroke-linecap="round" stroke-linejoin="round"/>
<path d="M851.236 113.035C851.028 113.035 851.73 117.711 851.768 118.192C851.974 120.765 852.847 128.442 852.847 125.86C852.847 123.317 853.125 120.707 852.836 118.175C852.653 116.58 852.273 114.142 853.549 112.939C855.759 110.853 859.99 110.621 861.499 113.554C863.507 117.458 861.844 122.53 863.14 126.523" stroke="#1E1E1E" stroke-width="3" stroke-linecap="round" stroke-linejoin="round"/>
<path d="M314.544 106.376C314.544 105.076 313.967 109.469 313.915 109.8C313.519 112.357 312.918 114.874 312.631 117.449C312.451 119.073 312.422 120.842 311.753 122.359C311.506 122.919 311.784 123.829 312.017 122.781C312.983 118.435 314.384 114.104 315.01 109.693C315.135 108.808 315.843 104.766 316.712 104.207C317.981 103.389 317.971 105.873 318.155 106.673C318.983 110.266 319.912 113.835 320.844 117.403C321.325 119.244 322.891 121.821 322.891 123.675" stroke="#1E1E1E" stroke-width="3" stroke-linecap="round" stroke-linejoin="round"/>
<path d="M320.263 115.887C317.968 115.887 315.586 115.241 313.502 116.901" stroke="#1E1E1E" stroke-width="3" stroke-linecap="round" stroke-linejoin="round"/>
<path d="M331.375 112.568C331.369 112.692 331.283 113.092 331.125 113.092" stroke="#1E1E1E" stroke-width="3" stroke-linecap="round" stroke-linejoin="round"/>
<path d="M893.925 113.499C893.919 113.623 893.832 114.022 893.675 114.022" stroke="#1E1E1E" stroke-width="3" stroke-linecap="round" stroke-linejoin="round"/>
<path d="M331.237 119.645C331.237 119.815 331.297 119.811 331.349 119.949" stroke="#1E1E1E" stroke-width="3" stroke-linecap="round" stroke-linejoin="round"/>
<path d="M893.787 120.576C893.787 120.746 893.846 120.742 893.899 120.88" stroke="#1E1E1E" stroke-width="3" stroke-linecap="round" stroke-linejoin="round"/>
<path d="M872.905 104.805C872.194 104.805 873.109 111.429 873.151 112.396C873.193 113.374 873.113 125.121 873.528 125.121" stroke="#1E1E1E" stroke-width="3" stroke-linecap="round" stroke-linejoin="round"/>
<path d="M872.053 106.225C871.198 106.225 872.653 104.96 872.943 104.847C874.751 104.146 877.186 103.811 879.099 104.109C880.786 104.372 883.061 105.813 883.391 107.628C883.904 110.453 881.643 113.015 879.909 114.964C879.046 115.935 877.97 116.814 876.821 117.434C876.538 117.587 875.453 117.8 875.549 117.751C876.286 117.369 877.279 117.4 878.073 117.271C879.551 117.032 880.958 116.502 882.462 116.502C885.056 116.502 883.973 121.307 883.337 122.486C882.118 124.746 879.867 124.692 877.75 125.595C876.137 126.283 874.563 126.726 872.784 126.293" stroke="#1E1E1E" stroke-width="3" stroke-linecap="round" stroke-linejoin="round"/>
</svg>
